M48
INCH,TZ
%
T10C0.010
X2501Y2826
X2212Y3182
X2407Y3377
X2642Y3582
X3079Y3419
X3558Y2993
X3779Y3539
X4121Y2974
X4437Y2974
X4679Y3359
X4999Y3319
X5359Y2579
X5842Y2599
X5879Y3299
X6599Y2219
X5379Y1839
X4959Y2119
X4399Y2210
X3719Y1919
X1909Y3772
X1599Y4019
X1499Y3439
X2639Y4059
X2569Y4769
X3359Y4179
X3579Y4329
X3819Y4199
X4059Y4319
X4459Y4249
X4659Y4419
X4619Y4679
X4619Y4959
X4779Y5199
X4759Y5499
X4199Y5619
X3959Y5499
X3439Y5559
X3439Y5279
X3419Y4819
X3159Y6139
X3339Y6419
X3559Y6259
X2829Y6189
X1979Y5799
X1899Y6079
X4459Y7439
X5379Y6687
X5279Y6159
X4999Y6039
X5479Y5299
X5759Y5579
X5939Y6159
X6037Y6499
X6319Y6359
X6559Y6579
X5529Y7297
X2501Y10912
X2212Y11268
X2407Y11463
X2642Y11668
X3079Y11505
X3558Y11079
X3779Y11625
X4121Y11060
X4437Y11060
X4679Y11445
X4999Y11405
X5359Y10665
X5842Y10685
X5879Y11385
X6599Y10305
X5379Y9925
X4959Y10205
X4399Y10296
X3719Y10005
X1909Y11858
X1599Y12105
X1499Y11525
X2639Y12145
X2569Y12855
X3359Y12265
X3579Y12415
X3819Y12285
X4059Y12405
X4459Y12335
X4659Y12505
X4619Y12765
X4619Y13045
X4779Y13285
X4759Y13585
X4199Y13705
X3959Y13585
X3439Y13645
X3439Y13365
X3419Y12905
X3159Y14225
X3339Y14505
X3559Y14345
X2829Y14275
X1979Y13885
X1899Y14165
X4459Y15525
X5379Y14773
X5279Y14245
X4999Y14125
X5479Y13385
X5759Y13665
X5939Y14245
X6037Y14585
X6319Y14445
X6559Y14665
X5529Y15383
X2501Y18998
X2212Y19354
X2407Y19549
X2642Y19754
X3079Y19591
X3558Y19165
X3779Y19711
X4121Y19146
X4437Y19146
X4679Y19531
X4999Y19491
X5359Y18751
X5842Y18771
X5879Y19471
X6599Y18391
X5379Y18011
X4959Y18291
X4399Y18382
X3719Y18091
X1909Y19944
X1599Y20191
X1499Y19611
X2639Y20231
X2569Y20941
X3359Y20351
X3579Y20501
X3819Y20371
X4059Y20491
X4459Y20421
X4659Y20591
X4619Y20851
X4619Y21131
X4779Y21371
X4759Y21671
X4199Y21791
X3959Y21671
X3439Y21731
X3439Y21451
X3419Y20991
X3159Y22311
X3339Y22591
X3559Y22431
X2829Y22361
X1979Y21971
X1899Y22251
X4459Y23611
X5379Y22859
X5279Y22331
X4999Y22211
X5479Y21471
X5759Y21751
X5939Y22331
X6037Y22671
X6319Y22531
X6559Y22751
X5529Y23469
X2501Y27084
X2212Y27440
X2407Y27635
X2642Y27840
X3079Y27677
X3558Y27251
X3779Y27797
X4121Y27232
X4437Y27232
X4679Y27617
X4999Y27577
X5359Y26837
X5842Y26857
X5879Y27557
X6599Y26477
X5379Y26097
X4959Y26377
X4399Y26468
X3719Y26177
X1909Y28030
X1599Y28277
X1499Y27697
X2639Y28317
X2569Y29027
X3359Y28437
X3579Y28587
X3819Y28457
X4059Y28577
X4459Y28507
X4659Y28677
X4619Y28937
X4619Y29217
X4779Y29457
X4759Y29757
X4199Y29877
X3959Y29757
X3439Y29817
X3439Y29537
X3419Y29077
X3159Y30397
X3339Y30677
X3559Y30517
X2829Y30447
X1979Y30057
X1899Y30337
X4459Y31697
X5379Y30945
X5279Y30417
X4999Y30297
X5479Y29557
X5759Y29837
X5939Y30417
X6037Y30757
X6319Y30617
X6559Y30837
X5529Y31555
X2501Y35170
X2212Y35526
X2407Y35721
X2642Y35926
X3079Y35763
X3558Y35337
X3779Y35883
X4121Y35318
X4437Y35318
X4679Y35703
X4999Y35663
X5359Y34923
X5842Y34943
X5879Y35643
X6599Y34563
X5379Y34183
X4959Y34463
X4399Y34554
X3719Y34263
X1909Y36116
X1599Y36363
X1499Y35783
X2639Y36403
X2569Y37113
X3359Y36523
X3579Y36673
X3819Y36543
X4059Y36663
X4459Y36593
X4659Y36763
X4619Y37023
X4619Y37303
X4779Y37543
X4759Y37843
X4199Y37963
X3959Y37843
X3439Y37903
X3439Y37623
X3419Y37163
X3159Y38483
X3339Y38763
X3559Y38603
X2829Y38533
X1979Y38143
X1899Y38423
X4459Y39783
X5379Y39031
X5279Y38503
X4999Y38383
X5479Y37643
X5759Y37923
X5939Y38503
X6037Y38843
X6319Y38703
X6559Y38923
X5529Y39641
X10587Y2826
X10298Y3182
X10493Y3377
X10728Y3582
X11165Y3419
X11644Y2993
X11865Y3539
X12207Y2974
X12523Y2974
X12765Y3359
X13085Y3319
X13445Y2579
X13928Y2599
X13965Y3299
X14685Y2219
X13465Y1839
X13045Y2119
X12485Y2210
X11805Y1919
X9995Y3772
X9685Y4019
X9585Y3439
X10725Y4059
X10655Y4769
X11445Y4179
X11665Y4329
X11905Y4199
X12145Y4319
X12545Y4249
X12745Y4419
X12705Y4679
X12705Y4959
X12865Y5199
X12845Y5499
X12285Y5619
X12045Y5499
X11525Y5559
X11525Y5279
X11505Y4819
X11245Y6139
X11425Y6419
X11645Y6259
X10915Y6189
X10065Y5799
X9985Y6079
X12545Y7439
X13465Y6687
X13365Y6159
X13085Y6039
X13565Y5299
X13845Y5579
X14025Y6159
X14123Y6499
X14405Y6359
X14645Y6579
X13615Y7297
X10587Y10912
X10298Y11268
X10493Y11463
X10728Y11668
X11165Y11505
X11644Y11079
X11865Y11625
X12207Y11060
X12523Y11060
X12765Y11445
X13085Y11405
X13445Y10665
X13928Y10685
X13965Y11385
X14685Y10305
X13465Y9925
X13045Y10205
X12485Y10296
X11805Y10005
X9995Y11858
X9685Y12105
X9585Y11525
X10725Y12145
X10655Y12855
X11445Y12265
X11665Y12415
X11905Y12285
X12145Y12405
X12545Y12335
X12745Y12505
X12705Y12765
X12705Y13045
X12865Y13285
X12845Y13585
X12285Y13705
X12045Y13585
X11525Y13645
X11525Y13365
X11505Y12905
X11245Y14225
X11425Y14505
X11645Y14345
X10915Y14275
X10065Y13885
X9985Y14165
X12545Y15525
X13465Y14773
X13365Y14245
X13085Y14125
X13565Y13385
X13845Y13665
X14025Y14245
X14123Y14585
X14405Y14445
X14645Y14665
X13615Y15383
X10587Y18998
X10298Y19354
X10493Y19549
X10728Y19754
X11165Y19591
X11644Y19165
X11865Y19711
X12207Y19146
X12523Y19146
X12765Y19531
X13085Y19491
X13445Y18751
X13928Y18771
X13965Y19471
X14685Y18391
X13465Y18011
X13045Y18291
X12485Y18382
X11805Y18091
X9995Y19944
X9685Y20191
X9585Y19611
X10725Y20231
X10655Y20941
X11445Y20351
X11665Y20501
X11905Y20371
X12145Y20491
X12545Y20421
X12745Y20591
X12705Y20851
X12705Y21131
X12865Y21371
X12845Y21671
X12285Y21791
X12045Y21671
X11525Y21731
X11525Y21451
X11505Y20991
X11245Y22311
X11425Y22591
X11645Y22431
X10915Y22361
X10065Y21971
X9985Y22251
X12545Y23611
X13465Y22859
X13365Y22331
X13085Y22211
X13565Y21471
X13845Y21751
X14025Y22331
X14123Y22671
X14405Y22531
X14645Y22751
X13615Y23469
X10587Y27084
X10298Y27440
X10493Y27635
X10728Y27840
X11165Y27677
X11644Y27251
X11865Y27797
X12207Y27232
X12523Y27232
X12765Y27617
X13085Y27577
X13445Y26837
X13928Y26857
X13965Y27557
X14685Y26477
X13465Y26097
X13045Y26377
X12485Y26468
X11805Y26177
X9995Y28030
X9685Y28277
X9585Y27697
X10725Y28317
X10655Y29027
X11445Y28437
X11665Y28587
X11905Y28457
X12145Y28577
X12545Y28507
X12745Y28677
X12705Y28937
X12705Y29217
X12865Y29457
X12845Y29757
X12285Y29877
X12045Y29757
X11525Y29817
X11525Y29537
X11505Y29077
X11245Y30397
X11425Y30677
X11645Y30517
X10915Y30447
X10065Y30057
X9985Y30337
X12545Y31697
X13465Y30945
X13365Y30417
X13085Y30297
X13565Y29557
X13845Y29837
X14025Y30417
X14123Y30757
X14405Y30617
X14645Y30837
X13615Y31555
X10587Y35170
X10298Y35526
X10493Y35721
X10728Y35926
X11165Y35763
X11644Y35337
X11865Y35883
X12207Y35318
X12523Y35318
X12765Y35703
X13085Y35663
X13445Y34923
X13928Y34943
X13965Y35643
X14685Y34563
X13465Y34183
X13045Y34463
X12485Y34554
X11805Y34263
X9995Y36116
X9685Y36363
X9585Y35783
X10725Y36403
X10655Y37113
X11445Y36523
X11665Y36673
X11905Y36543
X12145Y36663
X12545Y36593
X12745Y36763
X12705Y37023
X12705Y37303
X12865Y37543
X12845Y37843
X12285Y37963
X12045Y37843
X11525Y37903
X11525Y37623
X11505Y37163
X11245Y38483
X11425Y38763
X11645Y38603
X10915Y38533
X10065Y38143
X9985Y38423
X12545Y39783
X13465Y39031
X13365Y38503
X13085Y38383
X13565Y37643
X13845Y37923
X14025Y38503
X14123Y38843
X14405Y38703
X14645Y38923
X13615Y39641
X18673Y2826
X18384Y3182
X18579Y3377
X18814Y3582
X19251Y3419
X19730Y2993
X19951Y3539
X20293Y2974
X20609Y2974
X20851Y3359
X21171Y3319
X21531Y2579
X22014Y2599
X22051Y3299
X22771Y2219
X21551Y1839
X21131Y2119
X20571Y2210
X19891Y1919
X18081Y3772
X17771Y4019
X17671Y3439
X18811Y4059
X18741Y4769
X19531Y4179
X19751Y4329
X19991Y4199
X20231Y4319
X20631Y4249
X20831Y4419
X20791Y4679
X20791Y4959
X20951Y5199
X20931Y5499
X20371Y5619
X20131Y5499
X19611Y5559
X19611Y5279
X19591Y4819
X19331Y6139
X19511Y6419
X19731Y6259
X19001Y6189
X18151Y5799
X18071Y6079
X20631Y7439
X21551Y6687
X21451Y6159
X21171Y6039
X21651Y5299
X21931Y5579
X22111Y6159
X22209Y6499
X22491Y6359
X22731Y6579
X21701Y7297
X18673Y10912
X18384Y11268
X18579Y11463
X18814Y11668
X19251Y11505
X19730Y11079
X19951Y11625
X20293Y11060
X20609Y11060
X20851Y11445
X21171Y11405
X21531Y10665
X22014Y10685
X22051Y11385
X22771Y10305
X21551Y9925
X21131Y10205
X20571Y10296
X19891Y10005
X18081Y11858
X17771Y12105
X17671Y11525
X18811Y12145
X18741Y12855
X19531Y12265
X19751Y12415
X19991Y12285
X20231Y12405
X20631Y12335
X20831Y12505
X20791Y12765
X20791Y13045
X20951Y13285
X20931Y13585
X20371Y13705
X20131Y13585
X19611Y13645
X19611Y13365
X19591Y12905
X19331Y14225
X19511Y14505
X19731Y14345
X19001Y14275
X18151Y13885
X18071Y14165
X20631Y15525
X21551Y14773
X21451Y14245
X21171Y14125
X21651Y13385
X21931Y13665
X22111Y14245
X22209Y14585
X22491Y14445
X22731Y14665
X21701Y15383
X18673Y18998
X18384Y19354
X18579Y19549
X18814Y19754
X19251Y19591
X19730Y19165
X19951Y19711
X20293Y19146
X20609Y19146
X20851Y19531
X21171Y19491
X21531Y18751
X22014Y18771
X22051Y19471
X22771Y18391
X21551Y18011
X21131Y18291
X20571Y18382
X19891Y18091
X18081Y19944
X17771Y20191
X17671Y19611
X18811Y20231
X18741Y20941
X19531Y20351
X19751Y20501
X19991Y20371
X20231Y20491
X20631Y20421
X20831Y20591
X20791Y20851
X20791Y21131
X20951Y21371
X20931Y21671
X20371Y21791
X20131Y21671
X19611Y21731
X19611Y21451
X19591Y20991
X19331Y22311
X19511Y22591
X19731Y22431
X19001Y22361
X18151Y21971
X18071Y22251
X20631Y23611
X21551Y22859
X21451Y22331
X21171Y22211
X21651Y21471
X21931Y21751
X22111Y22331
X22209Y22671
X22491Y22531
X22731Y22751
X21701Y23469
X18673Y27084
X18384Y27440
X18579Y27635
X18814Y27840
X19251Y27677
X19730Y27251
X19951Y27797
X20293Y27232
X20609Y27232
X20851Y27617
X21171Y27577
X21531Y26837
X22014Y26857
X22051Y27557
X22771Y26477
X21551Y26097
X21131Y26377
X20571Y26468
X19891Y26177
X18081Y28030
X17771Y28277
X17671Y27697
X18811Y28317
X18741Y29027
X19531Y28437
X19751Y28587
X19991Y28457
X20231Y28577
X20631Y28507
X20831Y28677
X20791Y28937
X20791Y29217
X20951Y29457
X20931Y29757
X20371Y29877
X20131Y29757
X19611Y29817
X19611Y29537
X19591Y29077
X19331Y30397
X19511Y30677
X19731Y30517
X19001Y30447
X18151Y30057
X18071Y30337
X20631Y31697
X21551Y30945
X21451Y30417
X21171Y30297
X21651Y29557
X21931Y29837
X22111Y30417
X22209Y30757
X22491Y30617
X22731Y30837
X21701Y31555
X18673Y35170
X18384Y35526
X18579Y35721
X18814Y35926
X19251Y35763
X19730Y35337
X19951Y35883
X20293Y35318
X20609Y35318
X20851Y35703
X21171Y35663
X21531Y34923
X22014Y34943
X22051Y35643
X22771Y34563
X21551Y34183
X21131Y34463
X20571Y34554
X19891Y34263
X18081Y36116
X17771Y36363
X17671Y35783
X18811Y36403
X18741Y37113
X19531Y36523
X19751Y36673
X19991Y36543
X20231Y36663
X20631Y36593
X20831Y36763
X20791Y37023
X20791Y37303
X20951Y37543
X20931Y37843
X20371Y37963
X20131Y37843
X19611Y37903
X19611Y37623
X19591Y37163
X19331Y38483
X19511Y38763
X19731Y38603
X19001Y38533
X18151Y38143
X18071Y38423
X20631Y39783
X21551Y39031
X21451Y38503
X21171Y38383
X21651Y37643
X21931Y37923
X22111Y38503
X22209Y38843
X22491Y38703
X22731Y38923
X21701Y39641
X26759Y2826
X26470Y3182
X26665Y3377
X26900Y3582
X27337Y3419
X27816Y2993
X28037Y3539
X28379Y2974
X28695Y2974
X28937Y3359
X29257Y3319
X29617Y2579
X30100Y2599
X30137Y3299
X30857Y2219
X29637Y1839
X29217Y2119
X28657Y2210
X27977Y1919
X26167Y3772
X25857Y4019
X25757Y3439
X26897Y4059
X26827Y4769
X27617Y4179
X27837Y4329
X28077Y4199
X28317Y4319
X28717Y4249
X28917Y4419
X28877Y4679
X28877Y4959
X29037Y5199
X29017Y5499
X28457Y5619
X28217Y5499
X27697Y5559
X27697Y5279
X27677Y4819
X27417Y6139
X27597Y6419
X27817Y6259
X27087Y6189
X26237Y5799
X26157Y6079
X28717Y7439
X29637Y6687
X29537Y6159
X29257Y6039
X29737Y5299
X30017Y5579
X30197Y6159
X30295Y6499
X30577Y6359
X30817Y6579
X29787Y7297
X26759Y10912
X26470Y11268
X26665Y11463
X26900Y11668
X27337Y11505
X27816Y11079
X28037Y11625
X28379Y11060
X28695Y11060
X28937Y11445
X29257Y11405
X29617Y10665
X30100Y10685
X30137Y11385
X30857Y10305
X29637Y9925
X29217Y10205
X28657Y10296
X27977Y10005
X26167Y11858
X25857Y12105
X25757Y11525
X26897Y12145
X26827Y12855
X27617Y12265
X27837Y12415
X28077Y12285
X28317Y12405
X28717Y12335
X28917Y12505
X28877Y12765
X28877Y13045
X29037Y13285
X29017Y13585
X28457Y13705
X28217Y13585
X27697Y13645
X27697Y13365
X27677Y12905
X27417Y14225
X27597Y14505
X27817Y14345
X27087Y14275
X26237Y13885
X26157Y14165
X28717Y15525
X29637Y14773
X29537Y14245
X29257Y14125
X29737Y13385
X30017Y13665
X30197Y14245
X30295Y14585
X30577Y14445
X30817Y14665
X29787Y15383
X26759Y18998
X26470Y19354
X26665Y19549
X26900Y19754
X27337Y19591
X27816Y19165
X28037Y19711
X28379Y19146
X28695Y19146
X28937Y19531
X29257Y19491
X29617Y18751
X30100Y18771
X30137Y19471
X30857Y18391
X29637Y18011
X29217Y18291
X28657Y18382
X27977Y18091
X26167Y19944
X25857Y20191
X25757Y19611
X26897Y20231
X26827Y20941
X27617Y20351
X27837Y20501
X28077Y20371
X28317Y20491
X28717Y20421
X28917Y20591
X28877Y20851
X28877Y21131
X29037Y21371
X29017Y21671
X28457Y21791
X28217Y21671
X27697Y21731
X27697Y21451
X27677Y20991
X27417Y22311
X27597Y22591
X27817Y22431
X27087Y22361
X26237Y21971
X26157Y22251
X28717Y23611
X29637Y22859
X29537Y22331
X29257Y22211
X29737Y21471
X30017Y21751
X30197Y22331
X30295Y22671
X30577Y22531
X30817Y22751
X29787Y23469
X26759Y27084
X26470Y27440
X26665Y27635
X26900Y27840
X27337Y27677
X27816Y27251
X28037Y27797
X28379Y27232
X28695Y27232
X28937Y27617
X29257Y27577
X29617Y26837
X30100Y26857
X30137Y27557
X30857Y26477
X29637Y26097
X29217Y26377
X28657Y26468
X27977Y26177
X26167Y28030
X25857Y28277
X25757Y27697
X26897Y28317
X26827Y29027
X27617Y28437
X27837Y28587
X28077Y28457
X28317Y28577
X28717Y28507
X28917Y28677
X28877Y28937
X28877Y29217
X29037Y29457
X29017Y29757
X28457Y29877
X28217Y29757
X27697Y29817
X27697Y29537
X27677Y29077
X27417Y30397
X27597Y30677
X27817Y30517
X27087Y30447
X26237Y30057
X26157Y30337
X28717Y31697
X29637Y30945
X29537Y30417
X29257Y30297
X29737Y29557
X30017Y29837
X30197Y30417
X30295Y30757
X30577Y30617
X30817Y30837
X29787Y31555
X26759Y35170
X26470Y35526
X26665Y35721
X26900Y35926
X27337Y35763
X27816Y35337
X28037Y35883
X28379Y35318
X28695Y35318
X28937Y35703
X29257Y35663
X29617Y34923
X30100Y34943
X30137Y35643
X30857Y34563
X29637Y34183
X29217Y34463
X28657Y34554
X27977Y34263
X26167Y36116
X25857Y36363
X25757Y35783
X26897Y36403
X26827Y37113
X27617Y36523
X27837Y36673
X28077Y36543
X28317Y36663
X28717Y36593
X28917Y36763
X28877Y37023
X28877Y37303
X29037Y37543
X29017Y37843
X28457Y37963
X28217Y37843
X27697Y37903
X27697Y37623
X27677Y37163
X27417Y38483
X27597Y38763
X27817Y38603
X27087Y38533
X26237Y38143
X26157Y38423
X28717Y39783
X29637Y39031
X29537Y38503
X29257Y38383
X29737Y37643
X30017Y37923
X30197Y38503
X30295Y38843
X30577Y38703
X30817Y38923
X29787Y39641
X34845Y2826
X34556Y3182
X34751Y3377
X34986Y3582
X35423Y3419
X35902Y2993
X36123Y3539
X36465Y2974
X36781Y2974
X37023Y3359
X37343Y3319
X37703Y2579
X38186Y2599
X38223Y3299
X38943Y2219
X37723Y1839
X37303Y2119
X36743Y2210
X36063Y1919
X34253Y3772
X33943Y4019
X33843Y3439
X34983Y4059
X34913Y4769
X35703Y4179
X35923Y4329
X36163Y4199
X36403Y4319
X36803Y4249
X37003Y4419
X36963Y4679
X36963Y4959
X37123Y5199
X37103Y5499
X36543Y5619
X36303Y5499
X35783Y5559
X35783Y5279
X35763Y4819
X35503Y6139
X35683Y6419
X35903Y6259
X35173Y6189
X34323Y5799
X34243Y6079
X36803Y7439
X37723Y6687
X37623Y6159
X37343Y6039
X37823Y5299
X38103Y5579
X38283Y6159
X38381Y6499
X38663Y6359
X38903Y6579
X37873Y7297
X34845Y10912
X34556Y11268
X34751Y11463
X34986Y11668
X35423Y11505
X35902Y11079
X36123Y11625
X36465Y11060
X36781Y11060
X37023Y11445
X37343Y11405
X37703Y10665
X38186Y10685
X38223Y11385
X38943Y10305
X37723Y9925
X37303Y10205
X36743Y10296
X36063Y10005
X34253Y11858
X33943Y12105
X33843Y11525
X34983Y12145
X34913Y12855
X35703Y12265
X35923Y12415
X36163Y12285
X36403Y12405
X36803Y12335
X37003Y12505
X36963Y12765
X36963Y13045
X37123Y13285
X37103Y13585
X36543Y13705
X36303Y13585
X35783Y13645
X35783Y13365
X35763Y12905
X35503Y14225
X35683Y14505
X35903Y14345
X35173Y14275
X34323Y13885
X34243Y14165
X36803Y15525
X37723Y14773
X37623Y14245
X37343Y14125
X37823Y13385
X38103Y13665
X38283Y14245
X38381Y14585
X38663Y14445
X38903Y14665
X37873Y15383
X34845Y18998
X34556Y19354
X34751Y19549
X34986Y19754
X35423Y19591
X35902Y19165
X36123Y19711
X36465Y19146
X36781Y19146
X37023Y19531
X37343Y19491
X37703Y18751
X38186Y18771
X38223Y19471
X38943Y18391
X37723Y18011
X37303Y18291
X36743Y18382
X36063Y18091
X34253Y19944
X33943Y20191
X33843Y19611
X34983Y20231
X34913Y20941
X35703Y20351
X35923Y20501
X36163Y20371
X36403Y20491
X36803Y20421
X37003Y20591
X36963Y20851
X36963Y21131
X37123Y21371
X37103Y21671
X36543Y21791
X36303Y21671
X35783Y21731
X35783Y21451
X35763Y20991
X35503Y22311
X35683Y22591
X35903Y22431
X35173Y22361
X34323Y21971
X34243Y22251
X36803Y23611
X37723Y22859
X37623Y22331
X37343Y22211
X37823Y21471
X38103Y21751
X38283Y22331
X38381Y22671
X38663Y22531
X38903Y22751
X37873Y23469
X34845Y27084
X34556Y27440
X34751Y27635
X34986Y27840
X35423Y27677
X35902Y27251
X36123Y27797
X36465Y27232
X36781Y27232
X37023Y27617
X37343Y27577
X37703Y26837
X38186Y26857
X38223Y27557
X38943Y26477
X37723Y26097
X37303Y26377
X36743Y26468
X36063Y26177
X34253Y28030
X33943Y28277
X33843Y27697
X34983Y28317
X34913Y29027
X35703Y28437
X35923Y28587
X36163Y28457
X36403Y28577
X36803Y28507
X37003Y28677
X36963Y28937
X36963Y29217
X37123Y29457
X37103Y29757
X36543Y29877
X36303Y29757
X35783Y29817
X35783Y29537
X35763Y29077
X35503Y30397
X35683Y30677
X35903Y30517
X35173Y30447
X34323Y30057
X34243Y30337
X36803Y31697
X37723Y30945
X37623Y30417
X37343Y30297
X37823Y29557
X38103Y29837
X38283Y30417
X38381Y30757
X38663Y30617
X38903Y30837
X37873Y31555
X34845Y35170
X34556Y35526
X34751Y35721
X34986Y35926
X35423Y35763
X35902Y35337
X36123Y35883
X36465Y35318
X36781Y35318
X37023Y35703
X37343Y35663
X37703Y34923
X38186Y34943
X38223Y35643
X38943Y34563
X37723Y34183
X37303Y34463
X36743Y34554
X36063Y34263
X34253Y36116
X33943Y36363
X33843Y35783
X34983Y36403
X34913Y37113
X35703Y36523
X35923Y36673
X36163Y36543
X36403Y36663
X36803Y36593
X37003Y36763
X36963Y37023
X36963Y37303
X37123Y37543
X37103Y37843
X36543Y37963
X36303Y37843
X35783Y37903
X35783Y37623
X35763Y37163
X35503Y38483
X35683Y38763
X35903Y38603
X35173Y38533
X34323Y38143
X34243Y38423
X36803Y39783
X37723Y39031
X37623Y38503
X37343Y38383
X37823Y37643
X38103Y37923
X38283Y38503
X38381Y38843
X38663Y38703
X38903Y38923
X37873Y39641
X42931Y2826
X42642Y3182
X42837Y3377
X43072Y3582
X43509Y3419
X43988Y2993
X44209Y3539
X44551Y2974
X44867Y2974
X45109Y3359
X45429Y3319
X45789Y2579
X46272Y2599
X46309Y3299
X47029Y2219
X45809Y1839
X45389Y2119
X44829Y2210
X44149Y1919
X42339Y3772
X42029Y4019
X41929Y3439
X43069Y4059
X42999Y4769
X43789Y4179
X44009Y4329
X44249Y4199
X44489Y4319
X44889Y4249
X45089Y4419
X45049Y4679
X45049Y4959
X45209Y5199
X45189Y5499
X44629Y5619
X44389Y5499
X43869Y5559
X43869Y5279
X43849Y4819
X43589Y6139
X43769Y6419
X43989Y6259
X43259Y6189
X42409Y5799
X42329Y6079
X44889Y7439
X45809Y6687
X45709Y6159
X45429Y6039
X45909Y5299
X46189Y5579
X46369Y6159
X46467Y6499
X46749Y6359
X46989Y6579
X45959Y7297
X42931Y10912
X42642Y11268
X42837Y11463
X43072Y11668
X43509Y11505
X43988Y11079
X44209Y11625
X44551Y11060
X44867Y11060
X45109Y11445
X45429Y11405
X45789Y10665
X46272Y10685
X46309Y11385
X47029Y10305
X45809Y9925
X45389Y10205
X44829Y10296
X44149Y10005
X42339Y11858
X42029Y12105
X41929Y11525
X43069Y12145
X42999Y12855
X43789Y12265
X44009Y12415
X44249Y12285
X44489Y12405
X44889Y12335
X45089Y12505
X45049Y12765
X45049Y13045
X45209Y13285
X45189Y13585
X44629Y13705
X44389Y13585
X43869Y13645
X43869Y13365
X43849Y12905
X43589Y14225
X43769Y14505
X43989Y14345
X43259Y14275
X42409Y13885
X42329Y14165
X44889Y15525
X45809Y14773
X45709Y14245
X45429Y14125
X45909Y13385
X46189Y13665
X46369Y14245
X46467Y14585
X46749Y14445
X46989Y14665
X45959Y15383
X42931Y18998
X42642Y19354
X42837Y19549
X43072Y19754
X43509Y19591
X43988Y19165
X44209Y19711
X44551Y19146
X44867Y19146
X45109Y19531
X45429Y19491
X45789Y18751
X46272Y18771
X46309Y19471
X47029Y18391
X45809Y18011
X45389Y18291
X44829Y18382
X44149Y18091
X42339Y19944
X42029Y20191
X41929Y19611
X43069Y20231
X42999Y20941
X43789Y20351
X44009Y20501
X44249Y20371
X44489Y20491
X44889Y20421
X45089Y20591
X45049Y20851
X45049Y21131
X45209Y21371
X45189Y21671
X44629Y21791
X44389Y21671
X43869Y21731
X43869Y21451
X43849Y20991
X43589Y22311
X43769Y22591
X43989Y22431
X43259Y22361
X42409Y21971
X42329Y22251
X44889Y23611
X45809Y22859
X45709Y22331
X45429Y22211
X45909Y21471
X46189Y21751
X46369Y22331
X46467Y22671
X46749Y22531
X46989Y22751
X45959Y23469
X42931Y27084
X42642Y27440
X42837Y27635
X43072Y27840
X43509Y27677
X43988Y27251
X44209Y27797
X44551Y27232
X44867Y27232
X45109Y27617
X45429Y27577
X45789Y26837
X46272Y26857
X46309Y27557
X47029Y26477
X45809Y26097
X45389Y26377
X44829Y26468
X44149Y26177
X42339Y28030
X42029Y28277
X41929Y27697
X43069Y28317
X42999Y29027
X43789Y28437
X44009Y28587
X44249Y28457
X44489Y28577
X44889Y28507
X45089Y28677
X45049Y28937
X45049Y29217
X45209Y29457
X45189Y29757
X44629Y29877
X44389Y29757
X43869Y29817
X43869Y29537
X43849Y29077
X43589Y30397
X43769Y30677
X43989Y30517
X43259Y30447
X42409Y30057
X42329Y30337
X44889Y31697
X45809Y30945
X45709Y30417
X45429Y30297
X45909Y29557
X46189Y29837
X46369Y30417
X46467Y30757
X46749Y30617
X46989Y30837
X45959Y31555
X42931Y35170
X42642Y35526
X42837Y35721
X43072Y35926
X43509Y35763
X43988Y35337
X44209Y35883
X44551Y35318
X44867Y35318
X45109Y35703
X45429Y35663
X45789Y34923
X46272Y34943
X46309Y35643
X47029Y34563
X45809Y34183
X45389Y34463
X44829Y34554
X44149Y34263
X42339Y36116
X42029Y36363
X41929Y35783
X43069Y36403
X42999Y37113
X43789Y36523
X44009Y36673
X44249Y36543
X44489Y36663
X44889Y36593
X45089Y36763
X45049Y37023
X45049Y37303
X45209Y37543
X45189Y37843
X44629Y37963
X44389Y37843
X43869Y37903
X43869Y37623
X43849Y37163
X43589Y38483
X43769Y38763
X43989Y38603
X43259Y38533
X42409Y38143
X42329Y38423
X44889Y39783
X45809Y39031
X45709Y38503
X45429Y38383
X45909Y37643
X46189Y37923
X46369Y38503
X46467Y38843
X46749Y38703
X46989Y38923
X45959Y39641
X51017Y2826
X50728Y3182
X50923Y3377
X51158Y3582
X51595Y3419
X52074Y2993
X52295Y3539
X52637Y2974
X52953Y2974
X53195Y3359
X53515Y3319
X53875Y2579
X54358Y2599
X54395Y3299
X55115Y2219
X53895Y1839
X53475Y2119
X52915Y2210
X52235Y1919
X50425Y3772
X50115Y4019
X50015Y3439
X51155Y4059
X51085Y4769
X51875Y4179
X52095Y4329
X52335Y4199
X52575Y4319
X52975Y4249
X53175Y4419
X53135Y4679
X53135Y4959
X53295Y5199
X53275Y5499
X52715Y5619
X52475Y5499
X51955Y5559
X51955Y5279
X51935Y4819
X51675Y6139
X51855Y6419
X52075Y6259
X51345Y6189
X50495Y5799
X50415Y6079
X52975Y7439
X53895Y6687
X53795Y6159
X53515Y6039
X53995Y5299
X54275Y5579
X54455Y6159
X54553Y6499
X54835Y6359
X55075Y6579
X54045Y7297
X51017Y10912
X50728Y11268
X50923Y11463
X51158Y11668
X51595Y11505
X52074Y11079
X52295Y11625
X52637Y11060
X52953Y11060
X53195Y11445
X53515Y11405
X53875Y10665
X54358Y10685
X54395Y11385
X55115Y10305
X53895Y9925
X53475Y10205
X52915Y10296
X52235Y10005
X50425Y11858
X50115Y12105
X50015Y11525
X51155Y12145
X51085Y12855
X51875Y12265
X52095Y12415
X52335Y12285
X52575Y12405
X52975Y12335
X53175Y12505
X53135Y12765
X53135Y13045
X53295Y13285
X53275Y13585
X52715Y13705
X52475Y13585
X51955Y13645
X51955Y13365
X51935Y12905
X51675Y14225
X51855Y14505
X52075Y14345
X51345Y14275
X50495Y13885
X50415Y14165
X52975Y15525
X53895Y14773
X53795Y14245
X53515Y14125
X53995Y13385
X54275Y13665
X54455Y14245
X54553Y14585
X54835Y14445
X55075Y14665
X54045Y15383
X51017Y18998
X50728Y19354
X50923Y19549
X51158Y19754
X51595Y19591
X52074Y19165
X52295Y19711
X52637Y19146
X52953Y19146
X53195Y19531
X53515Y19491
X53875Y18751
X54358Y18771
X54395Y19471
X55115Y18391
X53895Y18011
X53475Y18291
X52915Y18382
X52235Y18091
X50425Y19944
X50115Y20191
X50015Y19611
X51155Y20231
X51085Y20941
X51875Y20351
X52095Y20501
X52335Y20371
X52575Y20491
X52975Y20421
X53175Y20591
X53135Y20851
X53135Y21131
X53295Y21371
X53275Y21671
X52715Y21791
X52475Y21671
X51955Y21731
X51955Y21451
X51935Y20991
X51675Y22311
X51855Y22591
X52075Y22431
X51345Y22361
X50495Y21971
X50415Y22251
X52975Y23611
X53895Y22859
X53795Y22331
X53515Y22211
X53995Y21471
X54275Y21751
X54455Y22331
X54553Y22671
X54835Y22531
X55075Y22751
X54045Y23469
X51017Y27084
X50728Y27440
X50923Y27635
X51158Y27840
X51595Y27677
X52074Y27251
X52295Y27797
X52637Y27232
X52953Y27232
X53195Y27617
X53515Y27577
X53875Y26837
X54358Y26857
X54395Y27557
X55115Y26477
X53895Y26097
X53475Y26377
X52915Y26468
X52235Y26177
X50425Y28030
X50115Y28277
X50015Y27697
X51155Y28317
X51085Y29027
X51875Y28437
X52095Y28587
X52335Y28457
X52575Y28577
X52975Y28507
X53175Y28677
X53135Y28937
X53135Y29217
X53295Y29457
X53275Y29757
X52715Y29877
X52475Y29757
X51955Y29817
X51955Y29537
X51935Y29077
X51675Y30397
X51855Y30677
X52075Y30517
X51345Y30447
X50495Y30057
X50415Y30337
X52975Y31697
X53895Y30945
X53795Y30417
X53515Y30297
X53995Y29557
X54275Y29837
X54455Y30417
X54553Y30757
X54835Y30617
X55075Y30837
X54045Y31555
X51017Y35170
X50728Y35526
X50923Y35721
X51158Y35926
X51595Y35763
X52074Y35337
X52295Y35883
X52637Y35318
X52953Y35318
X53195Y35703
X53515Y35663
X53875Y34923
X54358Y34943
X54395Y35643
X55115Y34563
X53895Y34183
X53475Y34463
X52915Y34554
X52235Y34263
X50425Y36116
X50115Y36363
X50015Y35783
X51155Y36403
X51085Y37113
X51875Y36523
X52095Y36673
X52335Y36543
X52575Y36663
X52975Y36593
X53175Y36763
X53135Y37023
X53135Y37303
X53295Y37543
X53275Y37843
X52715Y37963
X52475Y37843
X51955Y37903
X51955Y37623
X51935Y37163
X51675Y38483
X51855Y38763
X52075Y38603
X51345Y38533
X50495Y38143
X50415Y38423
X52975Y39783
X53895Y39031
X53795Y38503
X53515Y38383
X53995Y37643
X54275Y37923
X54455Y38503
X54553Y38843
X54835Y38703
X55075Y38923
X54045Y39641
X59103Y2826
X58814Y3182
X59009Y3377
X59244Y3582
X59681Y3419
X60160Y2993
X60381Y3539
X60723Y2974
X61039Y2974
X61281Y3359
X61601Y3319
X61961Y2579
X62444Y2599
X62481Y3299
X63201Y2219
X61981Y1839
X61561Y2119
X61001Y2210
X60321Y1919
X58511Y3772
X58201Y4019
X58101Y3439
X59241Y4059
X59171Y4769
X59961Y4179
X60181Y4329
X60421Y4199
X60661Y4319
X61061Y4249
X61261Y4419
X61221Y4679
X61221Y4959
X61381Y5199
X61361Y5499
X60801Y5619
X60561Y5499
X60041Y5559
X60041Y5279
X60021Y4819
X59761Y6139
X59941Y6419
X60161Y6259
X59431Y6189
X58581Y5799
X58501Y6079
X61061Y7439
X61981Y6687
X61881Y6159
X61601Y6039
X62081Y5299
X62361Y5579
X62541Y6159
X62639Y6499
X62921Y6359
X63161Y6579
X62131Y7297
X59103Y10912
X58814Y11268
X59009Y11463
X59244Y11668
X59681Y11505
X60160Y11079
X60381Y11625
X60723Y11060
X61039Y11060
X61281Y11445
X61601Y11405
X61961Y10665
X62444Y10685
X62481Y11385
X63201Y10305
X61981Y9925
X61561Y10205
X61001Y10296
X60321Y10005
X58511Y11858
X58201Y12105
X58101Y11525
X59241Y12145
X59171Y12855
X59961Y12265
X60181Y12415
X60421Y12285
X60661Y12405
X61061Y12335
X61261Y12505
X61221Y12765
X61221Y13045
X61381Y13285
X61361Y13585
X60801Y13705
X60561Y13585
X60041Y13645
X60041Y13365
X60021Y12905
X59761Y14225
X59941Y14505
X60161Y14345
X59431Y14275
X58581Y13885
X58501Y14165
X61061Y15525
X61981Y14773
X61881Y14245
X61601Y14125
X62081Y13385
X62361Y13665
X62541Y14245
X62639Y14585
X62921Y14445
X63161Y14665
X62131Y15383
X59103Y18998
X58814Y19354
X59009Y19549
X59244Y19754
X59681Y19591
X60160Y19165
X60381Y19711
X60723Y19146
X61039Y19146
X61281Y19531
X61601Y19491
X61961Y18751
X62444Y18771
X62481Y19471
X63201Y18391
X61981Y18011
X61561Y18291
X61001Y18382
X60321Y18091
X58511Y19944
X58201Y20191
X58101Y19611
X59241Y20231
X59171Y20941
X59961Y20351
X60181Y20501
X60421Y20371
X60661Y20491
X61061Y20421
X61261Y20591
X61221Y20851
X61221Y21131
X61381Y21371
X61361Y21671
X60801Y21791
X60561Y21671
X60041Y21731
X60041Y21451
X60021Y20991
X59761Y22311
X59941Y22591
X60161Y22431
X59431Y22361
X58581Y21971
X58501Y22251
X61061Y23611
X61981Y22859
X61881Y22331
X61601Y22211
X62081Y21471
X62361Y21751
X62541Y22331
X62639Y22671
X62921Y22531
X63161Y22751
X62131Y23469
X59103Y27084
X58814Y27440
X59009Y27635
X59244Y27840
X59681Y27677
X60160Y27251
X60381Y27797
X60723Y27232
X61039Y27232
X61281Y27617
X61601Y27577
X61961Y26837
X62444Y26857
X62481Y27557
X63201Y26477
X61981Y26097
X61561Y26377
X61001Y26468
X60321Y26177
X58511Y28030
X58201Y28277
X58101Y27697
X59241Y28317
X59171Y29027
X59961Y28437
X60181Y28587
X60421Y28457
X60661Y28577
X61061Y28507
X61261Y28677
X61221Y28937
X61221Y29217
X61381Y29457
X61361Y29757
X60801Y29877
X60561Y29757
X60041Y29817
X60041Y29537
X60021Y29077
X59761Y30397
X59941Y30677
X60161Y30517
X59431Y30447
X58581Y30057
X58501Y30337
X61061Y31697
X61981Y30945
X61881Y30417
X61601Y30297
X62081Y29557
X62361Y29837
X62541Y30417
X62639Y30757
X62921Y30617
X63161Y30837
X62131Y31555
X59103Y35170
X58814Y35526
X59009Y35721
X59244Y35926
X59681Y35763
X60160Y35337
X60381Y35883
X60723Y35318
X61039Y35318
X61281Y35703
X61601Y35663
X61961Y34923
X62444Y34943
X62481Y35643
X63201Y34563
X61981Y34183
X61561Y34463
X61001Y34554
X60321Y34263
X58511Y36116
X58201Y36363
X58101Y35783
X59241Y36403
X59171Y37113
X59961Y36523
X60181Y36673
X60421Y36543
X60661Y36663
X61061Y36593
X61261Y36763
X61221Y37023
X61221Y37303
X61381Y37543
X61361Y37843
X60801Y37963
X60561Y37843
X60041Y37903
X60041Y37623
X60021Y37163
X59761Y38483
X59941Y38763
X60161Y38603
X59431Y38533
X58581Y38143
X58501Y38423
X61061Y39783
X61981Y39031
X61881Y38503
X61601Y38383
X62081Y37643
X62361Y37923
X62541Y38503
X62639Y38843
X62921Y38703
X63161Y38923
X62131Y39641
X67189Y2826
X66900Y3182
X67095Y3377
X67330Y3582
X67767Y3419
X68246Y2993
X68467Y3539
X68809Y2974
X69125Y2974
X69367Y3359
X69687Y3319
X70047Y2579
X70530Y2599
X70567Y3299
X71287Y2219
X70067Y1839
X69647Y2119
X69087Y2210
X68407Y1919
X66597Y3772
X66287Y4019
X66187Y3439
X67327Y4059
X67257Y4769
X68047Y4179
X68267Y4329
X68507Y4199
X68747Y4319
X69147Y4249
X69347Y4419
X69307Y4679
X69307Y4959
X69467Y5199
X69447Y5499
X68887Y5619
X68647Y5499
X68127Y5559
X68127Y5279
X68107Y4819
X67847Y6139
X68027Y6419
X68247Y6259
X67517Y6189
X66667Y5799
X66587Y6079
X69147Y7439
X70067Y6687
X69967Y6159
X69687Y6039
X70167Y5299
X70447Y5579
X70627Y6159
X70725Y6499
X71007Y6359
X71247Y6579
X70217Y7297
X67189Y10912
X66900Y11268
X67095Y11463
X67330Y11668
X67767Y11505
X68246Y11079
X68467Y11625
X68809Y11060
X69125Y11060
X69367Y11445
X69687Y11405
X70047Y10665
X70530Y10685
X70567Y11385
X71287Y10305
X70067Y9925
X69647Y10205
X69087Y10296
X68407Y10005
X66597Y11858
X66287Y12105
X66187Y11525
X67327Y12145
X67257Y12855
X68047Y12265
X68267Y12415
X68507Y12285
X68747Y12405
X69147Y12335
X69347Y12505
X69307Y12765
X69307Y13045
X69467Y13285
X69447Y13585
X68887Y13705
X68647Y13585
X68127Y13645
X68127Y13365
X68107Y12905
X67847Y14225
X68027Y14505
X68247Y14345
X67517Y14275
X66667Y13885
X66587Y14165
X69147Y15525
X70067Y14773
X69967Y14245
X69687Y14125
X70167Y13385
X70447Y13665
X70627Y14245
X70725Y14585
X71007Y14445
X71247Y14665
X70217Y15383
X67189Y18998
X66900Y19354
X67095Y19549
X67330Y19754
X67767Y19591
X68246Y19165
X68467Y19711
X68809Y19146
X69125Y19146
X69367Y19531
X69687Y19491
X70047Y18751
X70530Y18771
X70567Y19471
X71287Y18391
X70067Y18011
X69647Y18291
X69087Y18382
X68407Y18091
X66597Y19944
X66287Y20191
X66187Y19611
X67327Y20231
X67257Y20941
X68047Y20351
X68267Y20501
X68507Y20371
X68747Y20491
X69147Y20421
X69347Y20591
X69307Y20851
X69307Y21131
X69467Y21371
X69447Y21671
X68887Y21791
X68647Y21671
X68127Y21731
X68127Y21451
X68107Y20991
X67847Y22311
X68027Y22591
X68247Y22431
X67517Y22361
X66667Y21971
X66587Y22251
X69147Y23611
X70067Y22859
X69967Y22331
X69687Y22211
X70167Y21471
X70447Y21751
X70627Y22331
X70725Y22671
X71007Y22531
X71247Y22751
X70217Y23469
X67189Y27084
X66900Y27440
X67095Y27635
X67330Y27840
X67767Y27677
X68246Y27251
X68467Y27797
X68809Y27232
X69125Y27232
X69367Y27617
X69687Y27577
X70047Y26837
X70530Y26857
X70567Y27557
X71287Y26477
X70067Y26097
X69647Y26377
X69087Y26468
X68407Y26177
X66597Y28030
X66287Y28277
X66187Y27697
X67327Y28317
X67257Y29027
X68047Y28437
X68267Y28587
X68507Y28457
X68747Y28577
X69147Y28507
X69347Y28677
X69307Y28937
X69307Y29217
X69467Y29457
X69447Y29757
X68887Y29877
X68647Y29757
X68127Y29817
X68127Y29537
X68107Y29077
X67847Y30397
X68027Y30677
X68247Y30517
X67517Y30447
X66667Y30057
X66587Y30337
X69147Y31697
X70067Y30945
X69967Y30417
X69687Y30297
X70167Y29557
X70447Y29837
X70627Y30417
X70725Y30757
X71007Y30617
X71247Y30837
X70217Y31555
X67189Y35170
X66900Y35526
X67095Y35721
X67330Y35926
X67767Y35763
X68246Y35337
X68467Y35883
X68809Y35318
X69125Y35318
X69367Y35703
X69687Y35663
X70047Y34923
X70530Y34943
X70567Y35643
X71287Y34563
X70067Y34183
X69647Y34463
X69087Y34554
X68407Y34263
X66597Y36116
X66287Y36363
X66187Y35783
X67327Y36403
X67257Y37113
X68047Y36523
X68267Y36673
X68507Y36543
X68747Y36663
X69147Y36593
X69347Y36763
X69307Y37023
X69307Y37303
X69467Y37543
X69447Y37843
X68887Y37963
X68647Y37843
X68127Y37903
X68127Y37623
X68107Y37163
X67847Y38483
X68027Y38763
X68247Y38603
X67517Y38533
X66667Y38143
X66587Y38423
X69147Y39783
X70067Y39031
X69967Y38503
X69687Y38383
X70167Y37643
X70447Y37923
X70627Y38503
X70725Y38843
X71007Y38703
X71247Y38923
X70217Y39641
X75275Y2826
X74986Y3182
X75181Y3377
X75416Y3582
X75853Y3419
X76332Y2993
X76553Y3539
X76895Y2974
X77211Y2974
X77453Y3359
X77773Y3319
X78133Y2579
X78616Y2599
X78653Y3299
X79373Y2219
X78153Y1839
X77733Y2119
X77173Y2210
X76493Y1919
X74683Y3772
X74373Y4019
X74273Y3439
X75413Y4059
X75343Y4769
X76133Y4179
X76353Y4329
X76593Y4199
X76833Y4319
X77233Y4249
X77433Y4419
X77393Y4679
X77393Y4959
X77553Y5199
X77533Y5499
X76973Y5619
X76733Y5499
X76213Y5559
X76213Y5279
X76193Y4819
X75933Y6139
X76113Y6419
X76333Y6259
X75603Y6189
X74753Y5799
X74673Y6079
X77233Y7439
X78153Y6687
X78053Y6159
X77773Y6039
X78253Y5299
X78533Y5579
X78713Y6159
X78811Y6499
X79093Y6359
X79333Y6579
X78303Y7297
X75275Y10912
X74986Y11268
X75181Y11463
X75416Y11668
X75853Y11505
X76332Y11079
X76553Y11625
X76895Y11060
X77211Y11060
X77453Y11445
X77773Y11405
X78133Y10665
X78616Y10685
X78653Y11385
X79373Y10305
X78153Y9925
X77733Y10205
X77173Y10296
X76493Y10005
X74683Y11858
X74373Y12105
X74273Y11525
X75413Y12145
X75343Y12855
X76133Y12265
X76353Y12415
X76593Y12285
X76833Y12405
X77233Y12335
X77433Y12505
X77393Y12765
X77393Y13045
X77553Y13285
X77533Y13585
X76973Y13705
X76733Y13585
X76213Y13645
X76213Y13365
X76193Y12905
X75933Y14225
X76113Y14505
X76333Y14345
X75603Y14275
X74753Y13885
X74673Y14165
X77233Y15525
X78153Y14773
X78053Y14245
X77773Y14125
X78253Y13385
X78533Y13665
X78713Y14245
X78811Y14585
X79093Y14445
X79333Y14665
X78303Y15383
X75275Y18998
X74986Y19354
X75181Y19549
X75416Y19754
X75853Y19591
X76332Y19165
X76553Y19711
X76895Y19146
X77211Y19146
X77453Y19531
X77773Y19491
X78133Y18751
X78616Y18771
X78653Y19471
X79373Y18391
X78153Y18011
X77733Y18291
X77173Y18382
X76493Y18091
X74683Y19944
X74373Y20191
X74273Y19611
X75413Y20231
X75343Y20941
X76133Y20351
X76353Y20501
X76593Y20371
X76833Y20491
X77233Y20421
X77433Y20591
X77393Y20851
X77393Y21131
X77553Y21371
X77533Y21671
X76973Y21791
X76733Y21671
X76213Y21731
X76213Y21451
X76193Y20991
X75933Y22311
X76113Y22591
X76333Y22431
X75603Y22361
X74753Y21971
X74673Y22251
X77233Y23611
X78153Y22859
X78053Y22331
X77773Y22211
X78253Y21471
X78533Y21751
X78713Y22331
X78811Y22671
X79093Y22531
X79333Y22751
X78303Y23469
X75275Y27084
X74986Y27440
X75181Y27635
X75416Y27840
X75853Y27677
X76332Y27251
X76553Y27797
X76895Y27232
X77211Y27232
X77453Y27617
X77773Y27577
X78133Y26837
X78616Y26857
X78653Y27557
X79373Y26477
X78153Y26097
X77733Y26377
X77173Y26468
X76493Y26177
X74683Y28030
X74373Y28277
X74273Y27697
X75413Y28317
X75343Y29027
X76133Y28437
X76353Y28587
X76593Y28457
X76833Y28577
X77233Y28507
X77433Y28677
X77393Y28937
X77393Y29217
X77553Y29457
X77533Y29757
X76973Y29877
X76733Y29757
X76213Y29817
X76213Y29537
X76193Y29077
X75933Y30397
X76113Y30677
X76333Y30517
X75603Y30447
X74753Y30057
X74673Y30337
X77233Y31697
X78153Y30945
X78053Y30417
X77773Y30297
X78253Y29557
X78533Y29837
X78713Y30417
X78811Y30757
X79093Y30617
X79333Y30837
X78303Y31555
X75275Y35170
X74986Y35526
X75181Y35721
X75416Y35926
X75853Y35763
X76332Y35337
X76553Y35883
X76895Y35318
X77211Y35318
X77453Y35703
X77773Y35663
X78133Y34923
X78616Y34943
X78653Y35643
X79373Y34563
X78153Y34183
X77733Y34463
X77173Y34554
X76493Y34263
X74683Y36116
X74373Y36363
X74273Y35783
X75413Y36403
X75343Y37113
X76133Y36523
X76353Y36673
X76593Y36543
X76833Y36663
X77233Y36593
X77433Y36763
X77393Y37023
X77393Y37303
X77553Y37543
X77533Y37843
X76973Y37963
X76733Y37843
X76213Y37903
X76213Y37623
X76193Y37163
X75933Y38483
X76113Y38763
X76333Y38603
X75603Y38533
X74753Y38143
X74673Y38423
X77233Y39783
X78153Y39031
X78053Y38503
X77773Y38383
X78253Y37643
X78533Y37923
X78713Y38503
X78811Y38843
X79093Y38703
X79333Y38923
X78303Y39641
T11C0.022
X2254Y2264
X2574Y1985
X2934Y1746
X3314Y1562
X3723Y1419
X4143Y1340
X4573Y1319
X5013Y1349
X5444Y1451
X5854Y1600
X1974Y2593
X1734Y2952
X2919Y7321
X3298Y7520
X3704Y7657
X4124Y7742
X4544Y7772
X4984Y7733
X5424Y7644
X2254Y10350
X2574Y10071
X2934Y9832
X3314Y9648
X3723Y9505
X4143Y9426
X4573Y9405
X5013Y9435
X5444Y9537
X5854Y9686
X1974Y10679
X1734Y11038
X2919Y15407
X3298Y15606
X3704Y15743
X4124Y15828
X4544Y15858
X4984Y15819
X5424Y15730
X2254Y18436
X2574Y18157
X2934Y17918
X3314Y17734
X3723Y17591
X4143Y17512
X4573Y17491
X5013Y17521
X5444Y17623
X5854Y17772
X1974Y18765
X1734Y19124
X2919Y23493
X3298Y23692
X3704Y23829
X4124Y23914
X4544Y23944
X4984Y23905
X5424Y23816
X2254Y26522
X2574Y26243
X2934Y26004
X3314Y25820
X3723Y25677
X4143Y25598
X4573Y25577
X5013Y25607
X5444Y25709
X5854Y25858
X1974Y26851
X1734Y27210
X2919Y31579
X3298Y31778
X3704Y31915
X4124Y32000
X4544Y32030
X4984Y31991
X5424Y31902
X2254Y34608
X2574Y34329
X2934Y34090
X3314Y33906
X3723Y33763
X4143Y33684
X4573Y33663
X5013Y33693
X5444Y33795
X5854Y33944
X1974Y34937
X1734Y35296
X2919Y39665
X3298Y39864
X3704Y40001
X4124Y40086
X4544Y40116
X4984Y40077
X5424Y39988
X10340Y2264
X10660Y1985
X11020Y1746
X11400Y1562
X11809Y1419
X12229Y1340
X12659Y1319
X13099Y1349
X13530Y1451
X13940Y1600
X10060Y2593
X9820Y2952
X11005Y7321
X11384Y7520
X11790Y7657
X12210Y7742
X12630Y7772
X13070Y7733
X13510Y7644
X10340Y10350
X10660Y10071
X11020Y9832
X11400Y9648
X11809Y9505
X12229Y9426
X12659Y9405
X13099Y9435
X13530Y9537
X13940Y9686
X10060Y10679
X9820Y11038
X11005Y15407
X11384Y15606
X11790Y15743
X12210Y15828
X12630Y15858
X13070Y15819
X13510Y15730
X10340Y18436
X10660Y18157
X11020Y17918
X11400Y17734
X11809Y17591
X12229Y17512
X12659Y17491
X13099Y17521
X13530Y17623
X13940Y17772
X10060Y18765
X9820Y19124
X11005Y23493
X11384Y23692
X11790Y23829
X12210Y23914
X12630Y23944
X13070Y23905
X13510Y23816
X10340Y26522
X10660Y26243
X11020Y26004
X11400Y25820
X11809Y25677
X12229Y25598
X12659Y25577
X13099Y25607
X13530Y25709
X13940Y25858
X10060Y26851
X9820Y27210
X11005Y31579
X11384Y31778
X11790Y31915
X12210Y32000
X12630Y32030
X13070Y31991
X13510Y31902
X10340Y34608
X10660Y34329
X11020Y34090
X11400Y33906
X11809Y33763
X12229Y33684
X12659Y33663
X13099Y33693
X13530Y33795
X13940Y33944
X10060Y34937
X9820Y35296
X11005Y39665
X11384Y39864
X11790Y40001
X12210Y40086
X12630Y40116
X13070Y40077
X13510Y39988
X18426Y2264
X18746Y1985
X19106Y1746
X19486Y1562
X19895Y1419
X20315Y1340
X20745Y1319
X21185Y1349
X21616Y1451
X22026Y1600
X18146Y2593
X17906Y2952
X19091Y7321
X19470Y7520
X19876Y7657
X20296Y7742
X20716Y7772
X21156Y7733
X21596Y7644
X18426Y10350
X18746Y10071
X19106Y9832
X19486Y9648
X19895Y9505
X20315Y9426
X20745Y9405
X21185Y9435
X21616Y9537
X22026Y9686
X18146Y10679
X17906Y11038
X19091Y15407
X19470Y15606
X19876Y15743
X20296Y15828
X20716Y15858
X21156Y15819
X21596Y15730
X18426Y18436
X18746Y18157
X19106Y17918
X19486Y17734
X19895Y17591
X20315Y17512
X20745Y17491
X21185Y17521
X21616Y17623
X22026Y17772
X18146Y18765
X17906Y19124
X19091Y23493
X19470Y23692
X19876Y23829
X20296Y23914
X20716Y23944
X21156Y23905
X21596Y23816
X18426Y26522
X18746Y26243
X19106Y26004
X19486Y25820
X19895Y25677
X20315Y25598
X20745Y25577
X21185Y25607
X21616Y25709
X22026Y25858
X18146Y26851
X17906Y27210
X19091Y31579
X19470Y31778
X19876Y31915
X20296Y32000
X20716Y32030
X21156Y31991
X21596Y31902
X18426Y34608
X18746Y34329
X19106Y34090
X19486Y33906
X19895Y33763
X20315Y33684
X20745Y33663
X21185Y33693
X21616Y33795
X22026Y33944
X18146Y34937
X17906Y35296
X19091Y39665
X19470Y39864
X19876Y40001
X20296Y40086
X20716Y40116
X21156Y40077
X21596Y39988
X26512Y2264
X26832Y1985
X27192Y1746
X27572Y1562
X27981Y1419
X28401Y1340
X28831Y1319
X29271Y1349
X29702Y1451
X30112Y1600
X26232Y2593
X25992Y2952
X27177Y7321
X27556Y7520
X27962Y7657
X28382Y7742
X28802Y7772
X29242Y7733
X29682Y7644
X26512Y10350
X26832Y10071
X27192Y9832
X27572Y9648
X27981Y9505
X28401Y9426
X28831Y9405
X29271Y9435
X29702Y9537
X30112Y9686
X26232Y10679
X25992Y11038
X27177Y15407
X27556Y15606
X27962Y15743
X28382Y15828
X28802Y15858
X29242Y15819
X29682Y15730
X26512Y18436
X26832Y18157
X27192Y17918
X27572Y17734
X27981Y17591
X28401Y17512
X28831Y17491
X29271Y17521
X29702Y17623
X30112Y17772
X26232Y18765
X25992Y19124
X27177Y23493
X27556Y23692
X27962Y23829
X28382Y23914
X28802Y23944
X29242Y23905
X29682Y23816
X26512Y26522
X26832Y26243
X27192Y26004
X27572Y25820
X27981Y25677
X28401Y25598
X28831Y25577
X29271Y25607
X29702Y25709
X30112Y25858
X26232Y26851
X25992Y27210
X27177Y31579
X27556Y31778
X27962Y31915
X28382Y32000
X28802Y32030
X29242Y31991
X29682Y31902
X26512Y34608
X26832Y34329
X27192Y34090
X27572Y33906
X27981Y33763
X28401Y33684
X28831Y33663
X29271Y33693
X29702Y33795
X30112Y33944
X26232Y34937
X25992Y35296
X27177Y39665
X27556Y39864
X27962Y40001
X28382Y40086
X28802Y40116
X29242Y40077
X29682Y39988
X34598Y2264
X34918Y1985
X35278Y1746
X35658Y1562
X36067Y1419
X36487Y1340
X36917Y1319
X37357Y1349
X37788Y1451
X38198Y1600
X34318Y2593
X34078Y2952
X35263Y7321
X35642Y7520
X36048Y7657
X36468Y7742
X36888Y7772
X37328Y7733
X37768Y7644
X34598Y10350
X34918Y10071
X35278Y9832
X35658Y9648
X36067Y9505
X36487Y9426
X36917Y9405
X37357Y9435
X37788Y9537
X38198Y9686
X34318Y10679
X34078Y11038
X35263Y15407
X35642Y15606
X36048Y15743
X36468Y15828
X36888Y15858
X37328Y15819
X37768Y15730
X34598Y18436
X34918Y18157
X35278Y17918
X35658Y17734
X36067Y17591
X36487Y17512
X36917Y17491
X37357Y17521
X37788Y17623
X38198Y17772
X34318Y18765
X34078Y19124
X35263Y23493
X35642Y23692
X36048Y23829
X36468Y23914
X36888Y23944
X37328Y23905
X37768Y23816
X34598Y26522
X34918Y26243
X35278Y26004
X35658Y25820
X36067Y25677
X36487Y25598
X36917Y25577
X37357Y25607
X37788Y25709
X38198Y25858
X34318Y26851
X34078Y27210
X35263Y31579
X35642Y31778
X36048Y31915
X36468Y32000
X36888Y32030
X37328Y31991
X37768Y31902
X34598Y34608
X34918Y34329
X35278Y34090
X35658Y33906
X36067Y33763
X36487Y33684
X36917Y33663
X37357Y33693
X37788Y33795
X38198Y33944
X34318Y34937
X34078Y35296
X35263Y39665
X35642Y39864
X36048Y40001
X36468Y40086
X36888Y40116
X37328Y40077
X37768Y39988
X42684Y2264
X43004Y1985
X43364Y1746
X43744Y1562
X44153Y1419
X44573Y1340
X45003Y1319
X45443Y1349
X45874Y1451
X46284Y1600
X42404Y2593
X42164Y2952
X43349Y7321
X43728Y7520
X44134Y7657
X44554Y7742
X44974Y7772
X45414Y7733
X45854Y7644
X42684Y10350
X43004Y10071
X43364Y9832
X43744Y9648
X44153Y9505
X44573Y9426
X45003Y9405
X45443Y9435
X45874Y9537
X46284Y9686
X42404Y10679
X42164Y11038
X43349Y15407
X43728Y15606
X44134Y15743
X44554Y15828
X44974Y15858
X45414Y15819
X45854Y15730
X42684Y18436
X43004Y18157
X43364Y17918
X43744Y17734
X44153Y17591
X44573Y17512
X45003Y17491
X45443Y17521
X45874Y17623
X46284Y17772
X42404Y18765
X42164Y19124
X43349Y23493
X43728Y23692
X44134Y23829
X44554Y23914
X44974Y23944
X45414Y23905
X45854Y23816
X42684Y26522
X43004Y26243
X43364Y26004
X43744Y25820
X44153Y25677
X44573Y25598
X45003Y25577
X45443Y25607
X45874Y25709
X46284Y25858
X42404Y26851
X42164Y27210
X43349Y31579
X43728Y31778
X44134Y31915
X44554Y32000
X44974Y32030
X45414Y31991
X45854Y31902
X42684Y34608
X43004Y34329
X43364Y34090
X43744Y33906
X44153Y33763
X44573Y33684
X45003Y33663
X45443Y33693
X45874Y33795
X46284Y33944
X42404Y34937
X42164Y35296
X43349Y39665
X43728Y39864
X44134Y40001
X44554Y40086
X44974Y40116
X45414Y40077
X45854Y39988
X50770Y2264
X51090Y1985
X51450Y1746
X51830Y1562
X52239Y1419
X52659Y1340
X53089Y1319
X53529Y1349
X53960Y1451
X54370Y1600
X50490Y2593
X50250Y2952
X51435Y7321
X51814Y7520
X52220Y7657
X52640Y7742
X53060Y7772
X53500Y7733
X53940Y7644
X50770Y10350
X51090Y10071
X51450Y9832
X51830Y9648
X52239Y9505
X52659Y9426
X53089Y9405
X53529Y9435
X53960Y9537
X54370Y9686
X50490Y10679
X50250Y11038
X51435Y15407
X51814Y15606
X52220Y15743
X52640Y15828
X53060Y15858
X53500Y15819
X53940Y15730
X50770Y18436
X51090Y18157
X51450Y17918
X51830Y17734
X52239Y17591
X52659Y17512
X53089Y17491
X53529Y17521
X53960Y17623
X54370Y17772
X50490Y18765
X50250Y19124
X51435Y23493
X51814Y23692
X52220Y23829
X52640Y23914
X53060Y23944
X53500Y23905
X53940Y23816
X50770Y26522
X51090Y26243
X51450Y26004
X51830Y25820
X52239Y25677
X52659Y25598
X53089Y25577
X53529Y25607
X53960Y25709
X54370Y25858
X50490Y26851
X50250Y27210
X51435Y31579
X51814Y31778
X52220Y31915
X52640Y32000
X53060Y32030
X53500Y31991
X53940Y31902
X50770Y34608
X51090Y34329
X51450Y34090
X51830Y33906
X52239Y33763
X52659Y33684
X53089Y33663
X53529Y33693
X53960Y33795
X54370Y33944
X50490Y34937
X50250Y35296
X51435Y39665
X51814Y39864
X52220Y40001
X52640Y40086
X53060Y40116
X53500Y40077
X53940Y39988
X58856Y2264
X59176Y1985
X59536Y1746
X59916Y1562
X60325Y1419
X60745Y1340
X61175Y1319
X61615Y1349
X62046Y1451
X62456Y1600
X58576Y2593
X58336Y2952
X59521Y7321
X59900Y7520
X60306Y7657
X60726Y7742
X61146Y7772
X61586Y7733
X62026Y7644
X58856Y10350
X59176Y10071
X59536Y9832
X59916Y9648
X60325Y9505
X60745Y9426
X61175Y9405
X61615Y9435
X62046Y9537
X62456Y9686
X58576Y10679
X58336Y11038
X59521Y15407
X59900Y15606
X60306Y15743
X60726Y15828
X61146Y15858
X61586Y15819
X62026Y15730
X58856Y18436
X59176Y18157
X59536Y17918
X59916Y17734
X60325Y17591
X60745Y17512
X61175Y17491
X61615Y17521
X62046Y17623
X62456Y17772
X58576Y18765
X58336Y19124
X59521Y23493
X59900Y23692
X60306Y23829
X60726Y23914
X61146Y23944
X61586Y23905
X62026Y23816
X58856Y26522
X59176Y26243
X59536Y26004
X59916Y25820
X60325Y25677
X60745Y25598
X61175Y25577
X61615Y25607
X62046Y25709
X62456Y25858
X58576Y26851
X58336Y27210
X59521Y31579
X59900Y31778
X60306Y31915
X60726Y32000
X61146Y32030
X61586Y31991
X62026Y31902
X58856Y34608
X59176Y34329
X59536Y34090
X59916Y33906
X60325Y33763
X60745Y33684
X61175Y33663
X61615Y33693
X62046Y33795
X62456Y33944
X58576Y34937
X58336Y35296
X59521Y39665
X59900Y39864
X60306Y40001
X60726Y40086
X61146Y40116
X61586Y40077
X62026Y39988
X66942Y2264
X67262Y1985
X67622Y1746
X68002Y1562
X68411Y1419
X68831Y1340
X69261Y1319
X69701Y1349
X70132Y1451
X70542Y1600
X66662Y2593
X66422Y2952
X67607Y7321
X67986Y7520
X68392Y7657
X68812Y7742
X69232Y7772
X69672Y7733
X70112Y7644
X66942Y10350
X67262Y10071
X67622Y9832
X68002Y9648
X68411Y9505
X68831Y9426
X69261Y9405
X69701Y9435
X70132Y9537
X70542Y9686
X66662Y10679
X66422Y11038
X67607Y15407
X67986Y15606
X68392Y15743
X68812Y15828
X69232Y15858
X69672Y15819
X70112Y15730
X66942Y18436
X67262Y18157
X67622Y17918
X68002Y17734
X68411Y17591
X68831Y17512
X69261Y17491
X69701Y17521
X70132Y17623
X70542Y17772
X66662Y18765
X66422Y19124
X67607Y23493
X67986Y23692
X68392Y23829
X68812Y23914
X69232Y23944
X69672Y23905
X70112Y23816
X66942Y26522
X67262Y26243
X67622Y26004
X68002Y25820
X68411Y25677
X68831Y25598
X69261Y25577
X69701Y25607
X70132Y25709
X70542Y25858
X66662Y26851
X66422Y27210
X67607Y31579
X67986Y31778
X68392Y31915
X68812Y32000
X69232Y32030
X69672Y31991
X70112Y31902
X66942Y34608
X67262Y34329
X67622Y34090
X68002Y33906
X68411Y33763
X68831Y33684
X69261Y33663
X69701Y33693
X70132Y33795
X70542Y33944
X66662Y34937
X66422Y35296
X67607Y39665
X67986Y39864
X68392Y40001
X68812Y40086
X69232Y40116
X69672Y40077
X70112Y39988
X75028Y2264
X75348Y1985
X75708Y1746
X76088Y1562
X76497Y1419
X76917Y1340
X77347Y1319
X77787Y1349
X78218Y1451
X78628Y1600
X74748Y2593
X74508Y2952
X75693Y7321
X76072Y7520
X76478Y7657
X76898Y7742
X77318Y7772
X77758Y7733
X78198Y7644
X75028Y10350
X75348Y10071
X75708Y9832
X76088Y9648
X76497Y9505
X76917Y9426
X77347Y9405
X77787Y9435
X78218Y9537
X78628Y9686
X74748Y10679
X74508Y11038
X75693Y15407
X76072Y15606
X76478Y15743
X76898Y15828
X77318Y15858
X77758Y15819
X78198Y15730
X75028Y18436
X75348Y18157
X75708Y17918
X76088Y17734
X76497Y17591
X76917Y17512
X77347Y17491
X77787Y17521
X78218Y17623
X78628Y17772
X74748Y18765
X74508Y19124
X75693Y23493
X76072Y23692
X76478Y23829
X76898Y23914
X77318Y23944
X77758Y23905
X78198Y23816
X75028Y26522
X75348Y26243
X75708Y26004
X76088Y25820
X76497Y25677
X76917Y25598
X77347Y25577
X77787Y25607
X78218Y25709
X78628Y25858
X74748Y26851
X74508Y27210
X75693Y31579
X76072Y31778
X76478Y31915
X76898Y32000
X77318Y32030
X77758Y31991
X78198Y31902
X75028Y34608
X75348Y34329
X75708Y34090
X76088Y33906
X76497Y33763
X76917Y33684
X77347Y33663
X77787Y33693
X78218Y33795
X78628Y33944
X74748Y34937
X74508Y35296
X75693Y39665
X76072Y39864
X76478Y40001
X76898Y40086
X77318Y40116
X77758Y40077
X78198Y39988
T14C0.081
X5000Y-1000
X76860Y-1000
X5000Y42430
X76860Y42430
M30
