M48
;Layer_Color=9474304
;FILE_FORMAT=2:4
INCH,TZ
;TYPE=PLATED
T1F00S00C0.0120
T2F00S00C0.0130
T4F00S00C0.0354
T5F00S00C0.0394
T6F00S00C0.0469
T7F00S00C0.0701
T8F00S00C0.1260
;TYPE=NON_PLATED
T9F00S00C0.0390
%
T01
X495Y491
X2495
X2695Y1785
X3615
X3160Y2471
X3160Y4736
X2655Y4301
X2165Y5101
X2825Y6371
X4045Y5687
X3305Y9001
X1705Y8975
X495Y8491
X485Y6491
X495Y4491
Y2491
X1695Y1491
X4495Y491
X6495
X6945Y1791
X6855Y3001
X6595Y4691
X5975Y6091
X5915Y6711
X5765Y7611
X5955Y8711
X6635Y8291
X7961Y8511
X8344Y7284
X8679
X7375Y6911
X8495Y5681
X8265Y3601
X9275Y2981
X9615Y1791
X10495Y1491
Y491
X8995
X10995Y2991
X11995
X11505Y2491
X12495
X12995Y2991
X13995
X14995
X15485Y2501
X16455Y2471
X17455Y2451
X17995Y2991
X17515Y3481
X16465Y3511
X15525Y3521
X15325Y5155
X14435Y4675
X14215Y6411
X14045Y7031
X14099Y7488
X14765Y7451
Y7021
X15325Y7075
X16005Y7601
X15477Y8251
X15041Y8951
X14296Y8528
X13706
X13366Y9008
X14096Y9318
X11835Y8841
X11145
X10501Y8561
X9871Y8091
X10359Y6993
X10731Y7111
X11031Y7181
X11655Y7031
X11565Y7451
X12525Y7488
X12345Y7101
X12495Y6411
X11465Y6491
X10495
Y4701
X11505Y3921
X12485Y3901
X12495Y4701
X13219Y6835
X16962Y7315
Y8535
Y9125
X18962Y7425
X18975Y6195
X18495Y4491
X16495
Y5471
X19465Y2231
X9215Y9051
X20462Y7785
X20005Y6225
X20495Y5561
X20480Y4491
X21415Y4945
X22265Y5605
X22345Y6225
X22045
X22135Y6645
X22565Y6015
X22785Y5805
X24062Y5765
X24115Y6797
X24615
X25115Y6795
Y8365
X24615
X24115
X23115
X22345Y8495
X21965Y8935
X22765Y9055
X22805Y7125
X22495Y4491
X23435
X22995Y2991
X21995
X20995
X19995
X23995
X24995
X25902Y3675
X27455Y4491
X28495Y5341
X30495
X30496Y4041
X31776Y4191
X31772Y4935
Y5235
Y5535
X32222Y5905
X32432Y5315
X32775Y5335
X32902Y4675
X32602
X33286Y4201
X33522Y5025
X34495Y5341
X33855Y6025
X32787Y6667
X32495Y7531
Y8891
X34135Y9341
X34164Y8242
X34495Y7521
X34824Y4084
X34495Y3091
X34166Y2196
X35436
X34495Y491
X32495
X30495
X28495
X26495
X26482Y1575
X28495Y3011
X29776Y2192
X31046
X32495Y3091
X30645Y7315
X31045Y8235
X29955Y8205
X29175Y8755
X28875
X28575
X28275
X28375Y8075
X26675Y7505
X26495Y8515
X25955Y8077
X25515Y8077
X29748Y9345
X35444Y8242
X37095Y8491
Y6491
X36495Y5341
X37095Y4491
Y2245
X36495Y491
X37095Y10491
X36785Y11741
X36045
X36054Y13256
X36864
X37145Y14491
Y16491
X36962Y17905
X36805Y18865
X36505
X36255Y19415
X36295Y19905
X36015Y19785
X36295Y20325
X36572Y20995
X37242Y20535
X37505Y20095
Y19615
Y19315
X36885Y19435
X35445Y18965
X35580Y15596
X38495Y18491
Y20491
Y22491
Y24491
X36495Y24481
Y22491
X34995Y21991
X33995
X32995
X31995
X30995
X29995
X28995
X27995
X26995
X26435Y22761
X25615Y22711
X24995Y21991
X23995
X22995
X21995
X20995
X19995
X20478Y19265
X20415Y18602
X20158Y17992
X20662Y17672
X21038Y17132
X22362
X21985Y17581
Y18001
Y18421
Y18841
Y19261
X21295Y18575
X22228Y16335
X22928Y16185
X22118Y14819
X22125Y14115
X22365Y13755
X22485Y13475
X21238Y13935
X20378Y13765
X20648Y14552
X20378Y15902
X19955Y16251
X20895Y12385
X21195
X21495
X21795
X21885Y10945
X22105Y10735
X22325Y10525
X22545Y10315
X22765Y10105
X23065
X23365
X23665
X23965
X24265
X24565
X24865
X25165
X25465
X25282Y10745
X25585Y11095
X25885
X26185
X26485
X26785
X27085
X27385
X27685
X28950Y11398
X29601Y12383
X29850Y13428
X29750Y13828
X29740Y14420
X30352Y14124
X31290Y14234
X32205Y14263
X33390Y14256
Y14686
X33670Y14970
X34000
X34400Y15056
X34110Y15980
X34695Y15991
X33330Y16060
X33540Y16280
X33750Y16500
X33005Y17041
X33055Y18015
X32245Y17465
X32220Y16080
X32460Y15210
X32680Y15420
X32900Y15630
X33120Y15840
X30850Y15990
X29740Y15770
X29115Y16355
X28420Y16630
X26852Y16865
X26435Y17765
X26135
X25835
X25535
X25835Y18665
X26055Y18875
X25952Y19345
X26655Y19029
X27155
X27655
X28155
X29332Y18905
X30312
X30700Y18120
X30490Y17900
X30280Y17680
X30145Y16905
X29375Y17545
Y17845
X31100Y17980
X32245Y18968
X34735Y18965
X34755Y17465
X34485Y20995
X34495Y22741
X32495Y22721
X32515Y21195
X26405Y20615
X24935Y18885
X24715Y19095
X24495Y19305
X24275Y19515
X25162Y16835
X24985Y14715
X24588Y14718
X24125Y13595
Y12595
X24672Y12395
X26420Y12611
X26985Y12385
X26658Y13493
X26672Y14625
X28465Y14435
X28225Y9955
X28485Y9415
X26345
X26555Y9955
X22765Y9475
X22545Y9685
X22325Y9475
X20955Y9495
Y9895
X20708Y10325
Y11925
X31270Y11495
X31137Y10752
X31510Y10746
X32055Y10775
X32265Y10555
X32685
X32475Y10335
X32895
X33675Y10515
X33465Y10735
X33255Y10955
X34125Y11025
X33915Y11245
X33705Y11465
X34845Y11375
Y12121
X35195Y11801
X34845Y12851
X35040Y13356
Y13686
X35400Y13976
X35295Y10491
X34545Y10585
X34335Y10805
X31845Y10995
X26135Y23581
X18995Y21991
X17995
X16395
X15395
X14395
X13395
X12395
X11395
X10395Y21995
X9395Y21991
X8395
X7395
X7785Y20491
X6495
X5605Y20591
X5595Y20151
X4755Y19871
X4905Y21201
X4495Y22491
X6495Y23211
X6895Y24491
X5395
X9885Y22571
X10885Y22591
Y19345
X9895Y18691
X9905Y17531
X8945Y17431
X8395Y17991
X7895Y18491
X7395Y19301
X6495Y18491
X6845Y17581
X6815Y16451
X6495Y16741
X5685Y17541
X5235Y15435
X6345Y15275
X8561Y15381
X8841Y15931
X9971Y15781
X10045Y15131
X10415Y14701
X10895Y14891
X11165Y15611
X11705Y15664
X12515
X13195Y15521
X13535Y15501
X13195Y16001
X13224Y16391
X13884Y16371
X14391Y15591
X14911Y15601
X15395Y15591
X15795Y15541
X16335Y15191
X15915Y14341
X16001Y13621
X17025Y13661
X17005Y12961
X16811Y12291
X16191Y12601
Y11801
X17265Y11801
X16962Y10995
X16551Y11011
X16201Y10361
X16341Y9501
X17512Y10225
X15161Y10701
X14495Y10491
X14096Y11718
X13406Y11158
X12715Y10491
Y9441
X11635
X10521Y9481
X10531Y9781
X10255Y10101
Y10401
X10465Y10631
X10855Y10601
X11625Y10691
X10265Y10881
X8831Y10881
X8791Y11491
X8781Y11856
X8841Y12201
X8861Y12501
X8371Y13101
X7911Y12231
X8221Y11921
X8405Y11201
X8711Y10091
X9121Y10111
X9181Y9781
Y9481
X7761Y9861
X6495Y10491
X5245Y10231
X4405Y10241
X4541Y11391
X4321Y11786
X5291Y11661
X6495Y12491
X4495Y14491
X7885Y17061
X8895Y19091
X12905Y19345
X14675
X15208Y18692
X15965Y19345
X16955Y19161
X17218Y18222
X17617Y18146
Y17846
X17518Y17452
X17148Y17372
X17152Y17011
Y16591
Y16171
X17442Y16381
X17442Y16801
X17442Y15751
X18288Y16245
X18786Y17025
X18465Y17452
X19206Y17625
X18262Y18252
Y18552
X18310Y19155
X17617Y18619
X18395Y20425
X19325Y21085
X19585Y14991
X19515Y13741
X19605Y12991
X18425Y12621
X17735Y13531
X18065Y14081
X18395Y14691
X14355Y14781
X13065Y15034
X12765
X13071Y14461
X13101Y13461
X12646Y12808
X12175Y13021
X11975Y13311
X11375Y13101
X10671Y12637
Y12298
X11015Y12231
X15185Y12991
X15198Y17002
X2315Y17341
X2245Y19161
X3375Y19301
X3095Y20991
X2995Y22491
X2495Y22991
Y24491
X495
Y22991
Y18491
Y16491
X1005Y15911
X1195Y14985
X495Y14491
X2495Y14865
X3365Y15425
X3695Y13495
X2785Y13545
X2385Y11860
X2505Y11255
X1355Y11835
Y12745
X495Y10491
X3135Y10061
X3095Y9421
T02
X31741Y11968
X32214
Y12440
X31741
Y12912
Y13385
X32214
Y12912
X32686
Y13385
X33159
Y12912
Y12440
X32686
Y11968
X33159
T04
X10995Y491
X11995
X12995
Y1491
X11995
X10995
X13995
X14995
Y491
X13995
X15995
Y1491
X16995
X17995
Y491
X16995
X19995
Y1491
X20995
Y491
X21995
X22995
Y1491
X21995
X23995
X24995
Y491
X23995
Y23491
X22995
Y24491
X23995
X24995
Y23491
X26995Y23491
X27995
Y24491
X28995
X29995
X30995
Y23491
X31995
X32995
Y24491
X33995
Y23491
X34995
Y24491
X31995
X29995Y23491
X28995
X26995Y24491
X21995Y24491
X20995
Y23491
X21995
X19995
Y24491
X18995
X17995
Y23491
X18995
X16395
Y24491
X15395
Y23491
X14395
X13395
Y24491
X14395
X12395
X11395
X10395
Y23491
X11395
X12395
X9395
X8395
X7395
Y24491
X8395
X9395
T05
X26975Y3051
X1525Y24301
T06
X27419Y7485
T07
X2875Y6991
Y17991
T08
X5495Y2991
X25995Y4991
X37995Y2991
X25995Y15991
X5995Y21991
T09
X18995Y12491
X19395Y15491
X18595
M30
