G04 Layer_Color=8421504*
%FSLAX24Y24*%
%MOIN*%
G70*
G01*
G75*
%ADD16R,0.0197X0.0236*%
%ADD17R,0.0374X0.0335*%
%ADD18R,0.0157X0.0197*%
%ADD19R,0.0236X0.0217*%
%ADD22R,0.0236X0.0197*%
%ADD25R,0.0402X0.0799*%
%ADD26R,0.0299X0.0945*%
%ADD27R,0.0402X0.0862*%
%ADD28O,0.0256X0.0079*%
%ADD29O,0.0079X0.0256*%
%ADD30R,0.1850X0.1850*%
%ADD31R,0.0217X0.0236*%
%ADD32R,0.0295X0.0315*%
%ADD34R,0.0256X0.0197*%
%ADD35R,0.0315X0.0295*%
G04:AMPARAMS|DCode=36|XSize=31.5mil|YSize=29.5mil|CornerRadius=0mil|HoleSize=0mil|Usage=FLASHONLY|Rotation=40.000|XOffset=0mil|YOffset=0mil|HoleType=Round|Shape=Rectangle|*
%AMROTATEDRECTD36*
4,1,4,-0.0026,-0.0214,-0.0216,0.0012,0.0026,0.0214,0.0216,-0.0012,-0.0026,-0.0214,0.0*
%
%ADD36ROTATEDRECTD36*%

G04:AMPARAMS|DCode=37|XSize=19.7mil|YSize=25.6mil|CornerRadius=0mil|HoleSize=0mil|Usage=FLASHONLY|Rotation=40.000|XOffset=0mil|YOffset=0mil|HoleType=Round|Shape=Rectangle|*
%AMROTATEDRECTD37*
4,1,4,0.0007,-0.0161,-0.0158,0.0035,-0.0007,0.0161,0.0158,-0.0035,0.0007,-0.0161,0.0*
%
%ADD37ROTATEDRECTD37*%

%ADD38R,0.0300X0.0320*%
%ADD39R,0.0532X0.0157*%
%ADD40R,0.0610X0.0748*%
%ADD41R,0.0551X0.0630*%
%ADD42R,0.0315X0.0295*%
%ADD43R,0.0228X0.0197*%
%ADD44R,0.1500X0.0500*%
%ADD45R,0.0354X0.0138*%
%ADD46R,0.1252X0.0500*%
%ADD47R,0.0400X0.0300*%
%ADD48R,0.1083X0.0551*%
%ADD49R,0.0256X0.0335*%
%ADD50R,0.0236X0.0335*%
%ADD51R,0.0394X0.0335*%
%ADD52R,0.0276X0.0118*%
%ADD53R,0.0472X0.0433*%
%ADD54O,0.0650X0.0118*%
%ADD55O,0.0118X0.0650*%
%ADD56R,0.0945X0.0299*%
%ADD57R,0.0472X0.0984*%
%ADD58R,0.0709X0.0394*%
%ADD89O,0.0787X0.0591*%
%ADD90O,0.0071X0.0240*%
%ADD91O,0.0240X0.0071*%
D16*
X33670Y14289D02*
D03*
Y14683D02*
D03*
X9091Y11927D02*
D03*
Y11534D02*
D03*
X35195Y12478D02*
D03*
Y12084D02*
D03*
X10881Y15627D02*
D03*
Y15234D02*
D03*
X16511Y9954D02*
D03*
Y10347D02*
D03*
X16481Y12657D02*
D03*
Y12264D02*
D03*
X16331Y13064D02*
D03*
Y13457D02*
D03*
X9061Y15657D02*
D03*
Y15264D02*
D03*
X34100Y12873D02*
D03*
Y12479D02*
D03*
X35400Y14683D02*
D03*
Y14289D02*
D03*
X30011Y12446D02*
D03*
Y12840D02*
D03*
X37184Y12993D02*
D03*
Y12599D02*
D03*
X13551Y14804D02*
D03*
Y15197D02*
D03*
X8221Y12647D02*
D03*
Y12254D02*
D03*
X9091Y12647D02*
D03*
Y12254D02*
D03*
X11931Y7437D02*
D03*
Y7044D02*
D03*
X14495Y7437D02*
D03*
Y7044D02*
D03*
X34000Y14289D02*
D03*
Y14683D02*
D03*
X33522Y5288D02*
D03*
Y5681D02*
D03*
D17*
X34985Y14260D02*
D03*
Y14713D02*
D03*
X34415D02*
D03*
Y14260D02*
D03*
D18*
X23353Y16645D02*
D03*
X23904D02*
D03*
X22303Y15522D02*
D03*
X22854D02*
D03*
X20583D02*
D03*
X21134D02*
D03*
X20582Y16612D02*
D03*
X21133D02*
D03*
D19*
X27221Y9981D02*
D03*
X26827D02*
D03*
X27567D02*
D03*
X27961D02*
D03*
X27567Y9681D02*
D03*
X27961D02*
D03*
X27221D02*
D03*
X26827D02*
D03*
X19765Y18952D02*
D03*
X20158D02*
D03*
X19765Y18602D02*
D03*
X20158D02*
D03*
X21705Y17132D02*
D03*
X22099D02*
D03*
X21312D02*
D03*
X21705D02*
D03*
X23833Y16272D02*
D03*
X23439D02*
D03*
X22775Y15159D02*
D03*
X22382D02*
D03*
X21043Y15152D02*
D03*
X20649D02*
D03*
X22248Y19261D02*
D03*
X22642D02*
D03*
X22248Y18841D02*
D03*
X22642D02*
D03*
X22248Y18421D02*
D03*
X22642D02*
D03*
X22248Y17581D02*
D03*
X22642D02*
D03*
X21052Y16242D02*
D03*
X20658D02*
D03*
X22248Y18001D02*
D03*
X22642D02*
D03*
X15722Y7361D02*
D03*
X15329D02*
D03*
X16585Y11791D02*
D03*
X16978D02*
D03*
X16871Y16591D02*
D03*
X16477D02*
D03*
X16871Y17011D02*
D03*
X16477D02*
D03*
X16871Y16171D02*
D03*
X16477D02*
D03*
X16871Y17381D02*
D03*
X16477D02*
D03*
X1211Y10581D02*
D03*
X817D02*
D03*
X19765Y18252D02*
D03*
X20158D02*
D03*
X24588Y14985D02*
D03*
X24982D02*
D03*
D22*
X18185Y17452D02*
D03*
X17792D02*
D03*
X21262Y17472D02*
D03*
X20868D02*
D03*
X23833Y15932D02*
D03*
X23439D02*
D03*
X22382Y14819D02*
D03*
X22775D02*
D03*
X20649Y14812D02*
D03*
X21043D02*
D03*
X21052Y15902D02*
D03*
X20658D02*
D03*
X27808Y9345D02*
D03*
X28202D02*
D03*
X10675Y14571D02*
D03*
X11068D02*
D03*
X16545Y10731D02*
D03*
X16938D02*
D03*
X10355Y7431D02*
D03*
X10748D02*
D03*
X8715Y10411D02*
D03*
X9108D02*
D03*
X8685Y11211D02*
D03*
X9078D02*
D03*
X1211Y10231D02*
D03*
X817D02*
D03*
X31527Y11066D02*
D03*
X31133D02*
D03*
X29255Y11403D02*
D03*
X29648D02*
D03*
X12795Y14741D02*
D03*
X13188D02*
D03*
X3615Y11801D02*
D03*
X4008D02*
D03*
X14735Y14821D02*
D03*
X15128D02*
D03*
X3589Y9011D02*
D03*
X3982D02*
D03*
X30547Y13426D02*
D03*
X30153D02*
D03*
X34313Y13686D02*
D03*
X34707D02*
D03*
X34313Y13356D02*
D03*
X34707D02*
D03*
X26628Y9345D02*
D03*
X27022D02*
D03*
X36962Y20535D02*
D03*
X36569D02*
D03*
D25*
X27813Y8735D02*
D03*
X27025D02*
D03*
D26*
X23115Y8960D02*
D03*
X23615D02*
D03*
X24115D02*
D03*
X24615D02*
D03*
X25115D02*
D03*
X23115Y7425D02*
D03*
X23615D02*
D03*
X24115D02*
D03*
X24615D02*
D03*
X25115D02*
D03*
D27*
X7395Y17414D02*
D03*
Y18567D02*
D03*
X11395D02*
D03*
Y17414D02*
D03*
X12395Y18567D02*
D03*
Y17414D02*
D03*
X10395Y18567D02*
D03*
Y17414D02*
D03*
X9395Y18567D02*
D03*
Y17414D02*
D03*
X8395D02*
D03*
Y18567D02*
D03*
X14395Y17414D02*
D03*
Y18567D02*
D03*
X13395Y17414D02*
D03*
Y18567D02*
D03*
X26995Y21414D02*
D03*
Y22567D02*
D03*
X32995D02*
D03*
X28995D02*
D03*
X32995Y21414D02*
D03*
X28995D02*
D03*
X33995Y22567D02*
D03*
X34995D02*
D03*
X29995D02*
D03*
X30995D02*
D03*
X27995D02*
D03*
X33995Y21414D02*
D03*
X34995D02*
D03*
X29995Y21414D02*
D03*
X30995Y21414D02*
D03*
X27995D02*
D03*
X31995Y22567D02*
D03*
Y21414D02*
D03*
X21995Y21414D02*
D03*
Y22567D02*
D03*
X17995Y21414D02*
D03*
X20995D02*
D03*
X19995Y21414D02*
D03*
X24995Y21414D02*
D03*
X23995D02*
D03*
X17995Y22567D02*
D03*
X20995D02*
D03*
X19995D02*
D03*
X24995D02*
D03*
X23995D02*
D03*
X18995Y21414D02*
D03*
X22995D02*
D03*
X18995Y22567D02*
D03*
X22995D02*
D03*
X7395Y21414D02*
D03*
X13395D02*
D03*
X7395Y22567D02*
D03*
X13395D02*
D03*
X8395Y21414D02*
D03*
X9395Y21414D02*
D03*
X11395D02*
D03*
X12395D02*
D03*
X15395D02*
D03*
X16395D02*
D03*
X8395Y22567D02*
D03*
X9395D02*
D03*
X11395D02*
D03*
X12395D02*
D03*
X15395D02*
D03*
X16395D02*
D03*
X10395Y21414D02*
D03*
X14395Y21414D02*
D03*
X10395Y22567D02*
D03*
X14395D02*
D03*
X13995Y3567D02*
D03*
Y2414D02*
D03*
X17995Y3567D02*
D03*
X14995D02*
D03*
X15995Y3567D02*
D03*
X10995Y3567D02*
D03*
X11995D02*
D03*
X17995Y2414D02*
D03*
X14995D02*
D03*
X15995D02*
D03*
X10995D02*
D03*
X11995D02*
D03*
X16995Y3567D02*
D03*
X12995D02*
D03*
X16995Y2414D02*
D03*
X12995D02*
D03*
X21995Y2414D02*
D03*
Y3567D02*
D03*
X19995Y2414D02*
D03*
X20995D02*
D03*
X23995D02*
D03*
X24995D02*
D03*
X19995Y3567D02*
D03*
X20995D02*
D03*
X23995D02*
D03*
X24995D02*
D03*
X22995Y2414D02*
D03*
X22995Y3567D02*
D03*
D28*
X31259Y13542D02*
D03*
Y13385D02*
D03*
Y13227D02*
D03*
Y13070D02*
D03*
Y12912D02*
D03*
Y12755D02*
D03*
Y12598D02*
D03*
Y12440D02*
D03*
Y12283D02*
D03*
Y12125D02*
D03*
Y11968D02*
D03*
Y11810D02*
D03*
X33641D02*
D03*
Y11968D02*
D03*
Y12125D02*
D03*
Y12283D02*
D03*
Y12440D02*
D03*
Y12598D02*
D03*
Y12755D02*
D03*
Y12912D02*
D03*
Y13070D02*
D03*
Y13227D02*
D03*
Y13385D02*
D03*
Y13542D02*
D03*
D29*
X31584Y11485D02*
D03*
X31741D02*
D03*
X31899D02*
D03*
X32056D02*
D03*
X32214D02*
D03*
X32371D02*
D03*
X32529D02*
D03*
X32686D02*
D03*
X32844D02*
D03*
X33001D02*
D03*
X33159D02*
D03*
X33316D02*
D03*
Y13867D02*
D03*
X33159D02*
D03*
X33001D02*
D03*
X32844D02*
D03*
X32686D02*
D03*
X32529D02*
D03*
X32371D02*
D03*
X32214D02*
D03*
X32056D02*
D03*
X31899D02*
D03*
X31741D02*
D03*
X31584D02*
D03*
D30*
X32450Y12676D02*
D03*
D31*
X6515Y17614D02*
D03*
Y18007D02*
D03*
X16331Y13834D02*
D03*
Y14227D02*
D03*
X15625Y18817D02*
D03*
Y18424D02*
D03*
X5255Y20577D02*
D03*
Y20184D02*
D03*
X4355Y19254D02*
D03*
Y19648D02*
D03*
X32245Y18641D02*
D03*
Y18248D02*
D03*
X34735Y18641D02*
D03*
Y18248D02*
D03*
X34755Y17141D02*
D03*
Y16748D02*
D03*
X32245D02*
D03*
Y17141D02*
D03*
X3715Y20768D02*
D03*
Y20374D02*
D03*
X8324Y7977D02*
D03*
Y7584D02*
D03*
X8699Y7977D02*
D03*
Y7584D02*
D03*
X8571Y12647D02*
D03*
Y12254D02*
D03*
X12919Y7048D02*
D03*
Y7441D02*
D03*
X13509Y7048D02*
D03*
Y7441D02*
D03*
X7455Y14947D02*
D03*
Y14553D02*
D03*
X7456Y13811D02*
D03*
Y14204D02*
D03*
D32*
X15780Y14801D02*
D03*
X16311D02*
D03*
X14556Y15221D02*
D03*
X15087D02*
D03*
X4187Y11401D02*
D03*
X3656D02*
D03*
X3420Y9431D02*
D03*
X3951D02*
D03*
X30084Y13826D02*
D03*
X30616D02*
D03*
D34*
X34837Y12476D02*
D03*
X34463D02*
D03*
D35*
X31700Y14361D02*
D03*
Y14892D02*
D03*
X3465Y10075D02*
D03*
Y10606D02*
D03*
D36*
X31681Y15583D02*
D03*
X31339Y15990D02*
D03*
D37*
X31361Y15303D02*
D03*
X31120Y15589D02*
D03*
D38*
X31220Y18435D02*
D03*
X31770D02*
D03*
X33720D02*
D03*
X34270D02*
D03*
X31220Y16935D02*
D03*
X31770D02*
D03*
X33720D02*
D03*
X34270D02*
D03*
D39*
X1814Y12491D02*
D03*
Y12747D02*
D03*
Y13002D02*
D03*
Y12235D02*
D03*
Y11979D02*
D03*
D40*
X761Y12963D02*
D03*
Y12018D02*
D03*
D41*
X1725Y11231D02*
D03*
Y13750D02*
D03*
D42*
X36040Y12073D02*
D03*
Y12880D02*
D03*
X36788Y12073D02*
D03*
Y12880D02*
D03*
D43*
X35957Y12476D02*
D03*
X36871D02*
D03*
D44*
X26420Y11991D02*
D03*
X24670D02*
D03*
X26420Y12991D02*
D03*
X24670D02*
D03*
X26420Y13991D02*
D03*
X24670D02*
D03*
D45*
X16869Y18225D02*
D03*
Y18481D02*
D03*
Y18737D02*
D03*
X16121D02*
D03*
X16121Y18481D02*
D03*
X16121Y18225D02*
D03*
X4839Y20315D02*
D03*
Y20571D02*
D03*
Y20827D02*
D03*
X4091D02*
D03*
Y20571D02*
D03*
Y20315D02*
D03*
D46*
X4645Y17491D02*
D03*
Y18491D02*
D03*
Y7491D02*
D03*
Y6491D02*
D03*
D47*
X3995Y10621D02*
D03*
Y9873D02*
D03*
X4822Y10247D02*
D03*
D48*
X29087Y2194D02*
D03*
Y3769D02*
D03*
X31744Y2194D02*
D03*
Y3769D02*
D03*
X33487Y2194D02*
D03*
Y3769D02*
D03*
X36144Y2194D02*
D03*
Y3769D02*
D03*
X6937Y2203D02*
D03*
Y3778D02*
D03*
X9594Y2203D02*
D03*
Y3778D02*
D03*
X36144Y8239D02*
D03*
Y6664D02*
D03*
X33487Y8239D02*
D03*
Y6664D02*
D03*
X31744Y8239D02*
D03*
Y6664D02*
D03*
X29087Y8239D02*
D03*
Y6664D02*
D03*
D49*
X8344Y8695D02*
D03*
Y9266D02*
D03*
X8679Y8695D02*
D03*
Y9266D02*
D03*
D50*
X2847Y12217D02*
D03*
X3595D02*
D03*
X2847Y13024D02*
D03*
D51*
X3517D02*
D03*
D52*
X4445Y5431D02*
D03*
Y5942D02*
D03*
Y5687D02*
D03*
X5075Y5431D02*
D03*
Y5687D02*
D03*
Y5942D02*
D03*
D53*
X9501Y15100D02*
D03*
Y15801D02*
D03*
X10441Y15100D02*
D03*
Y15801D02*
D03*
D54*
X9739Y8628D02*
D03*
Y9022D02*
D03*
Y8825D02*
D03*
Y9416D02*
D03*
Y9219D02*
D03*
Y10006D02*
D03*
Y9810D02*
D03*
Y10203D02*
D03*
Y9613D02*
D03*
Y11187D02*
D03*
Y11581D02*
D03*
Y11384D02*
D03*
Y10597D02*
D03*
Y10400D02*
D03*
Y10991D02*
D03*
Y10794D02*
D03*
Y12762D02*
D03*
Y12565D02*
D03*
Y13156D02*
D03*
Y12959D02*
D03*
Y11975D02*
D03*
Y11778D02*
D03*
Y12369D02*
D03*
Y12172D02*
D03*
Y13353D02*
D03*
X15704Y8825D02*
D03*
Y8628D02*
D03*
Y9219D02*
D03*
Y9022D02*
D03*
Y9613D02*
D03*
Y9416D02*
D03*
Y9810D02*
D03*
Y10203D02*
D03*
Y10006D02*
D03*
Y10597D02*
D03*
Y10400D02*
D03*
Y11581D02*
D03*
Y11975D02*
D03*
Y11778D02*
D03*
Y10991D02*
D03*
Y10794D02*
D03*
Y11384D02*
D03*
Y11187D02*
D03*
Y13156D02*
D03*
Y12959D02*
D03*
Y13353D02*
D03*
Y12369D02*
D03*
Y12172D02*
D03*
Y12762D02*
D03*
Y12565D02*
D03*
D55*
X10359Y8008D02*
D03*
X10556D02*
D03*
X11147D02*
D03*
X11343D02*
D03*
X10753D02*
D03*
X10950D02*
D03*
X11934D02*
D03*
X12131D02*
D03*
X11540D02*
D03*
X11737D02*
D03*
X10950Y13973D02*
D03*
X11147D02*
D03*
X10359D02*
D03*
X10753D02*
D03*
X11343D02*
D03*
X11540D02*
D03*
X10556D02*
D03*
X12131D02*
D03*
X12328D02*
D03*
X11737D02*
D03*
X11934D02*
D03*
X14099Y8008D02*
D03*
X13706D02*
D03*
X13903D02*
D03*
X14690D02*
D03*
X14887D02*
D03*
X14296D02*
D03*
X14493D02*
D03*
X12721D02*
D03*
X12328D02*
D03*
X12525D02*
D03*
X13312D02*
D03*
X13509D02*
D03*
X12918D02*
D03*
X13115D02*
D03*
X15084D02*
D03*
X12525Y13973D02*
D03*
X12721D02*
D03*
X12918D02*
D03*
X13115D02*
D03*
X13312D02*
D03*
X13903D02*
D03*
X14099D02*
D03*
X13509D02*
D03*
X13706D02*
D03*
X14690D02*
D03*
X14887D02*
D03*
X14296D02*
D03*
X14493D02*
D03*
X15084D02*
D03*
D56*
X2293Y22501D02*
D03*
Y22001D02*
D03*
Y21501D02*
D03*
Y21001D02*
D03*
Y20501D02*
D03*
X758Y22501D02*
D03*
Y22001D02*
D03*
Y21501D02*
D03*
Y21001D02*
D03*
Y20501D02*
D03*
D57*
X3160Y1778D02*
D03*
X1191D02*
D03*
X2175D02*
D03*
Y3943D02*
D03*
X1191D02*
D03*
X3160D02*
D03*
D58*
X29451Y11821D02*
D03*
Y12805D02*
D03*
D89*
X761Y13790D02*
D03*
Y11191D02*
D03*
D90*
X36649Y20097D02*
D03*
X36807D02*
D03*
X36964D02*
D03*
X37122D02*
D03*
Y19132D02*
D03*
X36964D02*
D03*
X36807D02*
D03*
X36649D02*
D03*
X18468Y17900D02*
D03*
X18310D02*
D03*
X18153D02*
D03*
X17995D02*
D03*
Y18865D02*
D03*
X18153D02*
D03*
X18310D02*
D03*
X18468D02*
D03*
X21531Y17912D02*
D03*
X21373D02*
D03*
X21216D02*
D03*
X21058D02*
D03*
Y18877D02*
D03*
X21216D02*
D03*
X21373D02*
D03*
X21531D02*
D03*
X32828Y4990D02*
D03*
X32671D02*
D03*
X32513D02*
D03*
X32356D02*
D03*
Y5639D02*
D03*
X32513D02*
D03*
X32671D02*
D03*
X32828D02*
D03*
D91*
X37210Y19851D02*
D03*
Y19693D02*
D03*
Y19536D02*
D03*
Y19378D02*
D03*
X36561D02*
D03*
Y19536D02*
D03*
Y19693D02*
D03*
Y19851D02*
D03*
X17907Y18146D02*
D03*
Y18304D02*
D03*
Y18461D02*
D03*
Y18619D02*
D03*
X18556D02*
D03*
Y18461D02*
D03*
Y18304D02*
D03*
Y18146D02*
D03*
X20970Y18158D02*
D03*
Y18316D02*
D03*
Y18473D02*
D03*
Y18631D02*
D03*
X21620D02*
D03*
Y18473D02*
D03*
Y18316D02*
D03*
Y18158D02*
D03*
X33074Y5551D02*
D03*
Y5393D02*
D03*
Y5236D02*
D03*
Y5078D02*
D03*
X32110D02*
D03*
Y5236D02*
D03*
Y5393D02*
D03*
Y5551D02*
D03*
M02*
