G04 Layer_Color=8388736*
%FSLAX24Y24*%
%MOIN*%
G70*
G01*
G75*
%ADD92C,0.0240*%
%ADD93R,0.0257X0.0296*%
%ADD94R,0.0434X0.0395*%
%ADD95R,0.0217X0.0257*%
%ADD96R,0.0296X0.0277*%
%ADD97O,0.0136X0.0305*%
%ADD98O,0.0305X0.0136*%
%ADD99R,0.0296X0.0257*%
%ADD100C,0.0139*%
%ADD101C,0.0454*%
%ADD102R,0.0462X0.0859*%
%ADD103R,0.0359X0.1005*%
%ADD104R,0.0462X0.0922*%
%ADD105O,0.0316X0.0139*%
%ADD106O,0.0139X0.0316*%
%ADD107R,0.1910X0.1910*%
%ADD108R,0.0277X0.0296*%
%ADD109R,0.0355X0.0375*%
%ADD110C,0.0370*%
%ADD111R,0.0316X0.0257*%
%ADD112R,0.0375X0.0355*%
G04:AMPARAMS|DCode=113|XSize=37.5mil|YSize=35.5mil|CornerRadius=0mil|HoleSize=0mil|Usage=FLASHONLY|Rotation=40.000|XOffset=0mil|YOffset=0mil|HoleType=Round|Shape=Rectangle|*
%AMROTATEDRECTD113*
4,1,4,-0.0029,-0.0257,-0.0258,0.0016,0.0029,0.0257,0.0258,-0.0016,-0.0029,-0.0257,0.0*
%
%ADD113ROTATEDRECTD113*%

G04:AMPARAMS|DCode=114|XSize=25.7mil|YSize=31.6mil|CornerRadius=0mil|HoleSize=0mil|Usage=FLASHONLY|Rotation=40.000|XOffset=0mil|YOffset=0mil|HoleType=Round|Shape=Rectangle|*
%AMROTATEDRECTD114*
4,1,4,0.0003,-0.0204,-0.0200,0.0038,-0.0003,0.0204,0.0200,-0.0038,0.0003,-0.0204,0.0*
%
%ADD114ROTATEDRECTD114*%

%ADD115R,0.0360X0.0380*%
%ADD116R,0.0592X0.0217*%
%ADD117R,0.0670X0.0808*%
%ADD118R,0.0611X0.0690*%
%ADD119R,0.0375X0.0355*%
%ADD120R,0.0288X0.0257*%
%ADD121R,0.1560X0.0560*%
%ADD122R,0.0414X0.0198*%
%ADD123R,0.1312X0.0560*%
%ADD124R,0.0460X0.0360*%
%ADD125C,0.0787*%
%ADD126R,0.1143X0.0611*%
%ADD127R,0.0316X0.0395*%
%ADD128R,0.0296X0.0395*%
%ADD129R,0.0454X0.0395*%
%ADD130R,0.0336X0.0178*%
%ADD131R,0.0532X0.0493*%
%ADD132O,0.0710X0.0178*%
%ADD133O,0.0178X0.0710*%
%ADD134R,0.1005X0.0359*%
%ADD135R,0.0532X0.1044*%
%ADD136R,0.0769X0.0454*%
%ADD137C,0.0529*%
%ADD138C,0.0651*%
%ADD139O,0.0690X0.0414*%
%ADD140R,0.0651X0.0651*%
%ADD141C,0.0761*%
%ADD142C,0.1320*%
%ADD143C,0.0300*%
D92*
X19613Y8491D02*
G03*
X19613Y8491I-110J0D01*
G01*
X19591D02*
G03*
X19591Y8491I-110J0D01*
G01*
X19613Y11491D02*
G03*
X19613Y11491I-110J0D01*
G01*
X19591D02*
G03*
X19591Y11491I-110J0D01*
G01*
X18613D02*
G03*
X18613Y11491I-110J0D01*
G01*
X18591D02*
G03*
X18591Y11491I-110J0D01*
G01*
X18613Y8491D02*
G03*
X18613Y8491I-110J0D01*
G01*
X18591D02*
G03*
X18591Y8491I-110J0D01*
G01*
X16564Y6935D02*
G03*
X16564Y6935I-110J0D01*
G01*
X16542D02*
G03*
X16542Y6935I-110J0D01*
G01*
X16554Y6435D02*
G03*
X16554Y6435I-110J0D01*
G01*
X16532D02*
G03*
X16532Y6435I-110J0D01*
G01*
X35728Y17985D02*
G03*
X35728Y17985I-110J0D01*
G01*
X35706D02*
G03*
X35706Y17985I-110J0D01*
G01*
X35728Y18545D02*
G03*
X35728Y18545I-110J0D01*
G01*
X35706D02*
G03*
X35706Y18545I-110J0D01*
G01*
X29065Y17567D02*
G03*
X29065Y17567I-110J0D01*
G01*
X29915D02*
G03*
X29915Y17567I-110J0D01*
G01*
Y17027D02*
G03*
X29915Y17027I-110J0D01*
G01*
Y17049D02*
G03*
X29915Y17049I-110J0D01*
G01*
X29065Y17027D02*
G03*
X29065Y17027I-110J0D01*
G01*
Y17049D02*
G03*
X29065Y17049I-110J0D01*
G01*
X26765Y19383D02*
G03*
X26765Y19383I-110J0D01*
G01*
Y19361D02*
G03*
X26765Y19361I-110J0D01*
G01*
X27265Y19383D02*
G03*
X27265Y19383I-110J0D01*
G01*
Y19361D02*
G03*
X27265Y19361I-110J0D01*
G01*
X27765Y19383D02*
G03*
X27765Y19383I-110J0D01*
G01*
Y19361D02*
G03*
X27765Y19361I-110J0D01*
G01*
X28265Y19383D02*
G03*
X28265Y19383I-110J0D01*
G01*
Y19361D02*
G03*
X28265Y19361I-110J0D01*
G01*
X6483Y5591D02*
G03*
X6483Y5591I-110J0D01*
G01*
Y6091D02*
G03*
X6483Y6091I-110J0D01*
G01*
Y6591D02*
G03*
X6483Y6591I-110J0D01*
G01*
X6015Y17869D02*
G03*
X6015Y17869I-110J0D01*
G01*
Y17847D02*
G03*
X6015Y17847I-110J0D01*
G01*
X35706Y16865D02*
G03*
X35706Y16865I-110J0D01*
G01*
X35728D02*
G03*
X35728Y16865I-110J0D01*
G01*
X35706Y17425D02*
G03*
X35706Y17425I-110J0D01*
G01*
X35728D02*
G03*
X35728Y17425I-110J0D01*
G01*
X21635Y10833D02*
G03*
X21635Y10833I-110J0D01*
G01*
X27287Y14815D02*
G03*
X27287Y14815I-110J0D01*
G01*
X27293Y15335D02*
G03*
X27293Y15335I-110J0D01*
G01*
X27271D02*
G03*
X27271Y15335I-110J0D01*
G01*
D93*
X33670Y14289D02*
D03*
Y14683D02*
D03*
X9091Y11927D02*
D03*
Y11534D02*
D03*
X35195Y12478D02*
D03*
Y12084D02*
D03*
X10881Y15627D02*
D03*
Y15234D02*
D03*
X16511Y9954D02*
D03*
Y10347D02*
D03*
X16481Y12657D02*
D03*
Y12264D02*
D03*
X16331Y13064D02*
D03*
Y13457D02*
D03*
X9061Y15657D02*
D03*
Y15264D02*
D03*
X34100Y12873D02*
D03*
Y12479D02*
D03*
X35400Y14683D02*
D03*
Y14289D02*
D03*
X30011Y12446D02*
D03*
Y12840D02*
D03*
X37184Y12993D02*
D03*
Y12599D02*
D03*
X13551Y14804D02*
D03*
Y15197D02*
D03*
X8221Y12647D02*
D03*
Y12254D02*
D03*
X9091Y12647D02*
D03*
Y12254D02*
D03*
X11931Y7437D02*
D03*
Y7044D02*
D03*
X14495Y7437D02*
D03*
Y7044D02*
D03*
X34000Y14289D02*
D03*
Y14683D02*
D03*
X33522Y5288D02*
D03*
Y5681D02*
D03*
D94*
X34985Y14260D02*
D03*
Y14713D02*
D03*
X34415D02*
D03*
Y14260D02*
D03*
D95*
X23353Y16645D02*
D03*
X23904D02*
D03*
X22303Y15522D02*
D03*
X22854D02*
D03*
X20583D02*
D03*
X21134D02*
D03*
X20582Y16612D02*
D03*
X21133D02*
D03*
D96*
X27221Y9981D02*
D03*
X26827D02*
D03*
X27567D02*
D03*
X27961D02*
D03*
X27567Y9681D02*
D03*
X27961D02*
D03*
X27221D02*
D03*
X26827D02*
D03*
X19765Y18952D02*
D03*
X20158D02*
D03*
X19765Y18602D02*
D03*
X20158D02*
D03*
X21705Y17132D02*
D03*
X22099D02*
D03*
X21312D02*
D03*
X21705D02*
D03*
X23833Y16272D02*
D03*
X23439D02*
D03*
X22775Y15159D02*
D03*
X22382D02*
D03*
X21043Y15152D02*
D03*
X20649D02*
D03*
X22248Y19261D02*
D03*
X22642D02*
D03*
X22248Y18841D02*
D03*
X22642D02*
D03*
X22248Y18421D02*
D03*
X22642D02*
D03*
X22248Y17581D02*
D03*
X22642D02*
D03*
X21052Y16242D02*
D03*
X20658D02*
D03*
X22248Y18001D02*
D03*
X22642D02*
D03*
X15722Y7361D02*
D03*
X15329D02*
D03*
X16585Y11791D02*
D03*
X16978D02*
D03*
X16871Y16591D02*
D03*
X16477D02*
D03*
X16871Y17011D02*
D03*
X16477D02*
D03*
X16871Y16171D02*
D03*
X16477D02*
D03*
X16871Y17381D02*
D03*
X16477D02*
D03*
X1211Y10581D02*
D03*
X817D02*
D03*
X19765Y18252D02*
D03*
X20158D02*
D03*
X24588Y14985D02*
D03*
X24982D02*
D03*
D97*
X36649Y20097D02*
D03*
X36807D02*
D03*
X36964D02*
D03*
X37122D02*
D03*
Y19132D02*
D03*
X36964D02*
D03*
X36807D02*
D03*
X36649D02*
D03*
X18468Y17900D02*
D03*
X18310D02*
D03*
X18153D02*
D03*
X17995D02*
D03*
Y18865D02*
D03*
X18153D02*
D03*
X18310D02*
D03*
X18468D02*
D03*
X21531Y17912D02*
D03*
X21373D02*
D03*
X21216D02*
D03*
X21058D02*
D03*
Y18877D02*
D03*
X21216D02*
D03*
X21373D02*
D03*
X21531D02*
D03*
X32828Y4990D02*
D03*
X32671D02*
D03*
X32513D02*
D03*
X32356D02*
D03*
Y5639D02*
D03*
X32513D02*
D03*
X32671D02*
D03*
X32828D02*
D03*
D98*
X37210Y19851D02*
D03*
Y19693D02*
D03*
Y19536D02*
D03*
Y19378D02*
D03*
X36561D02*
D03*
Y19536D02*
D03*
Y19693D02*
D03*
Y19851D02*
D03*
X17907Y18146D02*
D03*
Y18304D02*
D03*
Y18461D02*
D03*
Y18619D02*
D03*
X18556D02*
D03*
Y18461D02*
D03*
Y18304D02*
D03*
Y18146D02*
D03*
X20970Y18158D02*
D03*
Y18316D02*
D03*
Y18473D02*
D03*
Y18631D02*
D03*
X21620D02*
D03*
Y18473D02*
D03*
Y18316D02*
D03*
Y18158D02*
D03*
X33074Y5551D02*
D03*
Y5393D02*
D03*
Y5236D02*
D03*
Y5078D02*
D03*
X32110D02*
D03*
Y5236D02*
D03*
Y5393D02*
D03*
Y5551D02*
D03*
D99*
X18185Y17452D02*
D03*
X17792D02*
D03*
X21262Y17472D02*
D03*
X20868D02*
D03*
X23833Y15932D02*
D03*
X23439D02*
D03*
X22382Y14819D02*
D03*
X22775D02*
D03*
X20649Y14812D02*
D03*
X21043D02*
D03*
X21052Y15902D02*
D03*
X20658D02*
D03*
X27808Y9345D02*
D03*
X28202D02*
D03*
X10675Y14571D02*
D03*
X11068D02*
D03*
X16545Y10731D02*
D03*
X16938D02*
D03*
X10355Y7431D02*
D03*
X10748D02*
D03*
X8715Y10411D02*
D03*
X9108D02*
D03*
X8685Y11211D02*
D03*
X9078D02*
D03*
X1211Y10231D02*
D03*
X817D02*
D03*
X31527Y11066D02*
D03*
X31133D02*
D03*
X29255Y11403D02*
D03*
X29648D02*
D03*
X12795Y14741D02*
D03*
X13188D02*
D03*
X3615Y11801D02*
D03*
X4008D02*
D03*
X14735Y14821D02*
D03*
X15128D02*
D03*
X3589Y9011D02*
D03*
X3982D02*
D03*
X30547Y13426D02*
D03*
X30153D02*
D03*
X34313Y13686D02*
D03*
X34707D02*
D03*
X34313Y13356D02*
D03*
X34707D02*
D03*
X26628Y9345D02*
D03*
X27022D02*
D03*
X36962Y20535D02*
D03*
X36569D02*
D03*
D100*
X19625Y8491D02*
D03*
X19359D02*
D03*
X19625Y11491D02*
D03*
X19359D02*
D03*
X18625D02*
D03*
X18359D02*
D03*
X18625Y8491D02*
D03*
X18359D02*
D03*
X16576Y6935D02*
D03*
X16310D02*
D03*
X16566Y6435D02*
D03*
X16300D02*
D03*
X35740Y17985D02*
D03*
X35474D02*
D03*
X35740Y18545D02*
D03*
X35474D02*
D03*
X28955Y17445D02*
D03*
Y17691D02*
D03*
X29805Y17445D02*
D03*
Y17691D02*
D03*
Y16905D02*
D03*
Y17171D02*
D03*
X28955Y16905D02*
D03*
Y17171D02*
D03*
X26655Y19505D02*
D03*
Y19239D02*
D03*
X27155Y19505D02*
D03*
Y19239D02*
D03*
X27655Y19505D02*
D03*
Y19239D02*
D03*
X28155Y19505D02*
D03*
Y19239D02*
D03*
X6249Y5591D02*
D03*
X6495D02*
D03*
X6249Y6091D02*
D03*
X6495D02*
D03*
X6249Y6591D02*
D03*
X6495D02*
D03*
X5905Y17991D02*
D03*
Y17725D02*
D03*
X35474Y16865D02*
D03*
X35740D02*
D03*
X35474Y17425D02*
D03*
X35740D02*
D03*
X21525Y10955D02*
D03*
Y10709D02*
D03*
X27301Y14815D02*
D03*
X27055D02*
D03*
X27305Y15335D02*
D03*
X27039D02*
D03*
D101*
X20495Y9491D02*
D03*
X21495Y6491D02*
D03*
X6995Y7241D02*
D03*
X21495Y7491D02*
D03*
Y8491D02*
D03*
X19495Y10491D02*
D03*
Y9491D02*
D03*
X18495Y10491D02*
D03*
Y9491D02*
D03*
X3995Y14991D02*
D03*
Y13991D02*
D03*
X4995Y12991D02*
D03*
Y12241D02*
D03*
D102*
X27813Y8735D02*
D03*
X27025D02*
D03*
D103*
X23115Y8960D02*
D03*
X23615D02*
D03*
X24115D02*
D03*
X24615D02*
D03*
X25115D02*
D03*
X23115Y7425D02*
D03*
X23615D02*
D03*
X24115D02*
D03*
X24615D02*
D03*
X25115D02*
D03*
D104*
X7395Y17414D02*
D03*
Y18567D02*
D03*
X11395D02*
D03*
Y17414D02*
D03*
X12395Y18567D02*
D03*
Y17414D02*
D03*
X10395Y18567D02*
D03*
Y17414D02*
D03*
X9395Y18567D02*
D03*
Y17414D02*
D03*
X8395D02*
D03*
Y18567D02*
D03*
X14395Y17414D02*
D03*
Y18567D02*
D03*
X13395Y17414D02*
D03*
Y18567D02*
D03*
X26995Y21414D02*
D03*
Y22567D02*
D03*
X32995D02*
D03*
X28995D02*
D03*
X32995Y21414D02*
D03*
X28995D02*
D03*
X33995Y22567D02*
D03*
X34995D02*
D03*
X29995D02*
D03*
X30995D02*
D03*
X27995D02*
D03*
X33995Y21414D02*
D03*
X34995D02*
D03*
X29995Y21414D02*
D03*
X30995Y21414D02*
D03*
X27995D02*
D03*
X31995Y22567D02*
D03*
Y21414D02*
D03*
X21995Y21414D02*
D03*
Y22567D02*
D03*
X17995Y21414D02*
D03*
X20995D02*
D03*
X19995Y21414D02*
D03*
X24995Y21414D02*
D03*
X23995D02*
D03*
X17995Y22567D02*
D03*
X20995D02*
D03*
X19995D02*
D03*
X24995D02*
D03*
X23995D02*
D03*
X18995Y21414D02*
D03*
X22995D02*
D03*
X18995Y22567D02*
D03*
X22995D02*
D03*
X7395Y21414D02*
D03*
X13395D02*
D03*
X7395Y22567D02*
D03*
X13395D02*
D03*
X8395Y21414D02*
D03*
X9395Y21414D02*
D03*
X11395D02*
D03*
X12395D02*
D03*
X15395D02*
D03*
X16395D02*
D03*
X8395Y22567D02*
D03*
X9395D02*
D03*
X11395D02*
D03*
X12395D02*
D03*
X15395D02*
D03*
X16395D02*
D03*
X10395Y21414D02*
D03*
X14395Y21414D02*
D03*
X10395Y22567D02*
D03*
X14395D02*
D03*
X13995Y3567D02*
D03*
Y2414D02*
D03*
X17995Y3567D02*
D03*
X14995D02*
D03*
X15995Y3567D02*
D03*
X10995Y3567D02*
D03*
X11995D02*
D03*
X17995Y2414D02*
D03*
X14995D02*
D03*
X15995D02*
D03*
X10995D02*
D03*
X11995D02*
D03*
X16995Y3567D02*
D03*
X12995D02*
D03*
X16995Y2414D02*
D03*
X12995D02*
D03*
X21995Y2414D02*
D03*
Y3567D02*
D03*
X19995Y2414D02*
D03*
X20995D02*
D03*
X23995D02*
D03*
X24995D02*
D03*
X19995Y3567D02*
D03*
X20995D02*
D03*
X23995D02*
D03*
X24995D02*
D03*
X22995Y2414D02*
D03*
X22995Y3567D02*
D03*
D105*
X31259Y13542D02*
D03*
Y13385D02*
D03*
Y13227D02*
D03*
Y13070D02*
D03*
Y12912D02*
D03*
Y12755D02*
D03*
Y12598D02*
D03*
Y12440D02*
D03*
Y12283D02*
D03*
Y12125D02*
D03*
Y11968D02*
D03*
Y11810D02*
D03*
X33641D02*
D03*
Y11968D02*
D03*
Y12125D02*
D03*
Y12283D02*
D03*
Y12440D02*
D03*
Y12598D02*
D03*
Y12755D02*
D03*
Y12912D02*
D03*
Y13070D02*
D03*
Y13227D02*
D03*
Y13385D02*
D03*
Y13542D02*
D03*
D106*
X31584Y11485D02*
D03*
X31741D02*
D03*
X31899D02*
D03*
X32056D02*
D03*
X32214D02*
D03*
X32371D02*
D03*
X32529D02*
D03*
X32686D02*
D03*
X32844D02*
D03*
X33001D02*
D03*
X33159D02*
D03*
X33316D02*
D03*
Y13867D02*
D03*
X33159D02*
D03*
X33001D02*
D03*
X32844D02*
D03*
X32686D02*
D03*
X32529D02*
D03*
X32371D02*
D03*
X32214D02*
D03*
X32056D02*
D03*
X31899D02*
D03*
X31741D02*
D03*
X31584D02*
D03*
D107*
X32450Y12676D02*
D03*
D108*
X6515Y17614D02*
D03*
Y18007D02*
D03*
X16331Y13834D02*
D03*
Y14227D02*
D03*
X15625Y18817D02*
D03*
Y18424D02*
D03*
X5255Y20577D02*
D03*
Y20184D02*
D03*
X4355Y19254D02*
D03*
Y19648D02*
D03*
X32245Y18641D02*
D03*
Y18248D02*
D03*
X34735Y18641D02*
D03*
Y18248D02*
D03*
X34755Y17141D02*
D03*
Y16748D02*
D03*
X32245D02*
D03*
Y17141D02*
D03*
X3715Y20768D02*
D03*
Y20374D02*
D03*
X8324Y7977D02*
D03*
Y7584D02*
D03*
X8699Y7977D02*
D03*
Y7584D02*
D03*
X8571Y12647D02*
D03*
Y12254D02*
D03*
X12919Y7048D02*
D03*
Y7441D02*
D03*
X13509Y7048D02*
D03*
Y7441D02*
D03*
X7455Y14947D02*
D03*
Y14553D02*
D03*
X7456Y13811D02*
D03*
Y14204D02*
D03*
D109*
X15780Y14801D02*
D03*
X16311D02*
D03*
X14556Y15221D02*
D03*
X15087D02*
D03*
X4187Y11401D02*
D03*
X3656D02*
D03*
X3420Y9431D02*
D03*
X3951D02*
D03*
X30084Y13826D02*
D03*
X30616D02*
D03*
D110*
X19245Y14991D02*
D03*
Y13491D02*
D03*
Y13991D02*
D03*
Y12991D02*
D03*
X18745Y14991D02*
D03*
X19245Y14491D02*
D03*
X18745D02*
D03*
Y13991D02*
D03*
Y12991D02*
D03*
Y13491D02*
D03*
D111*
X34837Y12476D02*
D03*
X34463D02*
D03*
D112*
X31700Y14361D02*
D03*
Y14892D02*
D03*
X3465Y10075D02*
D03*
Y10606D02*
D03*
D113*
X31681Y15583D02*
D03*
X31339Y15990D02*
D03*
D114*
X31361Y15303D02*
D03*
X31120Y15589D02*
D03*
D115*
X31220Y18435D02*
D03*
X31770D02*
D03*
X33720D02*
D03*
X34270D02*
D03*
X31220Y16935D02*
D03*
X31770D02*
D03*
X33720D02*
D03*
X34270D02*
D03*
D116*
X1814Y12491D02*
D03*
Y12747D02*
D03*
Y13002D02*
D03*
Y12235D02*
D03*
Y11979D02*
D03*
D117*
X761Y12963D02*
D03*
Y12018D02*
D03*
D118*
X1725Y11231D02*
D03*
Y13750D02*
D03*
D119*
X36040Y12073D02*
D03*
Y12880D02*
D03*
X36788Y12073D02*
D03*
Y12880D02*
D03*
D120*
X35957Y12476D02*
D03*
X36871D02*
D03*
D121*
X26420Y11991D02*
D03*
X24670D02*
D03*
X26420Y12991D02*
D03*
X24670D02*
D03*
X26420Y13991D02*
D03*
X24670D02*
D03*
D122*
X16869Y18225D02*
D03*
Y18481D02*
D03*
Y18737D02*
D03*
X16121D02*
D03*
X16121Y18481D02*
D03*
X16121Y18225D02*
D03*
X4839Y20315D02*
D03*
Y20571D02*
D03*
Y20827D02*
D03*
X4091D02*
D03*
Y20571D02*
D03*
Y20315D02*
D03*
D123*
X4645Y17491D02*
D03*
Y18491D02*
D03*
Y7491D02*
D03*
Y6491D02*
D03*
D124*
X3995Y10621D02*
D03*
Y9873D02*
D03*
X4822Y10247D02*
D03*
D125*
X37968Y23591D02*
D03*
X4575Y1305D02*
D03*
D126*
X29087Y2194D02*
D03*
Y3769D02*
D03*
X31744Y2194D02*
D03*
Y3769D02*
D03*
X33487Y2194D02*
D03*
Y3769D02*
D03*
X36144Y2194D02*
D03*
Y3769D02*
D03*
X6937Y2203D02*
D03*
Y3778D02*
D03*
X9594Y2203D02*
D03*
Y3778D02*
D03*
X36144Y8239D02*
D03*
Y6664D02*
D03*
X33487Y8239D02*
D03*
Y6664D02*
D03*
X31744Y8239D02*
D03*
Y6664D02*
D03*
X29087Y8239D02*
D03*
Y6664D02*
D03*
D127*
X8344Y8695D02*
D03*
Y9266D02*
D03*
X8679Y8695D02*
D03*
Y9266D02*
D03*
D128*
X2847Y12217D02*
D03*
X3595D02*
D03*
X2847Y13024D02*
D03*
D129*
X3517D02*
D03*
D130*
X4445Y5431D02*
D03*
Y5942D02*
D03*
Y5687D02*
D03*
X5075Y5431D02*
D03*
Y5687D02*
D03*
Y5942D02*
D03*
D131*
X9501Y15100D02*
D03*
Y15801D02*
D03*
X10441Y15100D02*
D03*
Y15801D02*
D03*
D132*
X9739Y8628D02*
D03*
Y9022D02*
D03*
Y8825D02*
D03*
Y9416D02*
D03*
Y9219D02*
D03*
Y10006D02*
D03*
Y9810D02*
D03*
Y10203D02*
D03*
Y9613D02*
D03*
Y11187D02*
D03*
Y11581D02*
D03*
Y11384D02*
D03*
Y10597D02*
D03*
Y10400D02*
D03*
Y10991D02*
D03*
Y10794D02*
D03*
Y12762D02*
D03*
Y12565D02*
D03*
Y13156D02*
D03*
Y12959D02*
D03*
Y11975D02*
D03*
Y11778D02*
D03*
Y12369D02*
D03*
Y12172D02*
D03*
Y13353D02*
D03*
X15704Y8825D02*
D03*
Y8628D02*
D03*
Y9219D02*
D03*
Y9022D02*
D03*
Y9613D02*
D03*
Y9416D02*
D03*
Y9810D02*
D03*
Y10203D02*
D03*
Y10006D02*
D03*
Y10597D02*
D03*
Y10400D02*
D03*
Y11581D02*
D03*
Y11975D02*
D03*
Y11778D02*
D03*
Y10991D02*
D03*
Y10794D02*
D03*
Y11384D02*
D03*
Y11187D02*
D03*
Y13156D02*
D03*
Y12959D02*
D03*
Y13353D02*
D03*
Y12369D02*
D03*
Y12172D02*
D03*
Y12762D02*
D03*
Y12565D02*
D03*
D133*
X10359Y8008D02*
D03*
X10556D02*
D03*
X11147D02*
D03*
X11343D02*
D03*
X10753D02*
D03*
X10950D02*
D03*
X11934D02*
D03*
X12131D02*
D03*
X11540D02*
D03*
X11737D02*
D03*
X10950Y13973D02*
D03*
X11147D02*
D03*
X10359D02*
D03*
X10753D02*
D03*
X11343D02*
D03*
X11540D02*
D03*
X10556D02*
D03*
X12131D02*
D03*
X12328D02*
D03*
X11737D02*
D03*
X11934D02*
D03*
X14099Y8008D02*
D03*
X13706D02*
D03*
X13903D02*
D03*
X14690D02*
D03*
X14887D02*
D03*
X14296D02*
D03*
X14493D02*
D03*
X12721D02*
D03*
X12328D02*
D03*
X12525D02*
D03*
X13312D02*
D03*
X13509D02*
D03*
X12918D02*
D03*
X13115D02*
D03*
X15084D02*
D03*
X12525Y13973D02*
D03*
X12721D02*
D03*
X12918D02*
D03*
X13115D02*
D03*
X13312D02*
D03*
X13903D02*
D03*
X14099D02*
D03*
X13509D02*
D03*
X13706D02*
D03*
X14690D02*
D03*
X14887D02*
D03*
X14296D02*
D03*
X14493D02*
D03*
X15084D02*
D03*
D134*
X2293Y22501D02*
D03*
Y22001D02*
D03*
Y21501D02*
D03*
Y21001D02*
D03*
Y20501D02*
D03*
X758Y22501D02*
D03*
Y22001D02*
D03*
Y21501D02*
D03*
Y21001D02*
D03*
Y20501D02*
D03*
D135*
X3160Y1778D02*
D03*
X1191D02*
D03*
X2175D02*
D03*
Y3943D02*
D03*
X1191D02*
D03*
X3160D02*
D03*
D136*
X29451Y11821D02*
D03*
Y12805D02*
D03*
D137*
X27419Y7485D02*
D03*
D138*
X1525Y24301D02*
D03*
X26975Y3051D02*
D03*
X27995Y24491D02*
D03*
Y23491D02*
D03*
X30995D02*
D03*
Y24491D02*
D03*
X32995Y23491D02*
D03*
Y24491D02*
D03*
X33995Y23491D02*
D03*
Y24491D02*
D03*
X34995Y23491D02*
D03*
X31995Y24491D02*
D03*
Y23491D02*
D03*
X29995Y24491D02*
D03*
Y23491D02*
D03*
X28995D02*
D03*
Y24491D02*
D03*
X26995D02*
D03*
Y23491D02*
D03*
X24995Y1491D02*
D03*
Y491D02*
D03*
X22995Y1491D02*
D03*
Y491D02*
D03*
X19995Y1491D02*
D03*
X20995Y491D02*
D03*
Y1491D02*
D03*
X21995Y491D02*
D03*
Y1491D02*
D03*
X23995Y491D02*
D03*
Y1491D02*
D03*
X17995Y491D02*
D03*
Y1491D02*
D03*
X14995D02*
D03*
Y491D02*
D03*
X12995Y1491D02*
D03*
Y491D02*
D03*
X11995Y1491D02*
D03*
Y491D02*
D03*
X10995Y1491D02*
D03*
X13995Y491D02*
D03*
Y1491D02*
D03*
X15995Y491D02*
D03*
Y1491D02*
D03*
X16995D02*
D03*
Y491D02*
D03*
X17995Y24491D02*
D03*
Y23491D02*
D03*
X20995D02*
D03*
Y24491D02*
D03*
X22995Y23491D02*
D03*
Y24491D02*
D03*
X23995Y23491D02*
D03*
Y24491D02*
D03*
X24995Y23491D02*
D03*
X21995Y24491D02*
D03*
Y23491D02*
D03*
X19995Y24491D02*
D03*
Y23491D02*
D03*
X18995D02*
D03*
Y24491D02*
D03*
X7395D02*
D03*
Y23491D02*
D03*
X8395D02*
D03*
Y24491D02*
D03*
X10395D02*
D03*
Y23491D02*
D03*
X11395D02*
D03*
Y24491D02*
D03*
X13395Y23491D02*
D03*
Y24491D02*
D03*
X16395Y23491D02*
D03*
X15395Y24491D02*
D03*
Y23491D02*
D03*
X14395Y24491D02*
D03*
Y23491D02*
D03*
X12395Y24491D02*
D03*
Y23491D02*
D03*
X9395D02*
D03*
Y24491D02*
D03*
D139*
X761Y11191D02*
D03*
Y13790D02*
D03*
D140*
X34995Y24491D02*
D03*
X19995Y491D02*
D03*
X10995D02*
D03*
X24995Y24491D02*
D03*
X16395D02*
D03*
D141*
X2875Y17991D02*
D03*
Y6991D02*
D03*
D142*
X25995Y4991D02*
D03*
Y15991D02*
D03*
X5495Y2991D02*
D03*
X5995Y21991D02*
D03*
X37995Y2991D02*
D03*
D143*
X3365Y15425D02*
D03*
X5235Y15435D02*
D03*
X2495Y14865D02*
D03*
X2785Y13545D02*
D03*
X2505Y11255D02*
D03*
X1355Y11835D02*
D03*
Y12745D02*
D03*
X4321Y11786D02*
D03*
X6345Y15275D02*
D03*
X6495Y12491D02*
D03*
X3695Y13495D02*
D03*
X5291Y11661D02*
D03*
X7911Y12231D02*
D03*
X6495Y10491D02*
D03*
X2385Y11860D02*
D03*
X4541Y11391D02*
D03*
X4495Y14491D02*
D03*
X3095Y9421D02*
D03*
X3135Y10061D02*
D03*
X4405Y10241D02*
D03*
X5245Y10231D02*
D03*
M02*
