G04 Layer_Color=16711935*
%FSLAX24Y24*%
%MOIN*%
G70*
G01*
G75*
%ADD104R,0.0462X0.0922*%
%ADD125C,0.0787*%
%ADD137C,0.0529*%
%ADD138C,0.0651*%
%ADD139O,0.0690X0.0414*%
%ADD140R,0.0651X0.0651*%
%ADD141C,0.0761*%
%ADD142C,0.1320*%
%ADD143C,0.0300*%
%ADD144C,0.7087*%
%ADD145R,0.0934X0.0462*%
%ADD146R,0.2060X0.2060*%
G04:AMPARAMS|DCode=147|XSize=399.7mil|YSize=399.7mil|CornerRadius=101.4mil|HoleSize=0mil|Usage=FLASHONLY|Rotation=270.000|XOffset=0mil|YOffset=0mil|HoleType=Round|Shape=RoundedRectangle|*
%AMROUNDEDRECTD147*
21,1,0.3997,0.1969,0,0,270.0*
21,1,0.1969,0.3997,0,0,270.0*
1,1,0.2029,-0.0984,-0.0984*
1,1,0.2029,-0.0984,0.0984*
1,1,0.2029,0.0984,0.0984*
1,1,0.2029,0.0984,-0.0984*
%
%ADD147ROUNDEDRECTD147*%
D104*
X26995Y22567D02*
D03*
Y21414D02*
D03*
X34995D02*
D03*
Y22567D02*
D03*
X30995D02*
D03*
Y21414D02*
D03*
X29995Y22567D02*
D03*
Y21414D02*
D03*
X31995Y22567D02*
D03*
Y21414D02*
D03*
X32995Y22567D02*
D03*
Y21414D02*
D03*
X33995D02*
D03*
Y22567D02*
D03*
X27995Y21414D02*
D03*
Y22567D02*
D03*
X28995Y21414D02*
D03*
Y22567D02*
D03*
X10995Y3567D02*
D03*
Y2414D02*
D03*
X14995D02*
D03*
Y3567D02*
D03*
X15995Y2414D02*
D03*
Y3567D02*
D03*
X13995Y2414D02*
D03*
Y3567D02*
D03*
X12995Y2414D02*
D03*
Y3567D02*
D03*
X11995D02*
D03*
Y2414D02*
D03*
X17995Y3567D02*
D03*
Y2414D02*
D03*
X16995Y3567D02*
D03*
Y2414D02*
D03*
X24995Y21414D02*
D03*
Y22567D02*
D03*
X20995D02*
D03*
Y21414D02*
D03*
X19995Y22567D02*
D03*
Y21414D02*
D03*
X21995Y22567D02*
D03*
Y21414D02*
D03*
X22995Y22567D02*
D03*
Y21414D02*
D03*
X23995D02*
D03*
Y22567D02*
D03*
X17995Y21414D02*
D03*
Y22567D02*
D03*
X18995Y21414D02*
D03*
Y22567D02*
D03*
X8395D02*
D03*
Y21414D02*
D03*
X7395Y22567D02*
D03*
Y21414D02*
D03*
X16395D02*
D03*
Y22567D02*
D03*
X12395D02*
D03*
Y21414D02*
D03*
X11395Y22567D02*
D03*
Y21414D02*
D03*
X13395Y22567D02*
D03*
Y21414D02*
D03*
X14395Y22567D02*
D03*
Y21414D02*
D03*
X15395D02*
D03*
Y22567D02*
D03*
X9395Y21414D02*
D03*
Y22567D02*
D03*
X10395Y21414D02*
D03*
Y22567D02*
D03*
X20995Y2414D02*
D03*
Y3567D02*
D03*
X21995D02*
D03*
Y2414D02*
D03*
X22995Y3567D02*
D03*
Y2414D02*
D03*
X24995Y3567D02*
D03*
Y2414D02*
D03*
X23995Y3567D02*
D03*
Y2414D02*
D03*
X19995D02*
D03*
Y3567D02*
D03*
D125*
X37968Y23591D02*
D03*
X4575Y1305D02*
D03*
D137*
X27419Y7485D02*
D03*
D138*
X1525Y24301D02*
D03*
X26975Y3051D02*
D03*
X27995Y24491D02*
D03*
Y23491D02*
D03*
X30995D02*
D03*
Y24491D02*
D03*
X32995Y23491D02*
D03*
Y24491D02*
D03*
X33995Y23491D02*
D03*
Y24491D02*
D03*
X34995Y23491D02*
D03*
X31995Y24491D02*
D03*
Y23491D02*
D03*
X29995Y24491D02*
D03*
Y23491D02*
D03*
X28995D02*
D03*
Y24491D02*
D03*
X26995D02*
D03*
Y23491D02*
D03*
X24995Y1491D02*
D03*
Y491D02*
D03*
X22995Y1491D02*
D03*
Y491D02*
D03*
X19995Y1491D02*
D03*
X20995Y491D02*
D03*
Y1491D02*
D03*
X21995Y491D02*
D03*
Y1491D02*
D03*
X23995Y491D02*
D03*
Y1491D02*
D03*
X17995Y491D02*
D03*
Y1491D02*
D03*
X14995D02*
D03*
Y491D02*
D03*
X12995Y1491D02*
D03*
Y491D02*
D03*
X11995Y1491D02*
D03*
Y491D02*
D03*
X10995Y1491D02*
D03*
X13995Y491D02*
D03*
Y1491D02*
D03*
X15995Y491D02*
D03*
Y1491D02*
D03*
X16995D02*
D03*
Y491D02*
D03*
X17995Y24491D02*
D03*
Y23491D02*
D03*
X20995D02*
D03*
Y24491D02*
D03*
X22995Y23491D02*
D03*
Y24491D02*
D03*
X23995Y23491D02*
D03*
Y24491D02*
D03*
X24995Y23491D02*
D03*
X21995Y24491D02*
D03*
Y23491D02*
D03*
X19995Y24491D02*
D03*
Y23491D02*
D03*
X18995D02*
D03*
Y24491D02*
D03*
X7395D02*
D03*
Y23491D02*
D03*
X8395D02*
D03*
Y24491D02*
D03*
X10395D02*
D03*
Y23491D02*
D03*
X11395D02*
D03*
Y24491D02*
D03*
X13395Y23491D02*
D03*
Y24491D02*
D03*
X16395Y23491D02*
D03*
X15395Y24491D02*
D03*
Y23491D02*
D03*
X14395Y24491D02*
D03*
Y23491D02*
D03*
X12395Y24491D02*
D03*
Y23491D02*
D03*
X9395D02*
D03*
Y24491D02*
D03*
D139*
X761Y11191D02*
D03*
Y13790D02*
D03*
D140*
X34995Y24491D02*
D03*
X19995Y491D02*
D03*
X10995D02*
D03*
X24995Y24491D02*
D03*
X16395D02*
D03*
D141*
X2875Y17991D02*
D03*
Y6991D02*
D03*
D142*
X25995Y4991D02*
D03*
Y15991D02*
D03*
X5495Y2991D02*
D03*
X5995Y21991D02*
D03*
X37995Y2991D02*
D03*
D143*
X3365Y15425D02*
D03*
X5235Y15435D02*
D03*
X2495Y14865D02*
D03*
X2785Y13545D02*
D03*
X2505Y11255D02*
D03*
X1355Y11835D02*
D03*
Y12745D02*
D03*
X4321Y11786D02*
D03*
X6345Y15275D02*
D03*
X6495Y12491D02*
D03*
X3695Y13495D02*
D03*
X5291Y11661D02*
D03*
X7911Y12231D02*
D03*
X6495Y10491D02*
D03*
X2385Y11860D02*
D03*
X4541Y11391D02*
D03*
X4495Y14491D02*
D03*
X3095Y9421D02*
D03*
X3135Y10061D02*
D03*
X4405Y10241D02*
D03*
X5245Y10231D02*
D03*
D144*
X4495Y12485D02*
D03*
D145*
X24433Y11991D02*
D03*
X26658D02*
D03*
X24433Y12991D02*
D03*
Y13991D02*
D03*
X26658Y12991D02*
D03*
Y13991D02*
D03*
D146*
X4495Y7335D02*
D03*
Y17635D02*
D03*
D147*
Y12485D02*
D03*
M02*
