M48
;GenerationSoftware,Autodesk,EAGLE,9.3.0*%
;CreationDate,2019-04-25T17:37:48Z*%
FMAT,2
ICI,OFF
METRIC,TZ,000.000
T5C0.254
T4C0.508
T3C0.700
T2C0.762
T1C2.540
%
G90
M71
T1
X2540Y26670
X22860Y26670
T2
X12873Y28321
X12873Y27305
X12873Y26289
X12873Y25273
X12873Y1397
X12873Y24257
X12873Y381
T3
X7729Y6563
X6912Y7536
X6096Y8509
X5354Y9962
X5090Y11204
X4826Y12446
X17145Y6205
X18043Y7103
X18941Y8001
X6713Y17762
X7611Y18660
X8509Y19558
X18941Y17762
X18043Y18660
X17145Y19558
T4
X22078Y12793
X3668Y14859
X3541Y14097
X3541Y11049
X3414Y13335
X3414Y11811
X3668Y10287
X3414Y12573
X21951Y11269
X21825Y10507
X21951Y14317
X22078Y12031
X22078Y13555
X21825Y15079
T5
X10160Y9906
X9144Y17272
X15144Y16637
X15875Y11303
X17749Y15113
X18720Y14420
X19431Y14097
X18288Y12446
X16584Y11697
X15938Y7874
X15938Y5588
X15938Y6350
X9335Y7874
X15938Y7112
X10160Y9144
X9779Y8509
X10033Y18161
X17478Y16564
X16129Y8509
X9779Y16637
X8382Y12509
X16256Y13270
X13144Y17018
X8382Y15494
X9271Y10414
X11313Y10414
X20828Y12319
X14711Y8509
X18288Y13271
X14986Y18669
X15367Y17399
X10033Y19685
X11303Y8489
X7747Y9398
X9398Y7112
X12700Y13445
X6694Y13776
X5244Y15016
M30