M48
INCH,TZ
%
T10C0.010
X2501Y2826
X2212Y3182
X2407Y3377
X2642Y3582
X3079Y3419
X3558Y2993
X3779Y3539
X4121Y2974
X4437Y2974
X4679Y3359
X4999Y3319
X5359Y2579
X5842Y2599
X5879Y3299
X6599Y2219
X5379Y1839
X4959Y2119
X4399Y2210
X3719Y1919
X1909Y3772
X1599Y4019
X1499Y3439
X2639Y4059
X2569Y4769
X3359Y4179
X3579Y4329
X3819Y4199
X4059Y4319
X4459Y4249
X4659Y4419
X4619Y4679
X4619Y4959
X4779Y5199
X4759Y5499
X4199Y5619
X3959Y5499
X3439Y5559
X3439Y5279
X3419Y4819
X3159Y6139
X3339Y6419
X3559Y6259
X2829Y6189
X1979Y5799
X1899Y6079
X4459Y7439
X5379Y6687
X5279Y6159
X4999Y6039
X5479Y5299
X5759Y5579
X5939Y6159
X6037Y6499
X6319Y6359
X6559Y6579
X5529Y7297
X2501Y10912
X2212Y11268
X2407Y11463
X2642Y11668
X3079Y11505
X3558Y11079
X3779Y11625
X4121Y11060
X4437Y11060
X4679Y11445
X4999Y11405
X5359Y10665
X5842Y10685
X5879Y11385
X6599Y10305
X5379Y9925
X4959Y10205
X4399Y10296
X3719Y10005
X1909Y11858
X1599Y12105
X1499Y11525
X2639Y12145
X2569Y12855
X3359Y12265
X3579Y12415
X3819Y12285
X4059Y12405
X4459Y12335
X4659Y12505
X4619Y12765
X4619Y13045
X4779Y13285
X4759Y13585
X4199Y13705
X3959Y13585
X3439Y13645
X3439Y13365
X3419Y12905
X3159Y14225
X3339Y14505
X3559Y14345
X2829Y14275
X1979Y13885
X1899Y14165
X4459Y15525
X5379Y14773
X5279Y14245
X4999Y14125
X5479Y13385
X5759Y13665
X5939Y14245
X6037Y14585
X6319Y14445
X6559Y14665
X5529Y15383
X2501Y18998
X2212Y19354
X2407Y19549
X2642Y19754
X3079Y19591
X3558Y19165
X3779Y19711
X4121Y19146
X4437Y19146
X4679Y19531
X4999Y19491
X5359Y18751
X5842Y18771
X5879Y19471
X6599Y18391
X5379Y18011
X4959Y18291
X4399Y18382
X3719Y18091
X1909Y19944
X1599Y20191
X1499Y19611
X2639Y20231
X2569Y20941
X3359Y20351
X3579Y20501
X3819Y20371
X4059Y20491
X4459Y20421
X4659Y20591
X4619Y20851
X4619Y21131
X4779Y21371
X4759Y21671
X4199Y21791
X3959Y21671
X3439Y21731
X3439Y21451
X3419Y20991
X3159Y22311
X3339Y22591
X3559Y22431
X2829Y22361
X1979Y21971
X1899Y22251
X4459Y23611
X5379Y22859
X5279Y22331
X4999Y22211
X5479Y21471
X5759Y21751
X5939Y22331
X6037Y22671
X6319Y22531
X6559Y22751
X5529Y23469
X2501Y27084
X2212Y27440
X2407Y27635
X2642Y27840
X3079Y27677
X3558Y27251
X3779Y27797
X4121Y27232
X4437Y27232
X4679Y27617
X4999Y27577
X5359Y26837
X5842Y26857
X5879Y27557
X6599Y26477
X5379Y26097
X4959Y26377
X4399Y26468
X3719Y26177
X1909Y28030
X1599Y28277
X1499Y27697
X2639Y28317
X2569Y29027
X3359Y28437
X3579Y28587
X3819Y28457
X4059Y28577
X4459Y28507
X4659Y28677
X4619Y28937
X4619Y29217
X4779Y29457
X4759Y29757
X4199Y29877
X3959Y29757
X3439Y29817
X3439Y29537
X3419Y29077
X3159Y30397
X3339Y30677
X3559Y30517
X2829Y30447
X1979Y30057
X1899Y30337
X4459Y31697
X5379Y30945
X5279Y30417
X4999Y30297
X5479Y29557
X5759Y29837
X5939Y30417
X6037Y30757
X6319Y30617
X6559Y30837
X5529Y31555
X2501Y35170
X2212Y35526
X2407Y35721
X2642Y35926
X3079Y35763
X3558Y35337
X3779Y35883
X4121Y35318
X4437Y35318
X4679Y35703
X4999Y35663
X5359Y34923
X5842Y34943
X5879Y35643
X6599Y34563
X5379Y34183
X4959Y34463
X4399Y34554
X3719Y34263
X1909Y36116
X1599Y36363
X1499Y35783
X2639Y36403
X2569Y37113
X3359Y36523
X3579Y36673
X3819Y36543
X4059Y36663
X4459Y36593
X4659Y36763
X4619Y37023
X4619Y37303
X4779Y37543
X4759Y37843
X4199Y37963
X3959Y37843
X3439Y37903
X3439Y37623
X3419Y37163
X3159Y38483
X3339Y38763
X3559Y38603
X2829Y38533
X1979Y38143
X1899Y38423
X4459Y39783
X5379Y39031
X5279Y38503
X4999Y38383
X5479Y37643
X5759Y37923
X5939Y38503
X6037Y38843
X6319Y38703
X6559Y38923
X5529Y39641
X2501Y43256
X2212Y43612
X2407Y43807
X2642Y44012
X3079Y43849
X3558Y43423
X3779Y43969
X4121Y43404
X4437Y43404
X4679Y43789
X4999Y43749
X5359Y43009
X5842Y43029
X5879Y43729
X6599Y42649
X5379Y42269
X4959Y42549
X4399Y42640
X3719Y42349
X1909Y44202
X1599Y44449
X1499Y43869
X2639Y44489
X2569Y45199
X3359Y44609
X3579Y44759
X3819Y44629
X4059Y44749
X4459Y44679
X4659Y44849
X4619Y45109
X4619Y45389
X4779Y45629
X4759Y45929
X4199Y46049
X3959Y45929
X3439Y45989
X3439Y45709
X3419Y45249
X3159Y46569
X3339Y46849
X3559Y46689
X2829Y46619
X1979Y46229
X1899Y46509
X4459Y47869
X5379Y47117
X5279Y46589
X4999Y46469
X5479Y45729
X5759Y46009
X5939Y46589
X6037Y46929
X6319Y46789
X6559Y47009
X5529Y47727
X2501Y51342
X2212Y51698
X2407Y51893
X2642Y52098
X3079Y51935
X3558Y51509
X3779Y52055
X4121Y51490
X4437Y51490
X4679Y51875
X4999Y51835
X5359Y51095
X5842Y51115
X5879Y51815
X6599Y50735
X5379Y50355
X4959Y50635
X4399Y50726
X3719Y50435
X1909Y52288
X1599Y52535
X1499Y51955
X2639Y52575
X2569Y53285
X3359Y52695
X3579Y52845
X3819Y52715
X4059Y52835
X4459Y52765
X4659Y52935
X4619Y53195
X4619Y53475
X4779Y53715
X4759Y54015
X4199Y54135
X3959Y54015
X3439Y54075
X3439Y53795
X3419Y53335
X3159Y54655
X3339Y54935
X3559Y54775
X2829Y54705
X1979Y54315
X1899Y54595
X4459Y55955
X5379Y55203
X5279Y54675
X4999Y54555
X5479Y53815
X5759Y54095
X5939Y54675
X6037Y55015
X6319Y54875
X6559Y55095
X5529Y55813
X2501Y59428
X2212Y59784
X2407Y59979
X2642Y60184
X3079Y60021
X3558Y59595
X3779Y60141
X4121Y59576
X4437Y59576
X4679Y59961
X4999Y59921
X5359Y59181
X5842Y59201
X5879Y59901
X6599Y58821
X5379Y58441
X4959Y58721
X4399Y58812
X3719Y58521
X1909Y60374
X1599Y60621
X1499Y60041
X2639Y60661
X2569Y61371
X3359Y60781
X3579Y60931
X3819Y60801
X4059Y60921
X4459Y60851
X4659Y61021
X4619Y61281
X4619Y61561
X4779Y61801
X4759Y62101
X4199Y62221
X3959Y62101
X3439Y62161
X3439Y61881
X3419Y61421
X3159Y62741
X3339Y63021
X3559Y62861
X2829Y62791
X1979Y62401
X1899Y62681
X4459Y64041
X5379Y63289
X5279Y62761
X4999Y62641
X5479Y61901
X5759Y62181
X5939Y62761
X6037Y63101
X6319Y62961
X6559Y63181
X5529Y63899
X2501Y67514
X2212Y67870
X2407Y68065
X2642Y68270
X3079Y68107
X3558Y67681
X3779Y68227
X4121Y67662
X4437Y67662
X4679Y68047
X4999Y68007
X5359Y67267
X5842Y67287
X5879Y67987
X6599Y66907
X5379Y66527
X4959Y66807
X4399Y66898
X3719Y66607
X1909Y68460
X1599Y68707
X1499Y68127
X2639Y68747
X2569Y69457
X3359Y68867
X3579Y69017
X3819Y68887
X4059Y69007
X4459Y68937
X4659Y69107
X4619Y69367
X4619Y69647
X4779Y69887
X4759Y70187
X4199Y70307
X3959Y70187
X3439Y70247
X3439Y69967
X3419Y69507
X3159Y70827
X3339Y71107
X3559Y70947
X2829Y70877
X1979Y70487
X1899Y70767
X4459Y72127
X5379Y71375
X5279Y70847
X4999Y70727
X5479Y69987
X5759Y70267
X5939Y70847
X6037Y71187
X6319Y71047
X6559Y71267
X5529Y71985
X2501Y75600
X2212Y75956
X2407Y76151
X2642Y76356
X3079Y76193
X3558Y75767
X3779Y76313
X4121Y75748
X4437Y75748
X4679Y76133
X4999Y76093
X5359Y75353
X5842Y75373
X5879Y76073
X6599Y74993
X5379Y74613
X4959Y74893
X4399Y74984
X3719Y74693
X1909Y76546
X1599Y76793
X1499Y76213
X2639Y76833
X2569Y77543
X3359Y76953
X3579Y77103
X3819Y76973
X4059Y77093
X4459Y77023
X4659Y77193
X4619Y77453
X4619Y77733
X4779Y77973
X4759Y78273
X4199Y78393
X3959Y78273
X3439Y78333
X3439Y78053
X3419Y77593
X3159Y78913
X3339Y79193
X3559Y79033
X2829Y78963
X1979Y78573
X1899Y78853
X4459Y80213
X5379Y79461
X5279Y78933
X4999Y78813
X5479Y78073
X5759Y78353
X5939Y78933
X6037Y79273
X6319Y79133
X6559Y79353
X5529Y80071
X10587Y2826
X10298Y3182
X10493Y3377
X10728Y3582
X11165Y3419
X11644Y2993
X11865Y3539
X12207Y2974
X12523Y2974
X12765Y3359
X13085Y3319
X13445Y2579
X13928Y2599
X13965Y3299
X14685Y2219
X13465Y1839
X13045Y2119
X12485Y2210
X11805Y1919
X9995Y3772
X9685Y4019
X9585Y3439
X10725Y4059
X10655Y4769
X11445Y4179
X11665Y4329
X11905Y4199
X12145Y4319
X12545Y4249
X12745Y4419
X12705Y4679
X12705Y4959
X12865Y5199
X12845Y5499
X12285Y5619
X12045Y5499
X11525Y5559
X11525Y5279
X11505Y4819
X11245Y6139
X11425Y6419
X11645Y6259
X10915Y6189
X10065Y5799
X9985Y6079
X12545Y7439
X13465Y6687
X13365Y6159
X13085Y6039
X13565Y5299
X13845Y5579
X14025Y6159
X14123Y6499
X14405Y6359
X14645Y6579
X13615Y7297
X10587Y10912
X10298Y11268
X10493Y11463
X10728Y11668
X11165Y11505
X11644Y11079
X11865Y11625
X12207Y11060
X12523Y11060
X12765Y11445
X13085Y11405
X13445Y10665
X13928Y10685
X13965Y11385
X14685Y10305
X13465Y9925
X13045Y10205
X12485Y10296
X11805Y10005
X9995Y11858
X9685Y12105
X9585Y11525
X10725Y12145
X10655Y12855
X11445Y12265
X11665Y12415
X11905Y12285
X12145Y12405
X12545Y12335
X12745Y12505
X12705Y12765
X12705Y13045
X12865Y13285
X12845Y13585
X12285Y13705
X12045Y13585
X11525Y13645
X11525Y13365
X11505Y12905
X11245Y14225
X11425Y14505
X11645Y14345
X10915Y14275
X10065Y13885
X9985Y14165
X12545Y15525
X13465Y14773
X13365Y14245
X13085Y14125
X13565Y13385
X13845Y13665
X14025Y14245
X14123Y14585
X14405Y14445
X14645Y14665
X13615Y15383
X10587Y18998
X10298Y19354
X10493Y19549
X10728Y19754
X11165Y19591
X11644Y19165
X11865Y19711
X12207Y19146
X12523Y19146
X12765Y19531
X13085Y19491
X13445Y18751
X13928Y18771
X13965Y19471
X14685Y18391
X13465Y18011
X13045Y18291
X12485Y18382
X11805Y18091
X9995Y19944
X9685Y20191
X9585Y19611
X10725Y20231
X10655Y20941
X11445Y20351
X11665Y20501
X11905Y20371
X12145Y20491
X12545Y20421
X12745Y20591
X12705Y20851
X12705Y21131
X12865Y21371
X12845Y21671
X12285Y21791
X12045Y21671
X11525Y21731
X11525Y21451
X11505Y20991
X11245Y22311
X11425Y22591
X11645Y22431
X10915Y22361
X10065Y21971
X9985Y22251
X12545Y23611
X13465Y22859
X13365Y22331
X13085Y22211
X13565Y21471
X13845Y21751
X14025Y22331
X14123Y22671
X14405Y22531
X14645Y22751
X13615Y23469
X10587Y27084
X10298Y27440
X10493Y27635
X10728Y27840
X11165Y27677
X11644Y27251
X11865Y27797
X12207Y27232
X12523Y27232
X12765Y27617
X13085Y27577
X13445Y26837
X13928Y26857
X13965Y27557
X14685Y26477
X13465Y26097
X13045Y26377
X12485Y26468
X11805Y26177
X9995Y28030
X9685Y28277
X9585Y27697
X10725Y28317
X10655Y29027
X11445Y28437
X11665Y28587
X11905Y28457
X12145Y28577
X12545Y28507
X12745Y28677
X12705Y28937
X12705Y29217
X12865Y29457
X12845Y29757
X12285Y29877
X12045Y29757
X11525Y29817
X11525Y29537
X11505Y29077
X11245Y30397
X11425Y30677
X11645Y30517
X10915Y30447
X10065Y30057
X9985Y30337
X12545Y31697
X13465Y30945
X13365Y30417
X13085Y30297
X13565Y29557
X13845Y29837
X14025Y30417
X14123Y30757
X14405Y30617
X14645Y30837
X13615Y31555
X10587Y35170
X10298Y35526
X10493Y35721
X10728Y35926
X11165Y35763
X11644Y35337
X11865Y35883
X12207Y35318
X12523Y35318
X12765Y35703
X13085Y35663
X13445Y34923
X13928Y34943
X13965Y35643
X14685Y34563
X13465Y34183
X13045Y34463
X12485Y34554
X11805Y34263
X9995Y36116
X9685Y36363
X9585Y35783
X10725Y36403
X10655Y37113
X11445Y36523
X11665Y36673
X11905Y36543
X12145Y36663
X12545Y36593
X12745Y36763
X12705Y37023
X12705Y37303
X12865Y37543
X12845Y37843
X12285Y37963
X12045Y37843
X11525Y37903
X11525Y37623
X11505Y37163
X11245Y38483
X11425Y38763
X11645Y38603
X10915Y38533
X10065Y38143
X9985Y38423
X12545Y39783
X13465Y39031
X13365Y38503
X13085Y38383
X13565Y37643
X13845Y37923
X14025Y38503
X14123Y38843
X14405Y38703
X14645Y38923
X13615Y39641
X10587Y43256
X10298Y43612
X10493Y43807
X10728Y44012
X11165Y43849
X11644Y43423
X11865Y43969
X12207Y43404
X12523Y43404
X12765Y43789
X13085Y43749
X13445Y43009
X13928Y43029
X13965Y43729
X14685Y42649
X13465Y42269
X13045Y42549
X12485Y42640
X11805Y42349
X9995Y44202
X9685Y44449
X9585Y43869
X10725Y44489
X10655Y45199
X11445Y44609
X11665Y44759
X11905Y44629
X12145Y44749
X12545Y44679
X12745Y44849
X12705Y45109
X12705Y45389
X12865Y45629
X12845Y45929
X12285Y46049
X12045Y45929
X11525Y45989
X11525Y45709
X11505Y45249
X11245Y46569
X11425Y46849
X11645Y46689
X10915Y46619
X10065Y46229
X9985Y46509
X12545Y47869
X13465Y47117
X13365Y46589
X13085Y46469
X13565Y45729
X13845Y46009
X14025Y46589
X14123Y46929
X14405Y46789
X14645Y47009
X13615Y47727
X10587Y51342
X10298Y51698
X10493Y51893
X10728Y52098
X11165Y51935
X11644Y51509
X11865Y52055
X12207Y51490
X12523Y51490
X12765Y51875
X13085Y51835
X13445Y51095
X13928Y51115
X13965Y51815
X14685Y50735
X13465Y50355
X13045Y50635
X12485Y50726
X11805Y50435
X9995Y52288
X9685Y52535
X9585Y51955
X10725Y52575
X10655Y53285
X11445Y52695
X11665Y52845
X11905Y52715
X12145Y52835
X12545Y52765
X12745Y52935
X12705Y53195
X12705Y53475
X12865Y53715
X12845Y54015
X12285Y54135
X12045Y54015
X11525Y54075
X11525Y53795
X11505Y53335
X11245Y54655
X11425Y54935
X11645Y54775
X10915Y54705
X10065Y54315
X9985Y54595
X12545Y55955
X13465Y55203
X13365Y54675
X13085Y54555
X13565Y53815
X13845Y54095
X14025Y54675
X14123Y55015
X14405Y54875
X14645Y55095
X13615Y55813
X10587Y59428
X10298Y59784
X10493Y59979
X10728Y60184
X11165Y60021
X11644Y59595
X11865Y60141
X12207Y59576
X12523Y59576
X12765Y59961
X13085Y59921
X13445Y59181
X13928Y59201
X13965Y59901
X14685Y58821
X13465Y58441
X13045Y58721
X12485Y58812
X11805Y58521
X9995Y60374
X9685Y60621
X9585Y60041
X10725Y60661
X10655Y61371
X11445Y60781
X11665Y60931
X11905Y60801
X12145Y60921
X12545Y60851
X12745Y61021
X12705Y61281
X12705Y61561
X12865Y61801
X12845Y62101
X12285Y62221
X12045Y62101
X11525Y62161
X11525Y61881
X11505Y61421
X11245Y62741
X11425Y63021
X11645Y62861
X10915Y62791
X10065Y62401
X9985Y62681
X12545Y64041
X13465Y63289
X13365Y62761
X13085Y62641
X13565Y61901
X13845Y62181
X14025Y62761
X14123Y63101
X14405Y62961
X14645Y63181
X13615Y63899
X10587Y67514
X10298Y67870
X10493Y68065
X10728Y68270
X11165Y68107
X11644Y67681
X11865Y68227
X12207Y67662
X12523Y67662
X12765Y68047
X13085Y68007
X13445Y67267
X13928Y67287
X13965Y67987
X14685Y66907
X13465Y66527
X13045Y66807
X12485Y66898
X11805Y66607
X9995Y68460
X9685Y68707
X9585Y68127
X10725Y68747
X10655Y69457
X11445Y68867
X11665Y69017
X11905Y68887
X12145Y69007
X12545Y68937
X12745Y69107
X12705Y69367
X12705Y69647
X12865Y69887
X12845Y70187
X12285Y70307
X12045Y70187
X11525Y70247
X11525Y69967
X11505Y69507
X11245Y70827
X11425Y71107
X11645Y70947
X10915Y70877
X10065Y70487
X9985Y70767
X12545Y72127
X13465Y71375
X13365Y70847
X13085Y70727
X13565Y69987
X13845Y70267
X14025Y70847
X14123Y71187
X14405Y71047
X14645Y71267
X13615Y71985
X10587Y75600
X10298Y75956
X10493Y76151
X10728Y76356
X11165Y76193
X11644Y75767
X11865Y76313
X12207Y75748
X12523Y75748
X12765Y76133
X13085Y76093
X13445Y75353
X13928Y75373
X13965Y76073
X14685Y74993
X13465Y74613
X13045Y74893
X12485Y74984
X11805Y74693
X9995Y76546
X9685Y76793
X9585Y76213
X10725Y76833
X10655Y77543
X11445Y76953
X11665Y77103
X11905Y76973
X12145Y77093
X12545Y77023
X12745Y77193
X12705Y77453
X12705Y77733
X12865Y77973
X12845Y78273
X12285Y78393
X12045Y78273
X11525Y78333
X11525Y78053
X11505Y77593
X11245Y78913
X11425Y79193
X11645Y79033
X10915Y78963
X10065Y78573
X9985Y78853
X12545Y80213
X13465Y79461
X13365Y78933
X13085Y78813
X13565Y78073
X13845Y78353
X14025Y78933
X14123Y79273
X14405Y79133
X14645Y79353
X13615Y80071
X18673Y2826
X18384Y3182
X18579Y3377
X18814Y3582
X19251Y3419
X19730Y2993
X19951Y3539
X20293Y2974
X20609Y2974
X20851Y3359
X21171Y3319
X21531Y2579
X22014Y2599
X22051Y3299
X22771Y2219
X21551Y1839
X21131Y2119
X20571Y2210
X19891Y1919
X18081Y3772
X17771Y4019
X17671Y3439
X18811Y4059
X18741Y4769
X19531Y4179
X19751Y4329
X19991Y4199
X20231Y4319
X20631Y4249
X20831Y4419
X20791Y4679
X20791Y4959
X20951Y5199
X20931Y5499
X20371Y5619
X20131Y5499
X19611Y5559
X19611Y5279
X19591Y4819
X19331Y6139
X19511Y6419
X19731Y6259
X19001Y6189
X18151Y5799
X18071Y6079
X20631Y7439
X21551Y6687
X21451Y6159
X21171Y6039
X21651Y5299
X21931Y5579
X22111Y6159
X22209Y6499
X22491Y6359
X22731Y6579
X21701Y7297
X18673Y10912
X18384Y11268
X18579Y11463
X18814Y11668
X19251Y11505
X19730Y11079
X19951Y11625
X20293Y11060
X20609Y11060
X20851Y11445
X21171Y11405
X21531Y10665
X22014Y10685
X22051Y11385
X22771Y10305
X21551Y9925
X21131Y10205
X20571Y10296
X19891Y10005
X18081Y11858
X17771Y12105
X17671Y11525
X18811Y12145
X18741Y12855
X19531Y12265
X19751Y12415
X19991Y12285
X20231Y12405
X20631Y12335
X20831Y12505
X20791Y12765
X20791Y13045
X20951Y13285
X20931Y13585
X20371Y13705
X20131Y13585
X19611Y13645
X19611Y13365
X19591Y12905
X19331Y14225
X19511Y14505
X19731Y14345
X19001Y14275
X18151Y13885
X18071Y14165
X20631Y15525
X21551Y14773
X21451Y14245
X21171Y14125
X21651Y13385
X21931Y13665
X22111Y14245
X22209Y14585
X22491Y14445
X22731Y14665
X21701Y15383
X18673Y18998
X18384Y19354
X18579Y19549
X18814Y19754
X19251Y19591
X19730Y19165
X19951Y19711
X20293Y19146
X20609Y19146
X20851Y19531
X21171Y19491
X21531Y18751
X22014Y18771
X22051Y19471
X22771Y18391
X21551Y18011
X21131Y18291
X20571Y18382
X19891Y18091
X18081Y19944
X17771Y20191
X17671Y19611
X18811Y20231
X18741Y20941
X19531Y20351
X19751Y20501
X19991Y20371
X20231Y20491
X20631Y20421
X20831Y20591
X20791Y20851
X20791Y21131
X20951Y21371
X20931Y21671
X20371Y21791
X20131Y21671
X19611Y21731
X19611Y21451
X19591Y20991
X19331Y22311
X19511Y22591
X19731Y22431
X19001Y22361
X18151Y21971
X18071Y22251
X20631Y23611
X21551Y22859
X21451Y22331
X21171Y22211
X21651Y21471
X21931Y21751
X22111Y22331
X22209Y22671
X22491Y22531
X22731Y22751
X21701Y23469
X18673Y27084
X18384Y27440
X18579Y27635
X18814Y27840
X19251Y27677
X19730Y27251
X19951Y27797
X20293Y27232
X20609Y27232
X20851Y27617
X21171Y27577
X21531Y26837
X22014Y26857
X22051Y27557
X22771Y26477
X21551Y26097
X21131Y26377
X20571Y26468
X19891Y26177
X18081Y28030
X17771Y28277
X17671Y27697
X18811Y28317
X18741Y29027
X19531Y28437
X19751Y28587
X19991Y28457
X20231Y28577
X20631Y28507
X20831Y28677
X20791Y28937
X20791Y29217
X20951Y29457
X20931Y29757
X20371Y29877
X20131Y29757
X19611Y29817
X19611Y29537
X19591Y29077
X19331Y30397
X19511Y30677
X19731Y30517
X19001Y30447
X18151Y30057
X18071Y30337
X20631Y31697
X21551Y30945
X21451Y30417
X21171Y30297
X21651Y29557
X21931Y29837
X22111Y30417
X22209Y30757
X22491Y30617
X22731Y30837
X21701Y31555
X18673Y35170
X18384Y35526
X18579Y35721
X18814Y35926
X19251Y35763
X19730Y35337
X19951Y35883
X20293Y35318
X20609Y35318
X20851Y35703
X21171Y35663
X21531Y34923
X22014Y34943
X22051Y35643
X22771Y34563
X21551Y34183
X21131Y34463
X20571Y34554
X19891Y34263
X18081Y36116
X17771Y36363
X17671Y35783
X18811Y36403
X18741Y37113
X19531Y36523
X19751Y36673
X19991Y36543
X20231Y36663
X20631Y36593
X20831Y36763
X20791Y37023
X20791Y37303
X20951Y37543
X20931Y37843
X20371Y37963
X20131Y37843
X19611Y37903
X19611Y37623
X19591Y37163
X19331Y38483
X19511Y38763
X19731Y38603
X19001Y38533
X18151Y38143
X18071Y38423
X20631Y39783
X21551Y39031
X21451Y38503
X21171Y38383
X21651Y37643
X21931Y37923
X22111Y38503
X22209Y38843
X22491Y38703
X22731Y38923
X21701Y39641
X18673Y43256
X18384Y43612
X18579Y43807
X18814Y44012
X19251Y43849
X19730Y43423
X19951Y43969
X20293Y43404
X20609Y43404
X20851Y43789
X21171Y43749
X21531Y43009
X22014Y43029
X22051Y43729
X22771Y42649
X21551Y42269
X21131Y42549
X20571Y42640
X19891Y42349
X18081Y44202
X17771Y44449
X17671Y43869
X18811Y44489
X18741Y45199
X19531Y44609
X19751Y44759
X19991Y44629
X20231Y44749
X20631Y44679
X20831Y44849
X20791Y45109
X20791Y45389
X20951Y45629
X20931Y45929
X20371Y46049
X20131Y45929
X19611Y45989
X19611Y45709
X19591Y45249
X19331Y46569
X19511Y46849
X19731Y46689
X19001Y46619
X18151Y46229
X18071Y46509
X20631Y47869
X21551Y47117
X21451Y46589
X21171Y46469
X21651Y45729
X21931Y46009
X22111Y46589
X22209Y46929
X22491Y46789
X22731Y47009
X21701Y47727
X18673Y51342
X18384Y51698
X18579Y51893
X18814Y52098
X19251Y51935
X19730Y51509
X19951Y52055
X20293Y51490
X20609Y51490
X20851Y51875
X21171Y51835
X21531Y51095
X22014Y51115
X22051Y51815
X22771Y50735
X21551Y50355
X21131Y50635
X20571Y50726
X19891Y50435
X18081Y52288
X17771Y52535
X17671Y51955
X18811Y52575
X18741Y53285
X19531Y52695
X19751Y52845
X19991Y52715
X20231Y52835
X20631Y52765
X20831Y52935
X20791Y53195
X20791Y53475
X20951Y53715
X20931Y54015
X20371Y54135
X20131Y54015
X19611Y54075
X19611Y53795
X19591Y53335
X19331Y54655
X19511Y54935
X19731Y54775
X19001Y54705
X18151Y54315
X18071Y54595
X20631Y55955
X21551Y55203
X21451Y54675
X21171Y54555
X21651Y53815
X21931Y54095
X22111Y54675
X22209Y55015
X22491Y54875
X22731Y55095
X21701Y55813
X18673Y59428
X18384Y59784
X18579Y59979
X18814Y60184
X19251Y60021
X19730Y59595
X19951Y60141
X20293Y59576
X20609Y59576
X20851Y59961
X21171Y59921
X21531Y59181
X22014Y59201
X22051Y59901
X22771Y58821
X21551Y58441
X21131Y58721
X20571Y58812
X19891Y58521
X18081Y60374
X17771Y60621
X17671Y60041
X18811Y60661
X18741Y61371
X19531Y60781
X19751Y60931
X19991Y60801
X20231Y60921
X20631Y60851
X20831Y61021
X20791Y61281
X20791Y61561
X20951Y61801
X20931Y62101
X20371Y62221
X20131Y62101
X19611Y62161
X19611Y61881
X19591Y61421
X19331Y62741
X19511Y63021
X19731Y62861
X19001Y62791
X18151Y62401
X18071Y62681
X20631Y64041
X21551Y63289
X21451Y62761
X21171Y62641
X21651Y61901
X21931Y62181
X22111Y62761
X22209Y63101
X22491Y62961
X22731Y63181
X21701Y63899
X18673Y67514
X18384Y67870
X18579Y68065
X18814Y68270
X19251Y68107
X19730Y67681
X19951Y68227
X20293Y67662
X20609Y67662
X20851Y68047
X21171Y68007
X21531Y67267
X22014Y67287
X22051Y67987
X22771Y66907
X21551Y66527
X21131Y66807
X20571Y66898
X19891Y66607
X18081Y68460
X17771Y68707
X17671Y68127
X18811Y68747
X18741Y69457
X19531Y68867
X19751Y69017
X19991Y68887
X20231Y69007
X20631Y68937
X20831Y69107
X20791Y69367
X20791Y69647
X20951Y69887
X20931Y70187
X20371Y70307
X20131Y70187
X19611Y70247
X19611Y69967
X19591Y69507
X19331Y70827
X19511Y71107
X19731Y70947
X19001Y70877
X18151Y70487
X18071Y70767
X20631Y72127
X21551Y71375
X21451Y70847
X21171Y70727
X21651Y69987
X21931Y70267
X22111Y70847
X22209Y71187
X22491Y71047
X22731Y71267
X21701Y71985
X18673Y75600
X18384Y75956
X18579Y76151
X18814Y76356
X19251Y76193
X19730Y75767
X19951Y76313
X20293Y75748
X20609Y75748
X20851Y76133
X21171Y76093
X21531Y75353
X22014Y75373
X22051Y76073
X22771Y74993
X21551Y74613
X21131Y74893
X20571Y74984
X19891Y74693
X18081Y76546
X17771Y76793
X17671Y76213
X18811Y76833
X18741Y77543
X19531Y76953
X19751Y77103
X19991Y76973
X20231Y77093
X20631Y77023
X20831Y77193
X20791Y77453
X20791Y77733
X20951Y77973
X20931Y78273
X20371Y78393
X20131Y78273
X19611Y78333
X19611Y78053
X19591Y77593
X19331Y78913
X19511Y79193
X19731Y79033
X19001Y78963
X18151Y78573
X18071Y78853
X20631Y80213
X21551Y79461
X21451Y78933
X21171Y78813
X21651Y78073
X21931Y78353
X22111Y78933
X22209Y79273
X22491Y79133
X22731Y79353
X21701Y80071
X26759Y2826
X26470Y3182
X26665Y3377
X26900Y3582
X27337Y3419
X27816Y2993
X28037Y3539
X28379Y2974
X28695Y2974
X28937Y3359
X29257Y3319
X29617Y2579
X30100Y2599
X30137Y3299
X30857Y2219
X29637Y1839
X29217Y2119
X28657Y2210
X27977Y1919
X26167Y3772
X25857Y4019
X25757Y3439
X26897Y4059
X26827Y4769
X27617Y4179
X27837Y4329
X28077Y4199
X28317Y4319
X28717Y4249
X28917Y4419
X28877Y4679
X28877Y4959
X29037Y5199
X29017Y5499
X28457Y5619
X28217Y5499
X27697Y5559
X27697Y5279
X27677Y4819
X27417Y6139
X27597Y6419
X27817Y6259
X27087Y6189
X26237Y5799
X26157Y6079
X28717Y7439
X29637Y6687
X29537Y6159
X29257Y6039
X29737Y5299
X30017Y5579
X30197Y6159
X30295Y6499
X30577Y6359
X30817Y6579
X29787Y7297
X26759Y10912
X26470Y11268
X26665Y11463
X26900Y11668
X27337Y11505
X27816Y11079
X28037Y11625
X28379Y11060
X28695Y11060
X28937Y11445
X29257Y11405
X29617Y10665
X30100Y10685
X30137Y11385
X30857Y10305
X29637Y9925
X29217Y10205
X28657Y10296
X27977Y10005
X26167Y11858
X25857Y12105
X25757Y11525
X26897Y12145
X26827Y12855
X27617Y12265
X27837Y12415
X28077Y12285
X28317Y12405
X28717Y12335
X28917Y12505
X28877Y12765
X28877Y13045
X29037Y13285
X29017Y13585
X28457Y13705
X28217Y13585
X27697Y13645
X27697Y13365
X27677Y12905
X27417Y14225
X27597Y14505
X27817Y14345
X27087Y14275
X26237Y13885
X26157Y14165
X28717Y15525
X29637Y14773
X29537Y14245
X29257Y14125
X29737Y13385
X30017Y13665
X30197Y14245
X30295Y14585
X30577Y14445
X30817Y14665
X29787Y15383
X26759Y18998
X26470Y19354
X26665Y19549
X26900Y19754
X27337Y19591
X27816Y19165
X28037Y19711
X28379Y19146
X28695Y19146
X28937Y19531
X29257Y19491
X29617Y18751
X30100Y18771
X30137Y19471
X30857Y18391
X29637Y18011
X29217Y18291
X28657Y18382
X27977Y18091
X26167Y19944
X25857Y20191
X25757Y19611
X26897Y20231
X26827Y20941
X27617Y20351
X27837Y20501
X28077Y20371
X28317Y20491
X28717Y20421
X28917Y20591
X28877Y20851
X28877Y21131
X29037Y21371
X29017Y21671
X28457Y21791
X28217Y21671
X27697Y21731
X27697Y21451
X27677Y20991
X27417Y22311
X27597Y22591
X27817Y22431
X27087Y22361
X26237Y21971
X26157Y22251
X28717Y23611
X29637Y22859
X29537Y22331
X29257Y22211
X29737Y21471
X30017Y21751
X30197Y22331
X30295Y22671
X30577Y22531
X30817Y22751
X29787Y23469
X26759Y27084
X26470Y27440
X26665Y27635
X26900Y27840
X27337Y27677
X27816Y27251
X28037Y27797
X28379Y27232
X28695Y27232
X28937Y27617
X29257Y27577
X29617Y26837
X30100Y26857
X30137Y27557
X30857Y26477
X29637Y26097
X29217Y26377
X28657Y26468
X27977Y26177
X26167Y28030
X25857Y28277
X25757Y27697
X26897Y28317
X26827Y29027
X27617Y28437
X27837Y28587
X28077Y28457
X28317Y28577
X28717Y28507
X28917Y28677
X28877Y28937
X28877Y29217
X29037Y29457
X29017Y29757
X28457Y29877
X28217Y29757
X27697Y29817
X27697Y29537
X27677Y29077
X27417Y30397
X27597Y30677
X27817Y30517
X27087Y30447
X26237Y30057
X26157Y30337
X28717Y31697
X29637Y30945
X29537Y30417
X29257Y30297
X29737Y29557
X30017Y29837
X30197Y30417
X30295Y30757
X30577Y30617
X30817Y30837
X29787Y31555
X26759Y35170
X26470Y35526
X26665Y35721
X26900Y35926
X27337Y35763
X27816Y35337
X28037Y35883
X28379Y35318
X28695Y35318
X28937Y35703
X29257Y35663
X29617Y34923
X30100Y34943
X30137Y35643
X30857Y34563
X29637Y34183
X29217Y34463
X28657Y34554
X27977Y34263
X26167Y36116
X25857Y36363
X25757Y35783
X26897Y36403
X26827Y37113
X27617Y36523
X27837Y36673
X28077Y36543
X28317Y36663
X28717Y36593
X28917Y36763
X28877Y37023
X28877Y37303
X29037Y37543
X29017Y37843
X28457Y37963
X28217Y37843
X27697Y37903
X27697Y37623
X27677Y37163
X27417Y38483
X27597Y38763
X27817Y38603
X27087Y38533
X26237Y38143
X26157Y38423
X28717Y39783
X29637Y39031
X29537Y38503
X29257Y38383
X29737Y37643
X30017Y37923
X30197Y38503
X30295Y38843
X30577Y38703
X30817Y38923
X29787Y39641
X26759Y43256
X26470Y43612
X26665Y43807
X26900Y44012
X27337Y43849
X27816Y43423
X28037Y43969
X28379Y43404
X28695Y43404
X28937Y43789
X29257Y43749
X29617Y43009
X30100Y43029
X30137Y43729
X30857Y42649
X29637Y42269
X29217Y42549
X28657Y42640
X27977Y42349
X26167Y44202
X25857Y44449
X25757Y43869
X26897Y44489
X26827Y45199
X27617Y44609
X27837Y44759
X28077Y44629
X28317Y44749
X28717Y44679
X28917Y44849
X28877Y45109
X28877Y45389
X29037Y45629
X29017Y45929
X28457Y46049
X28217Y45929
X27697Y45989
X27697Y45709
X27677Y45249
X27417Y46569
X27597Y46849
X27817Y46689
X27087Y46619
X26237Y46229
X26157Y46509
X28717Y47869
X29637Y47117
X29537Y46589
X29257Y46469
X29737Y45729
X30017Y46009
X30197Y46589
X30295Y46929
X30577Y46789
X30817Y47009
X29787Y47727
X26759Y51342
X26470Y51698
X26665Y51893
X26900Y52098
X27337Y51935
X27816Y51509
X28037Y52055
X28379Y51490
X28695Y51490
X28937Y51875
X29257Y51835
X29617Y51095
X30100Y51115
X30137Y51815
X30857Y50735
X29637Y50355
X29217Y50635
X28657Y50726
X27977Y50435
X26167Y52288
X25857Y52535
X25757Y51955
X26897Y52575
X26827Y53285
X27617Y52695
X27837Y52845
X28077Y52715
X28317Y52835
X28717Y52765
X28917Y52935
X28877Y53195
X28877Y53475
X29037Y53715
X29017Y54015
X28457Y54135
X28217Y54015
X27697Y54075
X27697Y53795
X27677Y53335
X27417Y54655
X27597Y54935
X27817Y54775
X27087Y54705
X26237Y54315
X26157Y54595
X28717Y55955
X29637Y55203
X29537Y54675
X29257Y54555
X29737Y53815
X30017Y54095
X30197Y54675
X30295Y55015
X30577Y54875
X30817Y55095
X29787Y55813
X26759Y59428
X26470Y59784
X26665Y59979
X26900Y60184
X27337Y60021
X27816Y59595
X28037Y60141
X28379Y59576
X28695Y59576
X28937Y59961
X29257Y59921
X29617Y59181
X30100Y59201
X30137Y59901
X30857Y58821
X29637Y58441
X29217Y58721
X28657Y58812
X27977Y58521
X26167Y60374
X25857Y60621
X25757Y60041
X26897Y60661
X26827Y61371
X27617Y60781
X27837Y60931
X28077Y60801
X28317Y60921
X28717Y60851
X28917Y61021
X28877Y61281
X28877Y61561
X29037Y61801
X29017Y62101
X28457Y62221
X28217Y62101
X27697Y62161
X27697Y61881
X27677Y61421
X27417Y62741
X27597Y63021
X27817Y62861
X27087Y62791
X26237Y62401
X26157Y62681
X28717Y64041
X29637Y63289
X29537Y62761
X29257Y62641
X29737Y61901
X30017Y62181
X30197Y62761
X30295Y63101
X30577Y62961
X30817Y63181
X29787Y63899
X26759Y67514
X26470Y67870
X26665Y68065
X26900Y68270
X27337Y68107
X27816Y67681
X28037Y68227
X28379Y67662
X28695Y67662
X28937Y68047
X29257Y68007
X29617Y67267
X30100Y67287
X30137Y67987
X30857Y66907
X29637Y66527
X29217Y66807
X28657Y66898
X27977Y66607
X26167Y68460
X25857Y68707
X25757Y68127
X26897Y68747
X26827Y69457
X27617Y68867
X27837Y69017
X28077Y68887
X28317Y69007
X28717Y68937
X28917Y69107
X28877Y69367
X28877Y69647
X29037Y69887
X29017Y70187
X28457Y70307
X28217Y70187
X27697Y70247
X27697Y69967
X27677Y69507
X27417Y70827
X27597Y71107
X27817Y70947
X27087Y70877
X26237Y70487
X26157Y70767
X28717Y72127
X29637Y71375
X29537Y70847
X29257Y70727
X29737Y69987
X30017Y70267
X30197Y70847
X30295Y71187
X30577Y71047
X30817Y71267
X29787Y71985
X26759Y75600
X26470Y75956
X26665Y76151
X26900Y76356
X27337Y76193
X27816Y75767
X28037Y76313
X28379Y75748
X28695Y75748
X28937Y76133
X29257Y76093
X29617Y75353
X30100Y75373
X30137Y76073
X30857Y74993
X29637Y74613
X29217Y74893
X28657Y74984
X27977Y74693
X26167Y76546
X25857Y76793
X25757Y76213
X26897Y76833
X26827Y77543
X27617Y76953
X27837Y77103
X28077Y76973
X28317Y77093
X28717Y77023
X28917Y77193
X28877Y77453
X28877Y77733
X29037Y77973
X29017Y78273
X28457Y78393
X28217Y78273
X27697Y78333
X27697Y78053
X27677Y77593
X27417Y78913
X27597Y79193
X27817Y79033
X27087Y78963
X26237Y78573
X26157Y78853
X28717Y80213
X29637Y79461
X29537Y78933
X29257Y78813
X29737Y78073
X30017Y78353
X30197Y78933
X30295Y79273
X30577Y79133
X30817Y79353
X29787Y80071
X34845Y2826
X34556Y3182
X34751Y3377
X34986Y3582
X35423Y3419
X35902Y2993
X36123Y3539
X36465Y2974
X36781Y2974
X37023Y3359
X37343Y3319
X37703Y2579
X38186Y2599
X38223Y3299
X38943Y2219
X37723Y1839
X37303Y2119
X36743Y2210
X36063Y1919
X34253Y3772
X33943Y4019
X33843Y3439
X34983Y4059
X34913Y4769
X35703Y4179
X35923Y4329
X36163Y4199
X36403Y4319
X36803Y4249
X37003Y4419
X36963Y4679
X36963Y4959
X37123Y5199
X37103Y5499
X36543Y5619
X36303Y5499
X35783Y5559
X35783Y5279
X35763Y4819
X35503Y6139
X35683Y6419
X35903Y6259
X35173Y6189
X34323Y5799
X34243Y6079
X36803Y7439
X37723Y6687
X37623Y6159
X37343Y6039
X37823Y5299
X38103Y5579
X38283Y6159
X38381Y6499
X38663Y6359
X38903Y6579
X37873Y7297
X34845Y10912
X34556Y11268
X34751Y11463
X34986Y11668
X35423Y11505
X35902Y11079
X36123Y11625
X36465Y11060
X36781Y11060
X37023Y11445
X37343Y11405
X37703Y10665
X38186Y10685
X38223Y11385
X38943Y10305
X37723Y9925
X37303Y10205
X36743Y10296
X36063Y10005
X34253Y11858
X33943Y12105
X33843Y11525
X34983Y12145
X34913Y12855
X35703Y12265
X35923Y12415
X36163Y12285
X36403Y12405
X36803Y12335
X37003Y12505
X36963Y12765
X36963Y13045
X37123Y13285
X37103Y13585
X36543Y13705
X36303Y13585
X35783Y13645
X35783Y13365
X35763Y12905
X35503Y14225
X35683Y14505
X35903Y14345
X35173Y14275
X34323Y13885
X34243Y14165
X36803Y15525
X37723Y14773
X37623Y14245
X37343Y14125
X37823Y13385
X38103Y13665
X38283Y14245
X38381Y14585
X38663Y14445
X38903Y14665
X37873Y15383
X34845Y18998
X34556Y19354
X34751Y19549
X34986Y19754
X35423Y19591
X35902Y19165
X36123Y19711
X36465Y19146
X36781Y19146
X37023Y19531
X37343Y19491
X37703Y18751
X38186Y18771
X38223Y19471
X38943Y18391
X37723Y18011
X37303Y18291
X36743Y18382
X36063Y18091
X34253Y19944
X33943Y20191
X33843Y19611
X34983Y20231
X34913Y20941
X35703Y20351
X35923Y20501
X36163Y20371
X36403Y20491
X36803Y20421
X37003Y20591
X36963Y20851
X36963Y21131
X37123Y21371
X37103Y21671
X36543Y21791
X36303Y21671
X35783Y21731
X35783Y21451
X35763Y20991
X35503Y22311
X35683Y22591
X35903Y22431
X35173Y22361
X34323Y21971
X34243Y22251
X36803Y23611
X37723Y22859
X37623Y22331
X37343Y22211
X37823Y21471
X38103Y21751
X38283Y22331
X38381Y22671
X38663Y22531
X38903Y22751
X37873Y23469
X34845Y27084
X34556Y27440
X34751Y27635
X34986Y27840
X35423Y27677
X35902Y27251
X36123Y27797
X36465Y27232
X36781Y27232
X37023Y27617
X37343Y27577
X37703Y26837
X38186Y26857
X38223Y27557
X38943Y26477
X37723Y26097
X37303Y26377
X36743Y26468
X36063Y26177
X34253Y28030
X33943Y28277
X33843Y27697
X34983Y28317
X34913Y29027
X35703Y28437
X35923Y28587
X36163Y28457
X36403Y28577
X36803Y28507
X37003Y28677
X36963Y28937
X36963Y29217
X37123Y29457
X37103Y29757
X36543Y29877
X36303Y29757
X35783Y29817
X35783Y29537
X35763Y29077
X35503Y30397
X35683Y30677
X35903Y30517
X35173Y30447
X34323Y30057
X34243Y30337
X36803Y31697
X37723Y30945
X37623Y30417
X37343Y30297
X37823Y29557
X38103Y29837
X38283Y30417
X38381Y30757
X38663Y30617
X38903Y30837
X37873Y31555
X34845Y35170
X34556Y35526
X34751Y35721
X34986Y35926
X35423Y35763
X35902Y35337
X36123Y35883
X36465Y35318
X36781Y35318
X37023Y35703
X37343Y35663
X37703Y34923
X38186Y34943
X38223Y35643
X38943Y34563
X37723Y34183
X37303Y34463
X36743Y34554
X36063Y34263
X34253Y36116
X33943Y36363
X33843Y35783
X34983Y36403
X34913Y37113
X35703Y36523
X35923Y36673
X36163Y36543
X36403Y36663
X36803Y36593
X37003Y36763
X36963Y37023
X36963Y37303
X37123Y37543
X37103Y37843
X36543Y37963
X36303Y37843
X35783Y37903
X35783Y37623
X35763Y37163
X35503Y38483
X35683Y38763
X35903Y38603
X35173Y38533
X34323Y38143
X34243Y38423
X36803Y39783
X37723Y39031
X37623Y38503
X37343Y38383
X37823Y37643
X38103Y37923
X38283Y38503
X38381Y38843
X38663Y38703
X38903Y38923
X37873Y39641
X34845Y43256
X34556Y43612
X34751Y43807
X34986Y44012
X35423Y43849
X35902Y43423
X36123Y43969
X36465Y43404
X36781Y43404
X37023Y43789
X37343Y43749
X37703Y43009
X38186Y43029
X38223Y43729
X38943Y42649
X37723Y42269
X37303Y42549
X36743Y42640
X36063Y42349
X34253Y44202
X33943Y44449
X33843Y43869
X34983Y44489
X34913Y45199
X35703Y44609
X35923Y44759
X36163Y44629
X36403Y44749
X36803Y44679
X37003Y44849
X36963Y45109
X36963Y45389
X37123Y45629
X37103Y45929
X36543Y46049
X36303Y45929
X35783Y45989
X35783Y45709
X35763Y45249
X35503Y46569
X35683Y46849
X35903Y46689
X35173Y46619
X34323Y46229
X34243Y46509
X36803Y47869
X37723Y47117
X37623Y46589
X37343Y46469
X37823Y45729
X38103Y46009
X38283Y46589
X38381Y46929
X38663Y46789
X38903Y47009
X37873Y47727
X34845Y51342
X34556Y51698
X34751Y51893
X34986Y52098
X35423Y51935
X35902Y51509
X36123Y52055
X36465Y51490
X36781Y51490
X37023Y51875
X37343Y51835
X37703Y51095
X38186Y51115
X38223Y51815
X38943Y50735
X37723Y50355
X37303Y50635
X36743Y50726
X36063Y50435
X34253Y52288
X33943Y52535
X33843Y51955
X34983Y52575
X34913Y53285
X35703Y52695
X35923Y52845
X36163Y52715
X36403Y52835
X36803Y52765
X37003Y52935
X36963Y53195
X36963Y53475
X37123Y53715
X37103Y54015
X36543Y54135
X36303Y54015
X35783Y54075
X35783Y53795
X35763Y53335
X35503Y54655
X35683Y54935
X35903Y54775
X35173Y54705
X34323Y54315
X34243Y54595
X36803Y55955
X37723Y55203
X37623Y54675
X37343Y54555
X37823Y53815
X38103Y54095
X38283Y54675
X38381Y55015
X38663Y54875
X38903Y55095
X37873Y55813
X34845Y59428
X34556Y59784
X34751Y59979
X34986Y60184
X35423Y60021
X35902Y59595
X36123Y60141
X36465Y59576
X36781Y59576
X37023Y59961
X37343Y59921
X37703Y59181
X38186Y59201
X38223Y59901
X38943Y58821
X37723Y58441
X37303Y58721
X36743Y58812
X36063Y58521
X34253Y60374
X33943Y60621
X33843Y60041
X34983Y60661
X34913Y61371
X35703Y60781
X35923Y60931
X36163Y60801
X36403Y60921
X36803Y60851
X37003Y61021
X36963Y61281
X36963Y61561
X37123Y61801
X37103Y62101
X36543Y62221
X36303Y62101
X35783Y62161
X35783Y61881
X35763Y61421
X35503Y62741
X35683Y63021
X35903Y62861
X35173Y62791
X34323Y62401
X34243Y62681
X36803Y64041
X37723Y63289
X37623Y62761
X37343Y62641
X37823Y61901
X38103Y62181
X38283Y62761
X38381Y63101
X38663Y62961
X38903Y63181
X37873Y63899
X34845Y67514
X34556Y67870
X34751Y68065
X34986Y68270
X35423Y68107
X35902Y67681
X36123Y68227
X36465Y67662
X36781Y67662
X37023Y68047
X37343Y68007
X37703Y67267
X38186Y67287
X38223Y67987
X38943Y66907
X37723Y66527
X37303Y66807
X36743Y66898
X36063Y66607
X34253Y68460
X33943Y68707
X33843Y68127
X34983Y68747
X34913Y69457
X35703Y68867
X35923Y69017
X36163Y68887
X36403Y69007
X36803Y68937
X37003Y69107
X36963Y69367
X36963Y69647
X37123Y69887
X37103Y70187
X36543Y70307
X36303Y70187
X35783Y70247
X35783Y69967
X35763Y69507
X35503Y70827
X35683Y71107
X35903Y70947
X35173Y70877
X34323Y70487
X34243Y70767
X36803Y72127
X37723Y71375
X37623Y70847
X37343Y70727
X37823Y69987
X38103Y70267
X38283Y70847
X38381Y71187
X38663Y71047
X38903Y71267
X37873Y71985
X34845Y75600
X34556Y75956
X34751Y76151
X34986Y76356
X35423Y76193
X35902Y75767
X36123Y76313
X36465Y75748
X36781Y75748
X37023Y76133
X37343Y76093
X37703Y75353
X38186Y75373
X38223Y76073
X38943Y74993
X37723Y74613
X37303Y74893
X36743Y74984
X36063Y74693
X34253Y76546
X33943Y76793
X33843Y76213
X34983Y76833
X34913Y77543
X35703Y76953
X35923Y77103
X36163Y76973
X36403Y77093
X36803Y77023
X37003Y77193
X36963Y77453
X36963Y77733
X37123Y77973
X37103Y78273
X36543Y78393
X36303Y78273
X35783Y78333
X35783Y78053
X35763Y77593
X35503Y78913
X35683Y79193
X35903Y79033
X35173Y78963
X34323Y78573
X34243Y78853
X36803Y80213
X37723Y79461
X37623Y78933
X37343Y78813
X37823Y78073
X38103Y78353
X38283Y78933
X38381Y79273
X38663Y79133
X38903Y79353
X37873Y80071
X42931Y2826
X42642Y3182
X42837Y3377
X43072Y3582
X43509Y3419
X43988Y2993
X44209Y3539
X44551Y2974
X44867Y2974
X45109Y3359
X45429Y3319
X45789Y2579
X46272Y2599
X46309Y3299
X47029Y2219
X45809Y1839
X45389Y2119
X44829Y2210
X44149Y1919
X42339Y3772
X42029Y4019
X41929Y3439
X43069Y4059
X42999Y4769
X43789Y4179
X44009Y4329
X44249Y4199
X44489Y4319
X44889Y4249
X45089Y4419
X45049Y4679
X45049Y4959
X45209Y5199
X45189Y5499
X44629Y5619
X44389Y5499
X43869Y5559
X43869Y5279
X43849Y4819
X43589Y6139
X43769Y6419
X43989Y6259
X43259Y6189
X42409Y5799
X42329Y6079
X44889Y7439
X45809Y6687
X45709Y6159
X45429Y6039
X45909Y5299
X46189Y5579
X46369Y6159
X46467Y6499
X46749Y6359
X46989Y6579
X45959Y7297
X42931Y10912
X42642Y11268
X42837Y11463
X43072Y11668
X43509Y11505
X43988Y11079
X44209Y11625
X44551Y11060
X44867Y11060
X45109Y11445
X45429Y11405
X45789Y10665
X46272Y10685
X46309Y11385
X47029Y10305
X45809Y9925
X45389Y10205
X44829Y10296
X44149Y10005
X42339Y11858
X42029Y12105
X41929Y11525
X43069Y12145
X42999Y12855
X43789Y12265
X44009Y12415
X44249Y12285
X44489Y12405
X44889Y12335
X45089Y12505
X45049Y12765
X45049Y13045
X45209Y13285
X45189Y13585
X44629Y13705
X44389Y13585
X43869Y13645
X43869Y13365
X43849Y12905
X43589Y14225
X43769Y14505
X43989Y14345
X43259Y14275
X42409Y13885
X42329Y14165
X44889Y15525
X45809Y14773
X45709Y14245
X45429Y14125
X45909Y13385
X46189Y13665
X46369Y14245
X46467Y14585
X46749Y14445
X46989Y14665
X45959Y15383
X42931Y18998
X42642Y19354
X42837Y19549
X43072Y19754
X43509Y19591
X43988Y19165
X44209Y19711
X44551Y19146
X44867Y19146
X45109Y19531
X45429Y19491
X45789Y18751
X46272Y18771
X46309Y19471
X47029Y18391
X45809Y18011
X45389Y18291
X44829Y18382
X44149Y18091
X42339Y19944
X42029Y20191
X41929Y19611
X43069Y20231
X42999Y20941
X43789Y20351
X44009Y20501
X44249Y20371
X44489Y20491
X44889Y20421
X45089Y20591
X45049Y20851
X45049Y21131
X45209Y21371
X45189Y21671
X44629Y21791
X44389Y21671
X43869Y21731
X43869Y21451
X43849Y20991
X43589Y22311
X43769Y22591
X43989Y22431
X43259Y22361
X42409Y21971
X42329Y22251
X44889Y23611
X45809Y22859
X45709Y22331
X45429Y22211
X45909Y21471
X46189Y21751
X46369Y22331
X46467Y22671
X46749Y22531
X46989Y22751
X45959Y23469
X42931Y27084
X42642Y27440
X42837Y27635
X43072Y27840
X43509Y27677
X43988Y27251
X44209Y27797
X44551Y27232
X44867Y27232
X45109Y27617
X45429Y27577
X45789Y26837
X46272Y26857
X46309Y27557
X47029Y26477
X45809Y26097
X45389Y26377
X44829Y26468
X44149Y26177
X42339Y28030
X42029Y28277
X41929Y27697
X43069Y28317
X42999Y29027
X43789Y28437
X44009Y28587
X44249Y28457
X44489Y28577
X44889Y28507
X45089Y28677
X45049Y28937
X45049Y29217
X45209Y29457
X45189Y29757
X44629Y29877
X44389Y29757
X43869Y29817
X43869Y29537
X43849Y29077
X43589Y30397
X43769Y30677
X43989Y30517
X43259Y30447
X42409Y30057
X42329Y30337
X44889Y31697
X45809Y30945
X45709Y30417
X45429Y30297
X45909Y29557
X46189Y29837
X46369Y30417
X46467Y30757
X46749Y30617
X46989Y30837
X45959Y31555
X42931Y35170
X42642Y35526
X42837Y35721
X43072Y35926
X43509Y35763
X43988Y35337
X44209Y35883
X44551Y35318
X44867Y35318
X45109Y35703
X45429Y35663
X45789Y34923
X46272Y34943
X46309Y35643
X47029Y34563
X45809Y34183
X45389Y34463
X44829Y34554
X44149Y34263
X42339Y36116
X42029Y36363
X41929Y35783
X43069Y36403
X42999Y37113
X43789Y36523
X44009Y36673
X44249Y36543
X44489Y36663
X44889Y36593
X45089Y36763
X45049Y37023
X45049Y37303
X45209Y37543
X45189Y37843
X44629Y37963
X44389Y37843
X43869Y37903
X43869Y37623
X43849Y37163
X43589Y38483
X43769Y38763
X43989Y38603
X43259Y38533
X42409Y38143
X42329Y38423
X44889Y39783
X45809Y39031
X45709Y38503
X45429Y38383
X45909Y37643
X46189Y37923
X46369Y38503
X46467Y38843
X46749Y38703
X46989Y38923
X45959Y39641
X42931Y43256
X42642Y43612
X42837Y43807
X43072Y44012
X43509Y43849
X43988Y43423
X44209Y43969
X44551Y43404
X44867Y43404
X45109Y43789
X45429Y43749
X45789Y43009
X46272Y43029
X46309Y43729
X47029Y42649
X45809Y42269
X45389Y42549
X44829Y42640
X44149Y42349
X42339Y44202
X42029Y44449
X41929Y43869
X43069Y44489
X42999Y45199
X43789Y44609
X44009Y44759
X44249Y44629
X44489Y44749
X44889Y44679
X45089Y44849
X45049Y45109
X45049Y45389
X45209Y45629
X45189Y45929
X44629Y46049
X44389Y45929
X43869Y45989
X43869Y45709
X43849Y45249
X43589Y46569
X43769Y46849
X43989Y46689
X43259Y46619
X42409Y46229
X42329Y46509
X44889Y47869
X45809Y47117
X45709Y46589
X45429Y46469
X45909Y45729
X46189Y46009
X46369Y46589
X46467Y46929
X46749Y46789
X46989Y47009
X45959Y47727
X42931Y51342
X42642Y51698
X42837Y51893
X43072Y52098
X43509Y51935
X43988Y51509
X44209Y52055
X44551Y51490
X44867Y51490
X45109Y51875
X45429Y51835
X45789Y51095
X46272Y51115
X46309Y51815
X47029Y50735
X45809Y50355
X45389Y50635
X44829Y50726
X44149Y50435
X42339Y52288
X42029Y52535
X41929Y51955
X43069Y52575
X42999Y53285
X43789Y52695
X44009Y52845
X44249Y52715
X44489Y52835
X44889Y52765
X45089Y52935
X45049Y53195
X45049Y53475
X45209Y53715
X45189Y54015
X44629Y54135
X44389Y54015
X43869Y54075
X43869Y53795
X43849Y53335
X43589Y54655
X43769Y54935
X43989Y54775
X43259Y54705
X42409Y54315
X42329Y54595
X44889Y55955
X45809Y55203
X45709Y54675
X45429Y54555
X45909Y53815
X46189Y54095
X46369Y54675
X46467Y55015
X46749Y54875
X46989Y55095
X45959Y55813
X42931Y59428
X42642Y59784
X42837Y59979
X43072Y60184
X43509Y60021
X43988Y59595
X44209Y60141
X44551Y59576
X44867Y59576
X45109Y59961
X45429Y59921
X45789Y59181
X46272Y59201
X46309Y59901
X47029Y58821
X45809Y58441
X45389Y58721
X44829Y58812
X44149Y58521
X42339Y60374
X42029Y60621
X41929Y60041
X43069Y60661
X42999Y61371
X43789Y60781
X44009Y60931
X44249Y60801
X44489Y60921
X44889Y60851
X45089Y61021
X45049Y61281
X45049Y61561
X45209Y61801
X45189Y62101
X44629Y62221
X44389Y62101
X43869Y62161
X43869Y61881
X43849Y61421
X43589Y62741
X43769Y63021
X43989Y62861
X43259Y62791
X42409Y62401
X42329Y62681
X44889Y64041
X45809Y63289
X45709Y62761
X45429Y62641
X45909Y61901
X46189Y62181
X46369Y62761
X46467Y63101
X46749Y62961
X46989Y63181
X45959Y63899
X42931Y67514
X42642Y67870
X42837Y68065
X43072Y68270
X43509Y68107
X43988Y67681
X44209Y68227
X44551Y67662
X44867Y67662
X45109Y68047
X45429Y68007
X45789Y67267
X46272Y67287
X46309Y67987
X47029Y66907
X45809Y66527
X45389Y66807
X44829Y66898
X44149Y66607
X42339Y68460
X42029Y68707
X41929Y68127
X43069Y68747
X42999Y69457
X43789Y68867
X44009Y69017
X44249Y68887
X44489Y69007
X44889Y68937
X45089Y69107
X45049Y69367
X45049Y69647
X45209Y69887
X45189Y70187
X44629Y70307
X44389Y70187
X43869Y70247
X43869Y69967
X43849Y69507
X43589Y70827
X43769Y71107
X43989Y70947
X43259Y70877
X42409Y70487
X42329Y70767
X44889Y72127
X45809Y71375
X45709Y70847
X45429Y70727
X45909Y69987
X46189Y70267
X46369Y70847
X46467Y71187
X46749Y71047
X46989Y71267
X45959Y71985
X42931Y75600
X42642Y75956
X42837Y76151
X43072Y76356
X43509Y76193
X43988Y75767
X44209Y76313
X44551Y75748
X44867Y75748
X45109Y76133
X45429Y76093
X45789Y75353
X46272Y75373
X46309Y76073
X47029Y74993
X45809Y74613
X45389Y74893
X44829Y74984
X44149Y74693
X42339Y76546
X42029Y76793
X41929Y76213
X43069Y76833
X42999Y77543
X43789Y76953
X44009Y77103
X44249Y76973
X44489Y77093
X44889Y77023
X45089Y77193
X45049Y77453
X45049Y77733
X45209Y77973
X45189Y78273
X44629Y78393
X44389Y78273
X43869Y78333
X43869Y78053
X43849Y77593
X43589Y78913
X43769Y79193
X43989Y79033
X43259Y78963
X42409Y78573
X42329Y78853
X44889Y80213
X45809Y79461
X45709Y78933
X45429Y78813
X45909Y78073
X46189Y78353
X46369Y78933
X46467Y79273
X46749Y79133
X46989Y79353
X45959Y80071
X51017Y2826
X50728Y3182
X50923Y3377
X51158Y3582
X51595Y3419
X52074Y2993
X52295Y3539
X52637Y2974
X52953Y2974
X53195Y3359
X53515Y3319
X53875Y2579
X54358Y2599
X54395Y3299
X55115Y2219
X53895Y1839
X53475Y2119
X52915Y2210
X52235Y1919
X50425Y3772
X50115Y4019
X50015Y3439
X51155Y4059
X51085Y4769
X51875Y4179
X52095Y4329
X52335Y4199
X52575Y4319
X52975Y4249
X53175Y4419
X53135Y4679
X53135Y4959
X53295Y5199
X53275Y5499
X52715Y5619
X52475Y5499
X51955Y5559
X51955Y5279
X51935Y4819
X51675Y6139
X51855Y6419
X52075Y6259
X51345Y6189
X50495Y5799
X50415Y6079
X52975Y7439
X53895Y6687
X53795Y6159
X53515Y6039
X53995Y5299
X54275Y5579
X54455Y6159
X54553Y6499
X54835Y6359
X55075Y6579
X54045Y7297
X51017Y10912
X50728Y11268
X50923Y11463
X51158Y11668
X51595Y11505
X52074Y11079
X52295Y11625
X52637Y11060
X52953Y11060
X53195Y11445
X53515Y11405
X53875Y10665
X54358Y10685
X54395Y11385
X55115Y10305
X53895Y9925
X53475Y10205
X52915Y10296
X52235Y10005
X50425Y11858
X50115Y12105
X50015Y11525
X51155Y12145
X51085Y12855
X51875Y12265
X52095Y12415
X52335Y12285
X52575Y12405
X52975Y12335
X53175Y12505
X53135Y12765
X53135Y13045
X53295Y13285
X53275Y13585
X52715Y13705
X52475Y13585
X51955Y13645
X51955Y13365
X51935Y12905
X51675Y14225
X51855Y14505
X52075Y14345
X51345Y14275
X50495Y13885
X50415Y14165
X52975Y15525
X53895Y14773
X53795Y14245
X53515Y14125
X53995Y13385
X54275Y13665
X54455Y14245
X54553Y14585
X54835Y14445
X55075Y14665
X54045Y15383
X51017Y18998
X50728Y19354
X50923Y19549
X51158Y19754
X51595Y19591
X52074Y19165
X52295Y19711
X52637Y19146
X52953Y19146
X53195Y19531
X53515Y19491
X53875Y18751
X54358Y18771
X54395Y19471
X55115Y18391
X53895Y18011
X53475Y18291
X52915Y18382
X52235Y18091
X50425Y19944
X50115Y20191
X50015Y19611
X51155Y20231
X51085Y20941
X51875Y20351
X52095Y20501
X52335Y20371
X52575Y20491
X52975Y20421
X53175Y20591
X53135Y20851
X53135Y21131
X53295Y21371
X53275Y21671
X52715Y21791
X52475Y21671
X51955Y21731
X51955Y21451
X51935Y20991
X51675Y22311
X51855Y22591
X52075Y22431
X51345Y22361
X50495Y21971
X50415Y22251
X52975Y23611
X53895Y22859
X53795Y22331
X53515Y22211
X53995Y21471
X54275Y21751
X54455Y22331
X54553Y22671
X54835Y22531
X55075Y22751
X54045Y23469
X51017Y27084
X50728Y27440
X50923Y27635
X51158Y27840
X51595Y27677
X52074Y27251
X52295Y27797
X52637Y27232
X52953Y27232
X53195Y27617
X53515Y27577
X53875Y26837
X54358Y26857
X54395Y27557
X55115Y26477
X53895Y26097
X53475Y26377
X52915Y26468
X52235Y26177
X50425Y28030
X50115Y28277
X50015Y27697
X51155Y28317
X51085Y29027
X51875Y28437
X52095Y28587
X52335Y28457
X52575Y28577
X52975Y28507
X53175Y28677
X53135Y28937
X53135Y29217
X53295Y29457
X53275Y29757
X52715Y29877
X52475Y29757
X51955Y29817
X51955Y29537
X51935Y29077
X51675Y30397
X51855Y30677
X52075Y30517
X51345Y30447
X50495Y30057
X50415Y30337
X52975Y31697
X53895Y30945
X53795Y30417
X53515Y30297
X53995Y29557
X54275Y29837
X54455Y30417
X54553Y30757
X54835Y30617
X55075Y30837
X54045Y31555
X51017Y35170
X50728Y35526
X50923Y35721
X51158Y35926
X51595Y35763
X52074Y35337
X52295Y35883
X52637Y35318
X52953Y35318
X53195Y35703
X53515Y35663
X53875Y34923
X54358Y34943
X54395Y35643
X55115Y34563
X53895Y34183
X53475Y34463
X52915Y34554
X52235Y34263
X50425Y36116
X50115Y36363
X50015Y35783
X51155Y36403
X51085Y37113
X51875Y36523
X52095Y36673
X52335Y36543
X52575Y36663
X52975Y36593
X53175Y36763
X53135Y37023
X53135Y37303
X53295Y37543
X53275Y37843
X52715Y37963
X52475Y37843
X51955Y37903
X51955Y37623
X51935Y37163
X51675Y38483
X51855Y38763
X52075Y38603
X51345Y38533
X50495Y38143
X50415Y38423
X52975Y39783
X53895Y39031
X53795Y38503
X53515Y38383
X53995Y37643
X54275Y37923
X54455Y38503
X54553Y38843
X54835Y38703
X55075Y38923
X54045Y39641
X51017Y43256
X50728Y43612
X50923Y43807
X51158Y44012
X51595Y43849
X52074Y43423
X52295Y43969
X52637Y43404
X52953Y43404
X53195Y43789
X53515Y43749
X53875Y43009
X54358Y43029
X54395Y43729
X55115Y42649
X53895Y42269
X53475Y42549
X52915Y42640
X52235Y42349
X50425Y44202
X50115Y44449
X50015Y43869
X51155Y44489
X51085Y45199
X51875Y44609
X52095Y44759
X52335Y44629
X52575Y44749
X52975Y44679
X53175Y44849
X53135Y45109
X53135Y45389
X53295Y45629
X53275Y45929
X52715Y46049
X52475Y45929
X51955Y45989
X51955Y45709
X51935Y45249
X51675Y46569
X51855Y46849
X52075Y46689
X51345Y46619
X50495Y46229
X50415Y46509
X52975Y47869
X53895Y47117
X53795Y46589
X53515Y46469
X53995Y45729
X54275Y46009
X54455Y46589
X54553Y46929
X54835Y46789
X55075Y47009
X54045Y47727
X51017Y51342
X50728Y51698
X50923Y51893
X51158Y52098
X51595Y51935
X52074Y51509
X52295Y52055
X52637Y51490
X52953Y51490
X53195Y51875
X53515Y51835
X53875Y51095
X54358Y51115
X54395Y51815
X55115Y50735
X53895Y50355
X53475Y50635
X52915Y50726
X52235Y50435
X50425Y52288
X50115Y52535
X50015Y51955
X51155Y52575
X51085Y53285
X51875Y52695
X52095Y52845
X52335Y52715
X52575Y52835
X52975Y52765
X53175Y52935
X53135Y53195
X53135Y53475
X53295Y53715
X53275Y54015
X52715Y54135
X52475Y54015
X51955Y54075
X51955Y53795
X51935Y53335
X51675Y54655
X51855Y54935
X52075Y54775
X51345Y54705
X50495Y54315
X50415Y54595
X52975Y55955
X53895Y55203
X53795Y54675
X53515Y54555
X53995Y53815
X54275Y54095
X54455Y54675
X54553Y55015
X54835Y54875
X55075Y55095
X54045Y55813
X51017Y59428
X50728Y59784
X50923Y59979
X51158Y60184
X51595Y60021
X52074Y59595
X52295Y60141
X52637Y59576
X52953Y59576
X53195Y59961
X53515Y59921
X53875Y59181
X54358Y59201
X54395Y59901
X55115Y58821
X53895Y58441
X53475Y58721
X52915Y58812
X52235Y58521
X50425Y60374
X50115Y60621
X50015Y60041
X51155Y60661
X51085Y61371
X51875Y60781
X52095Y60931
X52335Y60801
X52575Y60921
X52975Y60851
X53175Y61021
X53135Y61281
X53135Y61561
X53295Y61801
X53275Y62101
X52715Y62221
X52475Y62101
X51955Y62161
X51955Y61881
X51935Y61421
X51675Y62741
X51855Y63021
X52075Y62861
X51345Y62791
X50495Y62401
X50415Y62681
X52975Y64041
X53895Y63289
X53795Y62761
X53515Y62641
X53995Y61901
X54275Y62181
X54455Y62761
X54553Y63101
X54835Y62961
X55075Y63181
X54045Y63899
X51017Y67514
X50728Y67870
X50923Y68065
X51158Y68270
X51595Y68107
X52074Y67681
X52295Y68227
X52637Y67662
X52953Y67662
X53195Y68047
X53515Y68007
X53875Y67267
X54358Y67287
X54395Y67987
X55115Y66907
X53895Y66527
X53475Y66807
X52915Y66898
X52235Y66607
X50425Y68460
X50115Y68707
X50015Y68127
X51155Y68747
X51085Y69457
X51875Y68867
X52095Y69017
X52335Y68887
X52575Y69007
X52975Y68937
X53175Y69107
X53135Y69367
X53135Y69647
X53295Y69887
X53275Y70187
X52715Y70307
X52475Y70187
X51955Y70247
X51955Y69967
X51935Y69507
X51675Y70827
X51855Y71107
X52075Y70947
X51345Y70877
X50495Y70487
X50415Y70767
X52975Y72127
X53895Y71375
X53795Y70847
X53515Y70727
X53995Y69987
X54275Y70267
X54455Y70847
X54553Y71187
X54835Y71047
X55075Y71267
X54045Y71985
X51017Y75600
X50728Y75956
X50923Y76151
X51158Y76356
X51595Y76193
X52074Y75767
X52295Y76313
X52637Y75748
X52953Y75748
X53195Y76133
X53515Y76093
X53875Y75353
X54358Y75373
X54395Y76073
X55115Y74993
X53895Y74613
X53475Y74893
X52915Y74984
X52235Y74693
X50425Y76546
X50115Y76793
X50015Y76213
X51155Y76833
X51085Y77543
X51875Y76953
X52095Y77103
X52335Y76973
X52575Y77093
X52975Y77023
X53175Y77193
X53135Y77453
X53135Y77733
X53295Y77973
X53275Y78273
X52715Y78393
X52475Y78273
X51955Y78333
X51955Y78053
X51935Y77593
X51675Y78913
X51855Y79193
X52075Y79033
X51345Y78963
X50495Y78573
X50415Y78853
X52975Y80213
X53895Y79461
X53795Y78933
X53515Y78813
X53995Y78073
X54275Y78353
X54455Y78933
X54553Y79273
X54835Y79133
X55075Y79353
X54045Y80071
X59103Y2826
X58814Y3182
X59009Y3377
X59244Y3582
X59681Y3419
X60160Y2993
X60381Y3539
X60723Y2974
X61039Y2974
X61281Y3359
X61601Y3319
X61961Y2579
X62444Y2599
X62481Y3299
X63201Y2219
X61981Y1839
X61561Y2119
X61001Y2210
X60321Y1919
X58511Y3772
X58201Y4019
X58101Y3439
X59241Y4059
X59171Y4769
X59961Y4179
X60181Y4329
X60421Y4199
X60661Y4319
X61061Y4249
X61261Y4419
X61221Y4679
X61221Y4959
X61381Y5199
X61361Y5499
X60801Y5619
X60561Y5499
X60041Y5559
X60041Y5279
X60021Y4819
X59761Y6139
X59941Y6419
X60161Y6259
X59431Y6189
X58581Y5799
X58501Y6079
X61061Y7439
X61981Y6687
X61881Y6159
X61601Y6039
X62081Y5299
X62361Y5579
X62541Y6159
X62639Y6499
X62921Y6359
X63161Y6579
X62131Y7297
X59103Y10912
X58814Y11268
X59009Y11463
X59244Y11668
X59681Y11505
X60160Y11079
X60381Y11625
X60723Y11060
X61039Y11060
X61281Y11445
X61601Y11405
X61961Y10665
X62444Y10685
X62481Y11385
X63201Y10305
X61981Y9925
X61561Y10205
X61001Y10296
X60321Y10005
X58511Y11858
X58201Y12105
X58101Y11525
X59241Y12145
X59171Y12855
X59961Y12265
X60181Y12415
X60421Y12285
X60661Y12405
X61061Y12335
X61261Y12505
X61221Y12765
X61221Y13045
X61381Y13285
X61361Y13585
X60801Y13705
X60561Y13585
X60041Y13645
X60041Y13365
X60021Y12905
X59761Y14225
X59941Y14505
X60161Y14345
X59431Y14275
X58581Y13885
X58501Y14165
X61061Y15525
X61981Y14773
X61881Y14245
X61601Y14125
X62081Y13385
X62361Y13665
X62541Y14245
X62639Y14585
X62921Y14445
X63161Y14665
X62131Y15383
X59103Y18998
X58814Y19354
X59009Y19549
X59244Y19754
X59681Y19591
X60160Y19165
X60381Y19711
X60723Y19146
X61039Y19146
X61281Y19531
X61601Y19491
X61961Y18751
X62444Y18771
X62481Y19471
X63201Y18391
X61981Y18011
X61561Y18291
X61001Y18382
X60321Y18091
X58511Y19944
X58201Y20191
X58101Y19611
X59241Y20231
X59171Y20941
X59961Y20351
X60181Y20501
X60421Y20371
X60661Y20491
X61061Y20421
X61261Y20591
X61221Y20851
X61221Y21131
X61381Y21371
X61361Y21671
X60801Y21791
X60561Y21671
X60041Y21731
X60041Y21451
X60021Y20991
X59761Y22311
X59941Y22591
X60161Y22431
X59431Y22361
X58581Y21971
X58501Y22251
X61061Y23611
X61981Y22859
X61881Y22331
X61601Y22211
X62081Y21471
X62361Y21751
X62541Y22331
X62639Y22671
X62921Y22531
X63161Y22751
X62131Y23469
X59103Y27084
X58814Y27440
X59009Y27635
X59244Y27840
X59681Y27677
X60160Y27251
X60381Y27797
X60723Y27232
X61039Y27232
X61281Y27617
X61601Y27577
X61961Y26837
X62444Y26857
X62481Y27557
X63201Y26477
X61981Y26097
X61561Y26377
X61001Y26468
X60321Y26177
X58511Y28030
X58201Y28277
X58101Y27697
X59241Y28317
X59171Y29027
X59961Y28437
X60181Y28587
X60421Y28457
X60661Y28577
X61061Y28507
X61261Y28677
X61221Y28937
X61221Y29217
X61381Y29457
X61361Y29757
X60801Y29877
X60561Y29757
X60041Y29817
X60041Y29537
X60021Y29077
X59761Y30397
X59941Y30677
X60161Y30517
X59431Y30447
X58581Y30057
X58501Y30337
X61061Y31697
X61981Y30945
X61881Y30417
X61601Y30297
X62081Y29557
X62361Y29837
X62541Y30417
X62639Y30757
X62921Y30617
X63161Y30837
X62131Y31555
X59103Y35170
X58814Y35526
X59009Y35721
X59244Y35926
X59681Y35763
X60160Y35337
X60381Y35883
X60723Y35318
X61039Y35318
X61281Y35703
X61601Y35663
X61961Y34923
X62444Y34943
X62481Y35643
X63201Y34563
X61981Y34183
X61561Y34463
X61001Y34554
X60321Y34263
X58511Y36116
X58201Y36363
X58101Y35783
X59241Y36403
X59171Y37113
X59961Y36523
X60181Y36673
X60421Y36543
X60661Y36663
X61061Y36593
X61261Y36763
X61221Y37023
X61221Y37303
X61381Y37543
X61361Y37843
X60801Y37963
X60561Y37843
X60041Y37903
X60041Y37623
X60021Y37163
X59761Y38483
X59941Y38763
X60161Y38603
X59431Y38533
X58581Y38143
X58501Y38423
X61061Y39783
X61981Y39031
X61881Y38503
X61601Y38383
X62081Y37643
X62361Y37923
X62541Y38503
X62639Y38843
X62921Y38703
X63161Y38923
X62131Y39641
X59103Y43256
X58814Y43612
X59009Y43807
X59244Y44012
X59681Y43849
X60160Y43423
X60381Y43969
X60723Y43404
X61039Y43404
X61281Y43789
X61601Y43749
X61961Y43009
X62444Y43029
X62481Y43729
X63201Y42649
X61981Y42269
X61561Y42549
X61001Y42640
X60321Y42349
X58511Y44202
X58201Y44449
X58101Y43869
X59241Y44489
X59171Y45199
X59961Y44609
X60181Y44759
X60421Y44629
X60661Y44749
X61061Y44679
X61261Y44849
X61221Y45109
X61221Y45389
X61381Y45629
X61361Y45929
X60801Y46049
X60561Y45929
X60041Y45989
X60041Y45709
X60021Y45249
X59761Y46569
X59941Y46849
X60161Y46689
X59431Y46619
X58581Y46229
X58501Y46509
X61061Y47869
X61981Y47117
X61881Y46589
X61601Y46469
X62081Y45729
X62361Y46009
X62541Y46589
X62639Y46929
X62921Y46789
X63161Y47009
X62131Y47727
X59103Y51342
X58814Y51698
X59009Y51893
X59244Y52098
X59681Y51935
X60160Y51509
X60381Y52055
X60723Y51490
X61039Y51490
X61281Y51875
X61601Y51835
X61961Y51095
X62444Y51115
X62481Y51815
X63201Y50735
X61981Y50355
X61561Y50635
X61001Y50726
X60321Y50435
X58511Y52288
X58201Y52535
X58101Y51955
X59241Y52575
X59171Y53285
X59961Y52695
X60181Y52845
X60421Y52715
X60661Y52835
X61061Y52765
X61261Y52935
X61221Y53195
X61221Y53475
X61381Y53715
X61361Y54015
X60801Y54135
X60561Y54015
X60041Y54075
X60041Y53795
X60021Y53335
X59761Y54655
X59941Y54935
X60161Y54775
X59431Y54705
X58581Y54315
X58501Y54595
X61061Y55955
X61981Y55203
X61881Y54675
X61601Y54555
X62081Y53815
X62361Y54095
X62541Y54675
X62639Y55015
X62921Y54875
X63161Y55095
X62131Y55813
X59103Y59428
X58814Y59784
X59009Y59979
X59244Y60184
X59681Y60021
X60160Y59595
X60381Y60141
X60723Y59576
X61039Y59576
X61281Y59961
X61601Y59921
X61961Y59181
X62444Y59201
X62481Y59901
X63201Y58821
X61981Y58441
X61561Y58721
X61001Y58812
X60321Y58521
X58511Y60374
X58201Y60621
X58101Y60041
X59241Y60661
X59171Y61371
X59961Y60781
X60181Y60931
X60421Y60801
X60661Y60921
X61061Y60851
X61261Y61021
X61221Y61281
X61221Y61561
X61381Y61801
X61361Y62101
X60801Y62221
X60561Y62101
X60041Y62161
X60041Y61881
X60021Y61421
X59761Y62741
X59941Y63021
X60161Y62861
X59431Y62791
X58581Y62401
X58501Y62681
X61061Y64041
X61981Y63289
X61881Y62761
X61601Y62641
X62081Y61901
X62361Y62181
X62541Y62761
X62639Y63101
X62921Y62961
X63161Y63181
X62131Y63899
X59103Y67514
X58814Y67870
X59009Y68065
X59244Y68270
X59681Y68107
X60160Y67681
X60381Y68227
X60723Y67662
X61039Y67662
X61281Y68047
X61601Y68007
X61961Y67267
X62444Y67287
X62481Y67987
X63201Y66907
X61981Y66527
X61561Y66807
X61001Y66898
X60321Y66607
X58511Y68460
X58201Y68707
X58101Y68127
X59241Y68747
X59171Y69457
X59961Y68867
X60181Y69017
X60421Y68887
X60661Y69007
X61061Y68937
X61261Y69107
X61221Y69367
X61221Y69647
X61381Y69887
X61361Y70187
X60801Y70307
X60561Y70187
X60041Y70247
X60041Y69967
X60021Y69507
X59761Y70827
X59941Y71107
X60161Y70947
X59431Y70877
X58581Y70487
X58501Y70767
X61061Y72127
X61981Y71375
X61881Y70847
X61601Y70727
X62081Y69987
X62361Y70267
X62541Y70847
X62639Y71187
X62921Y71047
X63161Y71267
X62131Y71985
X59103Y75600
X58814Y75956
X59009Y76151
X59244Y76356
X59681Y76193
X60160Y75767
X60381Y76313
X60723Y75748
X61039Y75748
X61281Y76133
X61601Y76093
X61961Y75353
X62444Y75373
X62481Y76073
X63201Y74993
X61981Y74613
X61561Y74893
X61001Y74984
X60321Y74693
X58511Y76546
X58201Y76793
X58101Y76213
X59241Y76833
X59171Y77543
X59961Y76953
X60181Y77103
X60421Y76973
X60661Y77093
X61061Y77023
X61261Y77193
X61221Y77453
X61221Y77733
X61381Y77973
X61361Y78273
X60801Y78393
X60561Y78273
X60041Y78333
X60041Y78053
X60021Y77593
X59761Y78913
X59941Y79193
X60161Y79033
X59431Y78963
X58581Y78573
X58501Y78853
X61061Y80213
X61981Y79461
X61881Y78933
X61601Y78813
X62081Y78073
X62361Y78353
X62541Y78933
X62639Y79273
X62921Y79133
X63161Y79353
X62131Y80071
X67189Y2826
X66900Y3182
X67095Y3377
X67330Y3582
X67767Y3419
X68246Y2993
X68467Y3539
X68809Y2974
X69125Y2974
X69367Y3359
X69687Y3319
X70047Y2579
X70530Y2599
X70567Y3299
X71287Y2219
X70067Y1839
X69647Y2119
X69087Y2210
X68407Y1919
X66597Y3772
X66287Y4019
X66187Y3439
X67327Y4059
X67257Y4769
X68047Y4179
X68267Y4329
X68507Y4199
X68747Y4319
X69147Y4249
X69347Y4419
X69307Y4679
X69307Y4959
X69467Y5199
X69447Y5499
X68887Y5619
X68647Y5499
X68127Y5559
X68127Y5279
X68107Y4819
X67847Y6139
X68027Y6419
X68247Y6259
X67517Y6189
X66667Y5799
X66587Y6079
X69147Y7439
X70067Y6687
X69967Y6159
X69687Y6039
X70167Y5299
X70447Y5579
X70627Y6159
X70725Y6499
X71007Y6359
X71247Y6579
X70217Y7297
X67189Y10912
X66900Y11268
X67095Y11463
X67330Y11668
X67767Y11505
X68246Y11079
X68467Y11625
X68809Y11060
X69125Y11060
X69367Y11445
X69687Y11405
X70047Y10665
X70530Y10685
X70567Y11385
X71287Y10305
X70067Y9925
X69647Y10205
X69087Y10296
X68407Y10005
X66597Y11858
X66287Y12105
X66187Y11525
X67327Y12145
X67257Y12855
X68047Y12265
X68267Y12415
X68507Y12285
X68747Y12405
X69147Y12335
X69347Y12505
X69307Y12765
X69307Y13045
X69467Y13285
X69447Y13585
X68887Y13705
X68647Y13585
X68127Y13645
X68127Y13365
X68107Y12905
X67847Y14225
X68027Y14505
X68247Y14345
X67517Y14275
X66667Y13885
X66587Y14165
X69147Y15525
X70067Y14773
X69967Y14245
X69687Y14125
X70167Y13385
X70447Y13665
X70627Y14245
X70725Y14585
X71007Y14445
X71247Y14665
X70217Y15383
X67189Y18998
X66900Y19354
X67095Y19549
X67330Y19754
X67767Y19591
X68246Y19165
X68467Y19711
X68809Y19146
X69125Y19146
X69367Y19531
X69687Y19491
X70047Y18751
X70530Y18771
X70567Y19471
X71287Y18391
X70067Y18011
X69647Y18291
X69087Y18382
X68407Y18091
X66597Y19944
X66287Y20191
X66187Y19611
X67327Y20231
X67257Y20941
X68047Y20351
X68267Y20501
X68507Y20371
X68747Y20491
X69147Y20421
X69347Y20591
X69307Y20851
X69307Y21131
X69467Y21371
X69447Y21671
X68887Y21791
X68647Y21671
X68127Y21731
X68127Y21451
X68107Y20991
X67847Y22311
X68027Y22591
X68247Y22431
X67517Y22361
X66667Y21971
X66587Y22251
X69147Y23611
X70067Y22859
X69967Y22331
X69687Y22211
X70167Y21471
X70447Y21751
X70627Y22331
X70725Y22671
X71007Y22531
X71247Y22751
X70217Y23469
X67189Y27084
X66900Y27440
X67095Y27635
X67330Y27840
X67767Y27677
X68246Y27251
X68467Y27797
X68809Y27232
X69125Y27232
X69367Y27617
X69687Y27577
X70047Y26837
X70530Y26857
X70567Y27557
X71287Y26477
X70067Y26097
X69647Y26377
X69087Y26468
X68407Y26177
X66597Y28030
X66287Y28277
X66187Y27697
X67327Y28317
X67257Y29027
X68047Y28437
X68267Y28587
X68507Y28457
X68747Y28577
X69147Y28507
X69347Y28677
X69307Y28937
X69307Y29217
X69467Y29457
X69447Y29757
X68887Y29877
X68647Y29757
X68127Y29817
X68127Y29537
X68107Y29077
X67847Y30397
X68027Y30677
X68247Y30517
X67517Y30447
X66667Y30057
X66587Y30337
X69147Y31697
X70067Y30945
X69967Y30417
X69687Y30297
X70167Y29557
X70447Y29837
X70627Y30417
X70725Y30757
X71007Y30617
X71247Y30837
X70217Y31555
X67189Y35170
X66900Y35526
X67095Y35721
X67330Y35926
X67767Y35763
X68246Y35337
X68467Y35883
X68809Y35318
X69125Y35318
X69367Y35703
X69687Y35663
X70047Y34923
X70530Y34943
X70567Y35643
X71287Y34563
X70067Y34183
X69647Y34463
X69087Y34554
X68407Y34263
X66597Y36116
X66287Y36363
X66187Y35783
X67327Y36403
X67257Y37113
X68047Y36523
X68267Y36673
X68507Y36543
X68747Y36663
X69147Y36593
X69347Y36763
X69307Y37023
X69307Y37303
X69467Y37543
X69447Y37843
X68887Y37963
X68647Y37843
X68127Y37903
X68127Y37623
X68107Y37163
X67847Y38483
X68027Y38763
X68247Y38603
X67517Y38533
X66667Y38143
X66587Y38423
X69147Y39783
X70067Y39031
X69967Y38503
X69687Y38383
X70167Y37643
X70447Y37923
X70627Y38503
X70725Y38843
X71007Y38703
X71247Y38923
X70217Y39641
X67189Y43256
X66900Y43612
X67095Y43807
X67330Y44012
X67767Y43849
X68246Y43423
X68467Y43969
X68809Y43404
X69125Y43404
X69367Y43789
X69687Y43749
X70047Y43009
X70530Y43029
X70567Y43729
X71287Y42649
X70067Y42269
X69647Y42549
X69087Y42640
X68407Y42349
X66597Y44202
X66287Y44449
X66187Y43869
X67327Y44489
X67257Y45199
X68047Y44609
X68267Y44759
X68507Y44629
X68747Y44749
X69147Y44679
X69347Y44849
X69307Y45109
X69307Y45389
X69467Y45629
X69447Y45929
X68887Y46049
X68647Y45929
X68127Y45989
X68127Y45709
X68107Y45249
X67847Y46569
X68027Y46849
X68247Y46689
X67517Y46619
X66667Y46229
X66587Y46509
X69147Y47869
X70067Y47117
X69967Y46589
X69687Y46469
X70167Y45729
X70447Y46009
X70627Y46589
X70725Y46929
X71007Y46789
X71247Y47009
X70217Y47727
X67189Y51342
X66900Y51698
X67095Y51893
X67330Y52098
X67767Y51935
X68246Y51509
X68467Y52055
X68809Y51490
X69125Y51490
X69367Y51875
X69687Y51835
X70047Y51095
X70530Y51115
X70567Y51815
X71287Y50735
X70067Y50355
X69647Y50635
X69087Y50726
X68407Y50435
X66597Y52288
X66287Y52535
X66187Y51955
X67327Y52575
X67257Y53285
X68047Y52695
X68267Y52845
X68507Y52715
X68747Y52835
X69147Y52765
X69347Y52935
X69307Y53195
X69307Y53475
X69467Y53715
X69447Y54015
X68887Y54135
X68647Y54015
X68127Y54075
X68127Y53795
X68107Y53335
X67847Y54655
X68027Y54935
X68247Y54775
X67517Y54705
X66667Y54315
X66587Y54595
X69147Y55955
X70067Y55203
X69967Y54675
X69687Y54555
X70167Y53815
X70447Y54095
X70627Y54675
X70725Y55015
X71007Y54875
X71247Y55095
X70217Y55813
X67189Y59428
X66900Y59784
X67095Y59979
X67330Y60184
X67767Y60021
X68246Y59595
X68467Y60141
X68809Y59576
X69125Y59576
X69367Y59961
X69687Y59921
X70047Y59181
X70530Y59201
X70567Y59901
X71287Y58821
X70067Y58441
X69647Y58721
X69087Y58812
X68407Y58521
X66597Y60374
X66287Y60621
X66187Y60041
X67327Y60661
X67257Y61371
X68047Y60781
X68267Y60931
X68507Y60801
X68747Y60921
X69147Y60851
X69347Y61021
X69307Y61281
X69307Y61561
X69467Y61801
X69447Y62101
X68887Y62221
X68647Y62101
X68127Y62161
X68127Y61881
X68107Y61421
X67847Y62741
X68027Y63021
X68247Y62861
X67517Y62791
X66667Y62401
X66587Y62681
X69147Y64041
X70067Y63289
X69967Y62761
X69687Y62641
X70167Y61901
X70447Y62181
X70627Y62761
X70725Y63101
X71007Y62961
X71247Y63181
X70217Y63899
X67189Y67514
X66900Y67870
X67095Y68065
X67330Y68270
X67767Y68107
X68246Y67681
X68467Y68227
X68809Y67662
X69125Y67662
X69367Y68047
X69687Y68007
X70047Y67267
X70530Y67287
X70567Y67987
X71287Y66907
X70067Y66527
X69647Y66807
X69087Y66898
X68407Y66607
X66597Y68460
X66287Y68707
X66187Y68127
X67327Y68747
X67257Y69457
X68047Y68867
X68267Y69017
X68507Y68887
X68747Y69007
X69147Y68937
X69347Y69107
X69307Y69367
X69307Y69647
X69467Y69887
X69447Y70187
X68887Y70307
X68647Y70187
X68127Y70247
X68127Y69967
X68107Y69507
X67847Y70827
X68027Y71107
X68247Y70947
X67517Y70877
X66667Y70487
X66587Y70767
X69147Y72127
X70067Y71375
X69967Y70847
X69687Y70727
X70167Y69987
X70447Y70267
X70627Y70847
X70725Y71187
X71007Y71047
X71247Y71267
X70217Y71985
X67189Y75600
X66900Y75956
X67095Y76151
X67330Y76356
X67767Y76193
X68246Y75767
X68467Y76313
X68809Y75748
X69125Y75748
X69367Y76133
X69687Y76093
X70047Y75353
X70530Y75373
X70567Y76073
X71287Y74993
X70067Y74613
X69647Y74893
X69087Y74984
X68407Y74693
X66597Y76546
X66287Y76793
X66187Y76213
X67327Y76833
X67257Y77543
X68047Y76953
X68267Y77103
X68507Y76973
X68747Y77093
X69147Y77023
X69347Y77193
X69307Y77453
X69307Y77733
X69467Y77973
X69447Y78273
X68887Y78393
X68647Y78273
X68127Y78333
X68127Y78053
X68107Y77593
X67847Y78913
X68027Y79193
X68247Y79033
X67517Y78963
X66667Y78573
X66587Y78853
X69147Y80213
X70067Y79461
X69967Y78933
X69687Y78813
X70167Y78073
X70447Y78353
X70627Y78933
X70725Y79273
X71007Y79133
X71247Y79353
X70217Y80071
X75275Y2826
X74986Y3182
X75181Y3377
X75416Y3582
X75853Y3419
X76332Y2993
X76553Y3539
X76895Y2974
X77211Y2974
X77453Y3359
X77773Y3319
X78133Y2579
X78616Y2599
X78653Y3299
X79373Y2219
X78153Y1839
X77733Y2119
X77173Y2210
X76493Y1919
X74683Y3772
X74373Y4019
X74273Y3439
X75413Y4059
X75343Y4769
X76133Y4179
X76353Y4329
X76593Y4199
X76833Y4319
X77233Y4249
X77433Y4419
X77393Y4679
X77393Y4959
X77553Y5199
X77533Y5499
X76973Y5619
X76733Y5499
X76213Y5559
X76213Y5279
X76193Y4819
X75933Y6139
X76113Y6419
X76333Y6259
X75603Y6189
X74753Y5799
X74673Y6079
X77233Y7439
X78153Y6687
X78053Y6159
X77773Y6039
X78253Y5299
X78533Y5579
X78713Y6159
X78811Y6499
X79093Y6359
X79333Y6579
X78303Y7297
X75275Y10912
X74986Y11268
X75181Y11463
X75416Y11668
X75853Y11505
X76332Y11079
X76553Y11625
X76895Y11060
X77211Y11060
X77453Y11445
X77773Y11405
X78133Y10665
X78616Y10685
X78653Y11385
X79373Y10305
X78153Y9925
X77733Y10205
X77173Y10296
X76493Y10005
X74683Y11858
X74373Y12105
X74273Y11525
X75413Y12145
X75343Y12855
X76133Y12265
X76353Y12415
X76593Y12285
X76833Y12405
X77233Y12335
X77433Y12505
X77393Y12765
X77393Y13045
X77553Y13285
X77533Y13585
X76973Y13705
X76733Y13585
X76213Y13645
X76213Y13365
X76193Y12905
X75933Y14225
X76113Y14505
X76333Y14345
X75603Y14275
X74753Y13885
X74673Y14165
X77233Y15525
X78153Y14773
X78053Y14245
X77773Y14125
X78253Y13385
X78533Y13665
X78713Y14245
X78811Y14585
X79093Y14445
X79333Y14665
X78303Y15383
X75275Y18998
X74986Y19354
X75181Y19549
X75416Y19754
X75853Y19591
X76332Y19165
X76553Y19711
X76895Y19146
X77211Y19146
X77453Y19531
X77773Y19491
X78133Y18751
X78616Y18771
X78653Y19471
X79373Y18391
X78153Y18011
X77733Y18291
X77173Y18382
X76493Y18091
X74683Y19944
X74373Y20191
X74273Y19611
X75413Y20231
X75343Y20941
X76133Y20351
X76353Y20501
X76593Y20371
X76833Y20491
X77233Y20421
X77433Y20591
X77393Y20851
X77393Y21131
X77553Y21371
X77533Y21671
X76973Y21791
X76733Y21671
X76213Y21731
X76213Y21451
X76193Y20991
X75933Y22311
X76113Y22591
X76333Y22431
X75603Y22361
X74753Y21971
X74673Y22251
X77233Y23611
X78153Y22859
X78053Y22331
X77773Y22211
X78253Y21471
X78533Y21751
X78713Y22331
X78811Y22671
X79093Y22531
X79333Y22751
X78303Y23469
X75275Y27084
X74986Y27440
X75181Y27635
X75416Y27840
X75853Y27677
X76332Y27251
X76553Y27797
X76895Y27232
X77211Y27232
X77453Y27617
X77773Y27577
X78133Y26837
X78616Y26857
X78653Y27557
X79373Y26477
X78153Y26097
X77733Y26377
X77173Y26468
X76493Y26177
X74683Y28030
X74373Y28277
X74273Y27697
X75413Y28317
X75343Y29027
X76133Y28437
X76353Y28587
X76593Y28457
X76833Y28577
X77233Y28507
X77433Y28677
X77393Y28937
X77393Y29217
X77553Y29457
X77533Y29757
X76973Y29877
X76733Y29757
X76213Y29817
X76213Y29537
X76193Y29077
X75933Y30397
X76113Y30677
X76333Y30517
X75603Y30447
X74753Y30057
X74673Y30337
X77233Y31697
X78153Y30945
X78053Y30417
X77773Y30297
X78253Y29557
X78533Y29837
X78713Y30417
X78811Y30757
X79093Y30617
X79333Y30837
X78303Y31555
X75275Y35170
X74986Y35526
X75181Y35721
X75416Y35926
X75853Y35763
X76332Y35337
X76553Y35883
X76895Y35318
X77211Y35318
X77453Y35703
X77773Y35663
X78133Y34923
X78616Y34943
X78653Y35643
X79373Y34563
X78153Y34183
X77733Y34463
X77173Y34554
X76493Y34263
X74683Y36116
X74373Y36363
X74273Y35783
X75413Y36403
X75343Y37113
X76133Y36523
X76353Y36673
X76593Y36543
X76833Y36663
X77233Y36593
X77433Y36763
X77393Y37023
X77393Y37303
X77553Y37543
X77533Y37843
X76973Y37963
X76733Y37843
X76213Y37903
X76213Y37623
X76193Y37163
X75933Y38483
X76113Y38763
X76333Y38603
X75603Y38533
X74753Y38143
X74673Y38423
X77233Y39783
X78153Y39031
X78053Y38503
X77773Y38383
X78253Y37643
X78533Y37923
X78713Y38503
X78811Y38843
X79093Y38703
X79333Y38923
X78303Y39641
X75275Y43256
X74986Y43612
X75181Y43807
X75416Y44012
X75853Y43849
X76332Y43423
X76553Y43969
X76895Y43404
X77211Y43404
X77453Y43789
X77773Y43749
X78133Y43009
X78616Y43029
X78653Y43729
X79373Y42649
X78153Y42269
X77733Y42549
X77173Y42640
X76493Y42349
X74683Y44202
X74373Y44449
X74273Y43869
X75413Y44489
X75343Y45199
X76133Y44609
X76353Y44759
X76593Y44629
X76833Y44749
X77233Y44679
X77433Y44849
X77393Y45109
X77393Y45389
X77553Y45629
X77533Y45929
X76973Y46049
X76733Y45929
X76213Y45989
X76213Y45709
X76193Y45249
X75933Y46569
X76113Y46849
X76333Y46689
X75603Y46619
X74753Y46229
X74673Y46509
X77233Y47869
X78153Y47117
X78053Y46589
X77773Y46469
X78253Y45729
X78533Y46009
X78713Y46589
X78811Y46929
X79093Y46789
X79333Y47009
X78303Y47727
X75275Y51342
X74986Y51698
X75181Y51893
X75416Y52098
X75853Y51935
X76332Y51509
X76553Y52055
X76895Y51490
X77211Y51490
X77453Y51875
X77773Y51835
X78133Y51095
X78616Y51115
X78653Y51815
X79373Y50735
X78153Y50355
X77733Y50635
X77173Y50726
X76493Y50435
X74683Y52288
X74373Y52535
X74273Y51955
X75413Y52575
X75343Y53285
X76133Y52695
X76353Y52845
X76593Y52715
X76833Y52835
X77233Y52765
X77433Y52935
X77393Y53195
X77393Y53475
X77553Y53715
X77533Y54015
X76973Y54135
X76733Y54015
X76213Y54075
X76213Y53795
X76193Y53335
X75933Y54655
X76113Y54935
X76333Y54775
X75603Y54705
X74753Y54315
X74673Y54595
X77233Y55955
X78153Y55203
X78053Y54675
X77773Y54555
X78253Y53815
X78533Y54095
X78713Y54675
X78811Y55015
X79093Y54875
X79333Y55095
X78303Y55813
X75275Y59428
X74986Y59784
X75181Y59979
X75416Y60184
X75853Y60021
X76332Y59595
X76553Y60141
X76895Y59576
X77211Y59576
X77453Y59961
X77773Y59921
X78133Y59181
X78616Y59201
X78653Y59901
X79373Y58821
X78153Y58441
X77733Y58721
X77173Y58812
X76493Y58521
X74683Y60374
X74373Y60621
X74273Y60041
X75413Y60661
X75343Y61371
X76133Y60781
X76353Y60931
X76593Y60801
X76833Y60921
X77233Y60851
X77433Y61021
X77393Y61281
X77393Y61561
X77553Y61801
X77533Y62101
X76973Y62221
X76733Y62101
X76213Y62161
X76213Y61881
X76193Y61421
X75933Y62741
X76113Y63021
X76333Y62861
X75603Y62791
X74753Y62401
X74673Y62681
X77233Y64041
X78153Y63289
X78053Y62761
X77773Y62641
X78253Y61901
X78533Y62181
X78713Y62761
X78811Y63101
X79093Y62961
X79333Y63181
X78303Y63899
X75275Y67514
X74986Y67870
X75181Y68065
X75416Y68270
X75853Y68107
X76332Y67681
X76553Y68227
X76895Y67662
X77211Y67662
X77453Y68047
X77773Y68007
X78133Y67267
X78616Y67287
X78653Y67987
X79373Y66907
X78153Y66527
X77733Y66807
X77173Y66898
X76493Y66607
X74683Y68460
X74373Y68707
X74273Y68127
X75413Y68747
X75343Y69457
X76133Y68867
X76353Y69017
X76593Y68887
X76833Y69007
X77233Y68937
X77433Y69107
X77393Y69367
X77393Y69647
X77553Y69887
X77533Y70187
X76973Y70307
X76733Y70187
X76213Y70247
X76213Y69967
X76193Y69507
X75933Y70827
X76113Y71107
X76333Y70947
X75603Y70877
X74753Y70487
X74673Y70767
X77233Y72127
X78153Y71375
X78053Y70847
X77773Y70727
X78253Y69987
X78533Y70267
X78713Y70847
X78811Y71187
X79093Y71047
X79333Y71267
X78303Y71985
X75275Y75600
X74986Y75956
X75181Y76151
X75416Y76356
X75853Y76193
X76332Y75767
X76553Y76313
X76895Y75748
X77211Y75748
X77453Y76133
X77773Y76093
X78133Y75353
X78616Y75373
X78653Y76073
X79373Y74993
X78153Y74613
X77733Y74893
X77173Y74984
X76493Y74693
X74683Y76546
X74373Y76793
X74273Y76213
X75413Y76833
X75343Y77543
X76133Y76953
X76353Y77103
X76593Y76973
X76833Y77093
X77233Y77023
X77433Y77193
X77393Y77453
X77393Y77733
X77553Y77973
X77533Y78273
X76973Y78393
X76733Y78273
X76213Y78333
X76213Y78053
X76193Y77593
X75933Y78913
X76113Y79193
X76333Y79033
X75603Y78963
X74753Y78573
X74673Y78853
X77233Y80213
X78153Y79461
X78053Y78933
X77773Y78813
X78253Y78073
X78533Y78353
X78713Y78933
X78811Y79273
X79093Y79133
X79333Y79353
X78303Y80071
T11C0.022
X2254Y2264
X2574Y1985
X2934Y1746
X3314Y1562
X3723Y1419
X4143Y1340
X4573Y1319
X5013Y1349
X5444Y1451
X5854Y1600
X1974Y2593
X1734Y2952
X2919Y7321
X3298Y7520
X3704Y7657
X4124Y7742
X4544Y7772
X4984Y7733
X5424Y7644
X2254Y10350
X2574Y10071
X2934Y9832
X3314Y9648
X3723Y9505
X4143Y9426
X4573Y9405
X5013Y9435
X5444Y9537
X5854Y9686
X1974Y10679
X1734Y11038
X2919Y15407
X3298Y15606
X3704Y15743
X4124Y15828
X4544Y15858
X4984Y15819
X5424Y15730
X2254Y18436
X2574Y18157
X2934Y17918
X3314Y17734
X3723Y17591
X4143Y17512
X4573Y17491
X5013Y17521
X5444Y17623
X5854Y17772
X1974Y18765
X1734Y19124
X2919Y23493
X3298Y23692
X3704Y23829
X4124Y23914
X4544Y23944
X4984Y23905
X5424Y23816
X2254Y26522
X2574Y26243
X2934Y26004
X3314Y25820
X3723Y25677
X4143Y25598
X4573Y25577
X5013Y25607
X5444Y25709
X5854Y25858
X1974Y26851
X1734Y27210
X2919Y31579
X3298Y31778
X3704Y31915
X4124Y32000
X4544Y32030
X4984Y31991
X5424Y31902
X2254Y34608
X2574Y34329
X2934Y34090
X3314Y33906
X3723Y33763
X4143Y33684
X4573Y33663
X5013Y33693
X5444Y33795
X5854Y33944
X1974Y34937
X1734Y35296
X2919Y39665
X3298Y39864
X3704Y40001
X4124Y40086
X4544Y40116
X4984Y40077
X5424Y39988
X2254Y42694
X2574Y42415
X2934Y42176
X3314Y41992
X3723Y41849
X4143Y41770
X4573Y41749
X5013Y41779
X5444Y41881
X5854Y42030
X1974Y43023
X1734Y43382
X2919Y47751
X3298Y47950
X3704Y48087
X4124Y48172
X4544Y48202
X4984Y48163
X5424Y48074
X2254Y50780
X2574Y50501
X2934Y50262
X3314Y50078
X3723Y49935
X4143Y49856
X4573Y49835
X5013Y49865
X5444Y49967
X5854Y50116
X1974Y51109
X1734Y51468
X2919Y55837
X3298Y56036
X3704Y56173
X4124Y56258
X4544Y56288
X4984Y56249
X5424Y56160
X2254Y58866
X2574Y58587
X2934Y58348
X3314Y58164
X3723Y58021
X4143Y57942
X4573Y57921
X5013Y57951
X5444Y58053
X5854Y58202
X1974Y59195
X1734Y59554
X2919Y63923
X3298Y64122
X3704Y64259
X4124Y64344
X4544Y64374
X4984Y64335
X5424Y64246
X2254Y66952
X2574Y66673
X2934Y66434
X3314Y66250
X3723Y66107
X4143Y66028
X4573Y66007
X5013Y66037
X5444Y66139
X5854Y66288
X1974Y67281
X1734Y67640
X2919Y72009
X3298Y72208
X3704Y72345
X4124Y72430
X4544Y72460
X4984Y72421
X5424Y72332
X2254Y75038
X2574Y74759
X2934Y74520
X3314Y74336
X3723Y74193
X4143Y74114
X4573Y74093
X5013Y74123
X5444Y74225
X5854Y74374
X1974Y75367
X1734Y75726
X2919Y80095
X3298Y80294
X3704Y80431
X4124Y80516
X4544Y80546
X4984Y80507
X5424Y80418
X10340Y2264
X10660Y1985
X11020Y1746
X11400Y1562
X11809Y1419
X12229Y1340
X12659Y1319
X13099Y1349
X13530Y1451
X13940Y1600
X10060Y2593
X9820Y2952
X11005Y7321
X11384Y7520
X11790Y7657
X12210Y7742
X12630Y7772
X13070Y7733
X13510Y7644
X10340Y10350
X10660Y10071
X11020Y9832
X11400Y9648
X11809Y9505
X12229Y9426
X12659Y9405
X13099Y9435
X13530Y9537
X13940Y9686
X10060Y10679
X9820Y11038
X11005Y15407
X11384Y15606
X11790Y15743
X12210Y15828
X12630Y15858
X13070Y15819
X13510Y15730
X10340Y18436
X10660Y18157
X11020Y17918
X11400Y17734
X11809Y17591
X12229Y17512
X12659Y17491
X13099Y17521
X13530Y17623
X13940Y17772
X10060Y18765
X9820Y19124
X11005Y23493
X11384Y23692
X11790Y23829
X12210Y23914
X12630Y23944
X13070Y23905
X13510Y23816
X10340Y26522
X10660Y26243
X11020Y26004
X11400Y25820
X11809Y25677
X12229Y25598
X12659Y25577
X13099Y25607
X13530Y25709
X13940Y25858
X10060Y26851
X9820Y27210
X11005Y31579
X11384Y31778
X11790Y31915
X12210Y32000
X12630Y32030
X13070Y31991
X13510Y31902
X10340Y34608
X10660Y34329
X11020Y34090
X11400Y33906
X11809Y33763
X12229Y33684
X12659Y33663
X13099Y33693
X13530Y33795
X13940Y33944
X10060Y34937
X9820Y35296
X11005Y39665
X11384Y39864
X11790Y40001
X12210Y40086
X12630Y40116
X13070Y40077
X13510Y39988
X10340Y42694
X10660Y42415
X11020Y42176
X11400Y41992
X11809Y41849
X12229Y41770
X12659Y41749
X13099Y41779
X13530Y41881
X13940Y42030
X10060Y43023
X9820Y43382
X11005Y47751
X11384Y47950
X11790Y48087
X12210Y48172
X12630Y48202
X13070Y48163
X13510Y48074
X10340Y50780
X10660Y50501
X11020Y50262
X11400Y50078
X11809Y49935
X12229Y49856
X12659Y49835
X13099Y49865
X13530Y49967
X13940Y50116
X10060Y51109
X9820Y51468
X11005Y55837
X11384Y56036
X11790Y56173
X12210Y56258
X12630Y56288
X13070Y56249
X13510Y56160
X10340Y58866
X10660Y58587
X11020Y58348
X11400Y58164
X11809Y58021
X12229Y57942
X12659Y57921
X13099Y57951
X13530Y58053
X13940Y58202
X10060Y59195
X9820Y59554
X11005Y63923
X11384Y64122
X11790Y64259
X12210Y64344
X12630Y64374
X13070Y64335
X13510Y64246
X10340Y66952
X10660Y66673
X11020Y66434
X11400Y66250
X11809Y66107
X12229Y66028
X12659Y66007
X13099Y66037
X13530Y66139
X13940Y66288
X10060Y67281
X9820Y67640
X11005Y72009
X11384Y72208
X11790Y72345
X12210Y72430
X12630Y72460
X13070Y72421
X13510Y72332
X10340Y75038
X10660Y74759
X11020Y74520
X11400Y74336
X11809Y74193
X12229Y74114
X12659Y74093
X13099Y74123
X13530Y74225
X13940Y74374
X10060Y75367
X9820Y75726
X11005Y80095
X11384Y80294
X11790Y80431
X12210Y80516
X12630Y80546
X13070Y80507
X13510Y80418
X18426Y2264
X18746Y1985
X19106Y1746
X19486Y1562
X19895Y1419
X20315Y1340
X20745Y1319
X21185Y1349
X21616Y1451
X22026Y1600
X18146Y2593
X17906Y2952
X19091Y7321
X19470Y7520
X19876Y7657
X20296Y7742
X20716Y7772
X21156Y7733
X21596Y7644
X18426Y10350
X18746Y10071
X19106Y9832
X19486Y9648
X19895Y9505
X20315Y9426
X20745Y9405
X21185Y9435
X21616Y9537
X22026Y9686
X18146Y10679
X17906Y11038
X19091Y15407
X19470Y15606
X19876Y15743
X20296Y15828
X20716Y15858
X21156Y15819
X21596Y15730
X18426Y18436
X18746Y18157
X19106Y17918
X19486Y17734
X19895Y17591
X20315Y17512
X20745Y17491
X21185Y17521
X21616Y17623
X22026Y17772
X18146Y18765
X17906Y19124
X19091Y23493
X19470Y23692
X19876Y23829
X20296Y23914
X20716Y23944
X21156Y23905
X21596Y23816
X18426Y26522
X18746Y26243
X19106Y26004
X19486Y25820
X19895Y25677
X20315Y25598
X20745Y25577
X21185Y25607
X21616Y25709
X22026Y25858
X18146Y26851
X17906Y27210
X19091Y31579
X19470Y31778
X19876Y31915
X20296Y32000
X20716Y32030
X21156Y31991
X21596Y31902
X18426Y34608
X18746Y34329
X19106Y34090
X19486Y33906
X19895Y33763
X20315Y33684
X20745Y33663
X21185Y33693
X21616Y33795
X22026Y33944
X18146Y34937
X17906Y35296
X19091Y39665
X19470Y39864
X19876Y40001
X20296Y40086
X20716Y40116
X21156Y40077
X21596Y39988
X18426Y42694
X18746Y42415
X19106Y42176
X19486Y41992
X19895Y41849
X20315Y41770
X20745Y41749
X21185Y41779
X21616Y41881
X22026Y42030
X18146Y43023
X17906Y43382
X19091Y47751
X19470Y47950
X19876Y48087
X20296Y48172
X20716Y48202
X21156Y48163
X21596Y48074
X18426Y50780
X18746Y50501
X19106Y50262
X19486Y50078
X19895Y49935
X20315Y49856
X20745Y49835
X21185Y49865
X21616Y49967
X22026Y50116
X18146Y51109
X17906Y51468
X19091Y55837
X19470Y56036
X19876Y56173
X20296Y56258
X20716Y56288
X21156Y56249
X21596Y56160
X18426Y58866
X18746Y58587
X19106Y58348
X19486Y58164
X19895Y58021
X20315Y57942
X20745Y57921
X21185Y57951
X21616Y58053
X22026Y58202
X18146Y59195
X17906Y59554
X19091Y63923
X19470Y64122
X19876Y64259
X20296Y64344
X20716Y64374
X21156Y64335
X21596Y64246
X18426Y66952
X18746Y66673
X19106Y66434
X19486Y66250
X19895Y66107
X20315Y66028
X20745Y66007
X21185Y66037
X21616Y66139
X22026Y66288
X18146Y67281
X17906Y67640
X19091Y72009
X19470Y72208
X19876Y72345
X20296Y72430
X20716Y72460
X21156Y72421
X21596Y72332
X18426Y75038
X18746Y74759
X19106Y74520
X19486Y74336
X19895Y74193
X20315Y74114
X20745Y74093
X21185Y74123
X21616Y74225
X22026Y74374
X18146Y75367
X17906Y75726
X19091Y80095
X19470Y80294
X19876Y80431
X20296Y80516
X20716Y80546
X21156Y80507
X21596Y80418
X26512Y2264
X26832Y1985
X27192Y1746
X27572Y1562
X27981Y1419
X28401Y1340
X28831Y1319
X29271Y1349
X29702Y1451
X30112Y1600
X26232Y2593
X25992Y2952
X27177Y7321
X27556Y7520
X27962Y7657
X28382Y7742
X28802Y7772
X29242Y7733
X29682Y7644
X26512Y10350
X26832Y10071
X27192Y9832
X27572Y9648
X27981Y9505
X28401Y9426
X28831Y9405
X29271Y9435
X29702Y9537
X30112Y9686
X26232Y10679
X25992Y11038
X27177Y15407
X27556Y15606
X27962Y15743
X28382Y15828
X28802Y15858
X29242Y15819
X29682Y15730
X26512Y18436
X26832Y18157
X27192Y17918
X27572Y17734
X27981Y17591
X28401Y17512
X28831Y17491
X29271Y17521
X29702Y17623
X30112Y17772
X26232Y18765
X25992Y19124
X27177Y23493
X27556Y23692
X27962Y23829
X28382Y23914
X28802Y23944
X29242Y23905
X29682Y23816
X26512Y26522
X26832Y26243
X27192Y26004
X27572Y25820
X27981Y25677
X28401Y25598
X28831Y25577
X29271Y25607
X29702Y25709
X30112Y25858
X26232Y26851
X25992Y27210
X27177Y31579
X27556Y31778
X27962Y31915
X28382Y32000
X28802Y32030
X29242Y31991
X29682Y31902
X26512Y34608
X26832Y34329
X27192Y34090
X27572Y33906
X27981Y33763
X28401Y33684
X28831Y33663
X29271Y33693
X29702Y33795
X30112Y33944
X26232Y34937
X25992Y35296
X27177Y39665
X27556Y39864
X27962Y40001
X28382Y40086
X28802Y40116
X29242Y40077
X29682Y39988
X26512Y42694
X26832Y42415
X27192Y42176
X27572Y41992
X27981Y41849
X28401Y41770
X28831Y41749
X29271Y41779
X29702Y41881
X30112Y42030
X26232Y43023
X25992Y43382
X27177Y47751
X27556Y47950
X27962Y48087
X28382Y48172
X28802Y48202
X29242Y48163
X29682Y48074
X26512Y50780
X26832Y50501
X27192Y50262
X27572Y50078
X27981Y49935
X28401Y49856
X28831Y49835
X29271Y49865
X29702Y49967
X30112Y50116
X26232Y51109
X25992Y51468
X27177Y55837
X27556Y56036
X27962Y56173
X28382Y56258
X28802Y56288
X29242Y56249
X29682Y56160
X26512Y58866
X26832Y58587
X27192Y58348
X27572Y58164
X27981Y58021
X28401Y57942
X28831Y57921
X29271Y57951
X29702Y58053
X30112Y58202
X26232Y59195
X25992Y59554
X27177Y63923
X27556Y64122
X27962Y64259
X28382Y64344
X28802Y64374
X29242Y64335
X29682Y64246
X26512Y66952
X26832Y66673
X27192Y66434
X27572Y66250
X27981Y66107
X28401Y66028
X28831Y66007
X29271Y66037
X29702Y66139
X30112Y66288
X26232Y67281
X25992Y67640
X27177Y72009
X27556Y72208
X27962Y72345
X28382Y72430
X28802Y72460
X29242Y72421
X29682Y72332
X26512Y75038
X26832Y74759
X27192Y74520
X27572Y74336
X27981Y74193
X28401Y74114
X28831Y74093
X29271Y74123
X29702Y74225
X30112Y74374
X26232Y75367
X25992Y75726
X27177Y80095
X27556Y80294
X27962Y80431
X28382Y80516
X28802Y80546
X29242Y80507
X29682Y80418
X34598Y2264
X34918Y1985
X35278Y1746
X35658Y1562
X36067Y1419
X36487Y1340
X36917Y1319
X37357Y1349
X37788Y1451
X38198Y1600
X34318Y2593
X34078Y2952
X35263Y7321
X35642Y7520
X36048Y7657
X36468Y7742
X36888Y7772
X37328Y7733
X37768Y7644
X34598Y10350
X34918Y10071
X35278Y9832
X35658Y9648
X36067Y9505
X36487Y9426
X36917Y9405
X37357Y9435
X37788Y9537
X38198Y9686
X34318Y10679
X34078Y11038
X35263Y15407
X35642Y15606
X36048Y15743
X36468Y15828
X36888Y15858
X37328Y15819
X37768Y15730
X34598Y18436
X34918Y18157
X35278Y17918
X35658Y17734
X36067Y17591
X36487Y17512
X36917Y17491
X37357Y17521
X37788Y17623
X38198Y17772
X34318Y18765
X34078Y19124
X35263Y23493
X35642Y23692
X36048Y23829
X36468Y23914
X36888Y23944
X37328Y23905
X37768Y23816
X34598Y26522
X34918Y26243
X35278Y26004
X35658Y25820
X36067Y25677
X36487Y25598
X36917Y25577
X37357Y25607
X37788Y25709
X38198Y25858
X34318Y26851
X34078Y27210
X35263Y31579
X35642Y31778
X36048Y31915
X36468Y32000
X36888Y32030
X37328Y31991
X37768Y31902
X34598Y34608
X34918Y34329
X35278Y34090
X35658Y33906
X36067Y33763
X36487Y33684
X36917Y33663
X37357Y33693
X37788Y33795
X38198Y33944
X34318Y34937
X34078Y35296
X35263Y39665
X35642Y39864
X36048Y40001
X36468Y40086
X36888Y40116
X37328Y40077
X37768Y39988
X34598Y42694
X34918Y42415
X35278Y42176
X35658Y41992
X36067Y41849
X36487Y41770
X36917Y41749
X37357Y41779
X37788Y41881
X38198Y42030
X34318Y43023
X34078Y43382
X35263Y47751
X35642Y47950
X36048Y48087
X36468Y48172
X36888Y48202
X37328Y48163
X37768Y48074
X34598Y50780
X34918Y50501
X35278Y50262
X35658Y50078
X36067Y49935
X36487Y49856
X36917Y49835
X37357Y49865
X37788Y49967
X38198Y50116
X34318Y51109
X34078Y51468
X35263Y55837
X35642Y56036
X36048Y56173
X36468Y56258
X36888Y56288
X37328Y56249
X37768Y56160
X34598Y58866
X34918Y58587
X35278Y58348
X35658Y58164
X36067Y58021
X36487Y57942
X36917Y57921
X37357Y57951
X37788Y58053
X38198Y58202
X34318Y59195
X34078Y59554
X35263Y63923
X35642Y64122
X36048Y64259
X36468Y64344
X36888Y64374
X37328Y64335
X37768Y64246
X34598Y66952
X34918Y66673
X35278Y66434
X35658Y66250
X36067Y66107
X36487Y66028
X36917Y66007
X37357Y66037
X37788Y66139
X38198Y66288
X34318Y67281
X34078Y67640
X35263Y72009
X35642Y72208
X36048Y72345
X36468Y72430
X36888Y72460
X37328Y72421
X37768Y72332
X34598Y75038
X34918Y74759
X35278Y74520
X35658Y74336
X36067Y74193
X36487Y74114
X36917Y74093
X37357Y74123
X37788Y74225
X38198Y74374
X34318Y75367
X34078Y75726
X35263Y80095
X35642Y80294
X36048Y80431
X36468Y80516
X36888Y80546
X37328Y80507
X37768Y80418
X42684Y2264
X43004Y1985
X43364Y1746
X43744Y1562
X44153Y1419
X44573Y1340
X45003Y1319
X45443Y1349
X45874Y1451
X46284Y1600
X42404Y2593
X42164Y2952
X43349Y7321
X43728Y7520
X44134Y7657
X44554Y7742
X44974Y7772
X45414Y7733
X45854Y7644
X42684Y10350
X43004Y10071
X43364Y9832
X43744Y9648
X44153Y9505
X44573Y9426
X45003Y9405
X45443Y9435
X45874Y9537
X46284Y9686
X42404Y10679
X42164Y11038
X43349Y15407
X43728Y15606
X44134Y15743
X44554Y15828
X44974Y15858
X45414Y15819
X45854Y15730
X42684Y18436
X43004Y18157
X43364Y17918
X43744Y17734
X44153Y17591
X44573Y17512
X45003Y17491
X45443Y17521
X45874Y17623
X46284Y17772
X42404Y18765
X42164Y19124
X43349Y23493
X43728Y23692
X44134Y23829
X44554Y23914
X44974Y23944
X45414Y23905
X45854Y23816
X42684Y26522
X43004Y26243
X43364Y26004
X43744Y25820
X44153Y25677
X44573Y25598
X45003Y25577
X45443Y25607
X45874Y25709
X46284Y25858
X42404Y26851
X42164Y27210
X43349Y31579
X43728Y31778
X44134Y31915
X44554Y32000
X44974Y32030
X45414Y31991
X45854Y31902
X42684Y34608
X43004Y34329
X43364Y34090
X43744Y33906
X44153Y33763
X44573Y33684
X45003Y33663
X45443Y33693
X45874Y33795
X46284Y33944
X42404Y34937
X42164Y35296
X43349Y39665
X43728Y39864
X44134Y40001
X44554Y40086
X44974Y40116
X45414Y40077
X45854Y39988
X42684Y42694
X43004Y42415
X43364Y42176
X43744Y41992
X44153Y41849
X44573Y41770
X45003Y41749
X45443Y41779
X45874Y41881
X46284Y42030
X42404Y43023
X42164Y43382
X43349Y47751
X43728Y47950
X44134Y48087
X44554Y48172
X44974Y48202
X45414Y48163
X45854Y48074
X42684Y50780
X43004Y50501
X43364Y50262
X43744Y50078
X44153Y49935
X44573Y49856
X45003Y49835
X45443Y49865
X45874Y49967
X46284Y50116
X42404Y51109
X42164Y51468
X43349Y55837
X43728Y56036
X44134Y56173
X44554Y56258
X44974Y56288
X45414Y56249
X45854Y56160
X42684Y58866
X43004Y58587
X43364Y58348
X43744Y58164
X44153Y58021
X44573Y57942
X45003Y57921
X45443Y57951
X45874Y58053
X46284Y58202
X42404Y59195
X42164Y59554
X43349Y63923
X43728Y64122
X44134Y64259
X44554Y64344
X44974Y64374
X45414Y64335
X45854Y64246
X42684Y66952
X43004Y66673
X43364Y66434
X43744Y66250
X44153Y66107
X44573Y66028
X45003Y66007
X45443Y66037
X45874Y66139
X46284Y66288
X42404Y67281
X42164Y67640
X43349Y72009
X43728Y72208
X44134Y72345
X44554Y72430
X44974Y72460
X45414Y72421
X45854Y72332
X42684Y75038
X43004Y74759
X43364Y74520
X43744Y74336
X44153Y74193
X44573Y74114
X45003Y74093
X45443Y74123
X45874Y74225
X46284Y74374
X42404Y75367
X42164Y75726
X43349Y80095
X43728Y80294
X44134Y80431
X44554Y80516
X44974Y80546
X45414Y80507
X45854Y80418
X50770Y2264
X51090Y1985
X51450Y1746
X51830Y1562
X52239Y1419
X52659Y1340
X53089Y1319
X53529Y1349
X53960Y1451
X54370Y1600
X50490Y2593
X50250Y2952
X51435Y7321
X51814Y7520
X52220Y7657
X52640Y7742
X53060Y7772
X53500Y7733
X53940Y7644
X50770Y10350
X51090Y10071
X51450Y9832
X51830Y9648
X52239Y9505
X52659Y9426
X53089Y9405
X53529Y9435
X53960Y9537
X54370Y9686
X50490Y10679
X50250Y11038
X51435Y15407
X51814Y15606
X52220Y15743
X52640Y15828
X53060Y15858
X53500Y15819
X53940Y15730
X50770Y18436
X51090Y18157
X51450Y17918
X51830Y17734
X52239Y17591
X52659Y17512
X53089Y17491
X53529Y17521
X53960Y17623
X54370Y17772
X50490Y18765
X50250Y19124
X51435Y23493
X51814Y23692
X52220Y23829
X52640Y23914
X53060Y23944
X53500Y23905
X53940Y23816
X50770Y26522
X51090Y26243
X51450Y26004
X51830Y25820
X52239Y25677
X52659Y25598
X53089Y25577
X53529Y25607
X53960Y25709
X54370Y25858
X50490Y26851
X50250Y27210
X51435Y31579
X51814Y31778
X52220Y31915
X52640Y32000
X53060Y32030
X53500Y31991
X53940Y31902
X50770Y34608
X51090Y34329
X51450Y34090
X51830Y33906
X52239Y33763
X52659Y33684
X53089Y33663
X53529Y33693
X53960Y33795
X54370Y33944
X50490Y34937
X50250Y35296
X51435Y39665
X51814Y39864
X52220Y40001
X52640Y40086
X53060Y40116
X53500Y40077
X53940Y39988
X50770Y42694
X51090Y42415
X51450Y42176
X51830Y41992
X52239Y41849
X52659Y41770
X53089Y41749
X53529Y41779
X53960Y41881
X54370Y42030
X50490Y43023
X50250Y43382
X51435Y47751
X51814Y47950
X52220Y48087
X52640Y48172
X53060Y48202
X53500Y48163
X53940Y48074
X50770Y50780
X51090Y50501
X51450Y50262
X51830Y50078
X52239Y49935
X52659Y49856
X53089Y49835
X53529Y49865
X53960Y49967
X54370Y50116
X50490Y51109
X50250Y51468
X51435Y55837
X51814Y56036
X52220Y56173
X52640Y56258
X53060Y56288
X53500Y56249
X53940Y56160
X50770Y58866
X51090Y58587
X51450Y58348
X51830Y58164
X52239Y58021
X52659Y57942
X53089Y57921
X53529Y57951
X53960Y58053
X54370Y58202
X50490Y59195
X50250Y59554
X51435Y63923
X51814Y64122
X52220Y64259
X52640Y64344
X53060Y64374
X53500Y64335
X53940Y64246
X50770Y66952
X51090Y66673
X51450Y66434
X51830Y66250
X52239Y66107
X52659Y66028
X53089Y66007
X53529Y66037
X53960Y66139
X54370Y66288
X50490Y67281
X50250Y67640
X51435Y72009
X51814Y72208
X52220Y72345
X52640Y72430
X53060Y72460
X53500Y72421
X53940Y72332
X50770Y75038
X51090Y74759
X51450Y74520
X51830Y74336
X52239Y74193
X52659Y74114
X53089Y74093
X53529Y74123
X53960Y74225
X54370Y74374
X50490Y75367
X50250Y75726
X51435Y80095
X51814Y80294
X52220Y80431
X52640Y80516
X53060Y80546
X53500Y80507
X53940Y80418
X58856Y2264
X59176Y1985
X59536Y1746
X59916Y1562
X60325Y1419
X60745Y1340
X61175Y1319
X61615Y1349
X62046Y1451
X62456Y1600
X58576Y2593
X58336Y2952
X59521Y7321
X59900Y7520
X60306Y7657
X60726Y7742
X61146Y7772
X61586Y7733
X62026Y7644
X58856Y10350
X59176Y10071
X59536Y9832
X59916Y9648
X60325Y9505
X60745Y9426
X61175Y9405
X61615Y9435
X62046Y9537
X62456Y9686
X58576Y10679
X58336Y11038
X59521Y15407
X59900Y15606
X60306Y15743
X60726Y15828
X61146Y15858
X61586Y15819
X62026Y15730
X58856Y18436
X59176Y18157
X59536Y17918
X59916Y17734
X60325Y17591
X60745Y17512
X61175Y17491
X61615Y17521
X62046Y17623
X62456Y17772
X58576Y18765
X58336Y19124
X59521Y23493
X59900Y23692
X60306Y23829
X60726Y23914
X61146Y23944
X61586Y23905
X62026Y23816
X58856Y26522
X59176Y26243
X59536Y26004
X59916Y25820
X60325Y25677
X60745Y25598
X61175Y25577
X61615Y25607
X62046Y25709
X62456Y25858
X58576Y26851
X58336Y27210
X59521Y31579
X59900Y31778
X60306Y31915
X60726Y32000
X61146Y32030
X61586Y31991
X62026Y31902
X58856Y34608
X59176Y34329
X59536Y34090
X59916Y33906
X60325Y33763
X60745Y33684
X61175Y33663
X61615Y33693
X62046Y33795
X62456Y33944
X58576Y34937
X58336Y35296
X59521Y39665
X59900Y39864
X60306Y40001
X60726Y40086
X61146Y40116
X61586Y40077
X62026Y39988
X58856Y42694
X59176Y42415
X59536Y42176
X59916Y41992
X60325Y41849
X60745Y41770
X61175Y41749
X61615Y41779
X62046Y41881
X62456Y42030
X58576Y43023
X58336Y43382
X59521Y47751
X59900Y47950
X60306Y48087
X60726Y48172
X61146Y48202
X61586Y48163
X62026Y48074
X58856Y50780
X59176Y50501
X59536Y50262
X59916Y50078
X60325Y49935
X60745Y49856
X61175Y49835
X61615Y49865
X62046Y49967
X62456Y50116
X58576Y51109
X58336Y51468
X59521Y55837
X59900Y56036
X60306Y56173
X60726Y56258
X61146Y56288
X61586Y56249
X62026Y56160
X58856Y58866
X59176Y58587
X59536Y58348
X59916Y58164
X60325Y58021
X60745Y57942
X61175Y57921
X61615Y57951
X62046Y58053
X62456Y58202
X58576Y59195
X58336Y59554
X59521Y63923
X59900Y64122
X60306Y64259
X60726Y64344
X61146Y64374
X61586Y64335
X62026Y64246
X58856Y66952
X59176Y66673
X59536Y66434
X59916Y66250
X60325Y66107
X60745Y66028
X61175Y66007
X61615Y66037
X62046Y66139
X62456Y66288
X58576Y67281
X58336Y67640
X59521Y72009
X59900Y72208
X60306Y72345
X60726Y72430
X61146Y72460
X61586Y72421
X62026Y72332
X58856Y75038
X59176Y74759
X59536Y74520
X59916Y74336
X60325Y74193
X60745Y74114
X61175Y74093
X61615Y74123
X62046Y74225
X62456Y74374
X58576Y75367
X58336Y75726
X59521Y80095
X59900Y80294
X60306Y80431
X60726Y80516
X61146Y80546
X61586Y80507
X62026Y80418
X66942Y2264
X67262Y1985
X67622Y1746
X68002Y1562
X68411Y1419
X68831Y1340
X69261Y1319
X69701Y1349
X70132Y1451
X70542Y1600
X66662Y2593
X66422Y2952
X67607Y7321
X67986Y7520
X68392Y7657
X68812Y7742
X69232Y7772
X69672Y7733
X70112Y7644
X66942Y10350
X67262Y10071
X67622Y9832
X68002Y9648
X68411Y9505
X68831Y9426
X69261Y9405
X69701Y9435
X70132Y9537
X70542Y9686
X66662Y10679
X66422Y11038
X67607Y15407
X67986Y15606
X68392Y15743
X68812Y15828
X69232Y15858
X69672Y15819
X70112Y15730
X66942Y18436
X67262Y18157
X67622Y17918
X68002Y17734
X68411Y17591
X68831Y17512
X69261Y17491
X69701Y17521
X70132Y17623
X70542Y17772
X66662Y18765
X66422Y19124
X67607Y23493
X67986Y23692
X68392Y23829
X68812Y23914
X69232Y23944
X69672Y23905
X70112Y23816
X66942Y26522
X67262Y26243
X67622Y26004
X68002Y25820
X68411Y25677
X68831Y25598
X69261Y25577
X69701Y25607
X70132Y25709
X70542Y25858
X66662Y26851
X66422Y27210
X67607Y31579
X67986Y31778
X68392Y31915
X68812Y32000
X69232Y32030
X69672Y31991
X70112Y31902
X66942Y34608
X67262Y34329
X67622Y34090
X68002Y33906
X68411Y33763
X68831Y33684
X69261Y33663
X69701Y33693
X70132Y33795
X70542Y33944
X66662Y34937
X66422Y35296
X67607Y39665
X67986Y39864
X68392Y40001
X68812Y40086
X69232Y40116
X69672Y40077
X70112Y39988
X66942Y42694
X67262Y42415
X67622Y42176
X68002Y41992
X68411Y41849
X68831Y41770
X69261Y41749
X69701Y41779
X70132Y41881
X70542Y42030
X66662Y43023
X66422Y43382
X67607Y47751
X67986Y47950
X68392Y48087
X68812Y48172
X69232Y48202
X69672Y48163
X70112Y48074
X66942Y50780
X67262Y50501
X67622Y50262
X68002Y50078
X68411Y49935
X68831Y49856
X69261Y49835
X69701Y49865
X70132Y49967
X70542Y50116
X66662Y51109
X66422Y51468
X67607Y55837
X67986Y56036
X68392Y56173
X68812Y56258
X69232Y56288
X69672Y56249
X70112Y56160
X66942Y58866
X67262Y58587
X67622Y58348
X68002Y58164
X68411Y58021
X68831Y57942
X69261Y57921
X69701Y57951
X70132Y58053
X70542Y58202
X66662Y59195
X66422Y59554
X67607Y63923
X67986Y64122
X68392Y64259
X68812Y64344
X69232Y64374
X69672Y64335
X70112Y64246
X66942Y66952
X67262Y66673
X67622Y66434
X68002Y66250
X68411Y66107
X68831Y66028
X69261Y66007
X69701Y66037
X70132Y66139
X70542Y66288
X66662Y67281
X66422Y67640
X67607Y72009
X67986Y72208
X68392Y72345
X68812Y72430
X69232Y72460
X69672Y72421
X70112Y72332
X66942Y75038
X67262Y74759
X67622Y74520
X68002Y74336
X68411Y74193
X68831Y74114
X69261Y74093
X69701Y74123
X70132Y74225
X70542Y74374
X66662Y75367
X66422Y75726
X67607Y80095
X67986Y80294
X68392Y80431
X68812Y80516
X69232Y80546
X69672Y80507
X70112Y80418
X75028Y2264
X75348Y1985
X75708Y1746
X76088Y1562
X76497Y1419
X76917Y1340
X77347Y1319
X77787Y1349
X78218Y1451
X78628Y1600
X74748Y2593
X74508Y2952
X75693Y7321
X76072Y7520
X76478Y7657
X76898Y7742
X77318Y7772
X77758Y7733
X78198Y7644
X75028Y10350
X75348Y10071
X75708Y9832
X76088Y9648
X76497Y9505
X76917Y9426
X77347Y9405
X77787Y9435
X78218Y9537
X78628Y9686
X74748Y10679
X74508Y11038
X75693Y15407
X76072Y15606
X76478Y15743
X76898Y15828
X77318Y15858
X77758Y15819
X78198Y15730
X75028Y18436
X75348Y18157
X75708Y17918
X76088Y17734
X76497Y17591
X76917Y17512
X77347Y17491
X77787Y17521
X78218Y17623
X78628Y17772
X74748Y18765
X74508Y19124
X75693Y23493
X76072Y23692
X76478Y23829
X76898Y23914
X77318Y23944
X77758Y23905
X78198Y23816
X75028Y26522
X75348Y26243
X75708Y26004
X76088Y25820
X76497Y25677
X76917Y25598
X77347Y25577
X77787Y25607
X78218Y25709
X78628Y25858
X74748Y26851
X74508Y27210
X75693Y31579
X76072Y31778
X76478Y31915
X76898Y32000
X77318Y32030
X77758Y31991
X78198Y31902
X75028Y34608
X75348Y34329
X75708Y34090
X76088Y33906
X76497Y33763
X76917Y33684
X77347Y33663
X77787Y33693
X78218Y33795
X78628Y33944
X74748Y34937
X74508Y35296
X75693Y39665
X76072Y39864
X76478Y40001
X76898Y40086
X77318Y40116
X77758Y40077
X78198Y39988
X75028Y42694
X75348Y42415
X75708Y42176
X76088Y41992
X76497Y41849
X76917Y41770
X77347Y41749
X77787Y41779
X78218Y41881
X78628Y42030
X74748Y43023
X74508Y43382
X75693Y47751
X76072Y47950
X76478Y48087
X76898Y48172
X77318Y48202
X77758Y48163
X78198Y48074
X75028Y50780
X75348Y50501
X75708Y50262
X76088Y50078
X76497Y49935
X76917Y49856
X77347Y49835
X77787Y49865
X78218Y49967
X78628Y50116
X74748Y51109
X74508Y51468
X75693Y55837
X76072Y56036
X76478Y56173
X76898Y56258
X77318Y56288
X77758Y56249
X78198Y56160
X75028Y58866
X75348Y58587
X75708Y58348
X76088Y58164
X76497Y58021
X76917Y57942
X77347Y57921
X77787Y57951
X78218Y58053
X78628Y58202
X74748Y59195
X74508Y59554
X75693Y63923
X76072Y64122
X76478Y64259
X76898Y64344
X77318Y64374
X77758Y64335
X78198Y64246
X75028Y66952
X75348Y66673
X75708Y66434
X76088Y66250
X76497Y66107
X76917Y66028
X77347Y66007
X77787Y66037
X78218Y66139
X78628Y66288
X74748Y67281
X74508Y67640
X75693Y72009
X76072Y72208
X76478Y72345
X76898Y72430
X77318Y72460
X77758Y72421
X78198Y72332
X75028Y75038
X75348Y74759
X75708Y74520
X76088Y74336
X76497Y74193
X76917Y74114
X77347Y74093
X77787Y74123
X78218Y74225
X78628Y74374
X74748Y75367
X74508Y75726
X75693Y80095
X76072Y80294
X76478Y80431
X76898Y80516
X77318Y80546
X77758Y80507
X78198Y80418
T14C0.081
X5000Y-1000
X76860Y-1000
X5000Y82860
X76860Y82860
M30
